<?xml version="1.0" encoding="UTF-8" standalone="no"?>
<!DOCTYPE svg PUBLIC "-//W3C//DTD SVG 1.1//EN"
 "http://www.w3.org/Graphics/SVG/1.1/DTD/svg11.dtd">
<!-- Generated by graphviz version 2.40.1 (20161225.0304)
 -->
<!-- Title: models_diagram Pages: 1 -->
<svg width="1956pt" height="488pt"
 viewBox="0.00 0.00 1955.75 488.00" xmlns="http://www.w3.org/2000/svg" xmlns:xlink="http://www.w3.org/1999/xlink">
<g id="graph0" class="graph" transform="scale(1 1) rotate(0) translate(4 484)">
<title>models_diagram</title>
<polygon fill="transparent" stroke="transparent" points="-4,4 -4,-484 1951.7463,-484 1951.7463,4 -4,4"/>
<!-- User -->
<g id="node1" class="node">
<title>User</title>
<path fill="none" stroke="#000000" d="M918,-343.5C918,-343.5 1175,-343.5 1175,-343.5 1181,-343.5 1187,-349.5 1187,-355.5 1187,-355.5 1187,-467.5 1187,-467.5 1187,-473.5 1181,-479.5 1175,-479.5 1175,-479.5 918,-479.5 918,-479.5 912,-479.5 906,-473.5 906,-467.5 906,-467.5 906,-355.5 906,-355.5 906,-349.5 912,-343.5 918,-343.5"/>
<text text-anchor="middle" x="1046.5" y="-464.3" font-family="Times,serif" font-size="14.00" fill="#000000">User</text>
<polyline fill="none" stroke="#000000" points="906,-456.5 1187,-456.5 "/>
<text text-anchor="start" x="914" y="-441.3" font-family="Times,serif" font-size="14.00" fill="#000000">first_name :character varying</text>
<text text-anchor="start" x="914" y="-426.3" font-family="Times,serif" font-size="14.00" fill="#000000">last_name :character varying</text>
<text text-anchor="start" x="914" y="-411.3" font-family="Times,serif" font-size="14.00" fill="#000000">mobile :character varying</text>
<text text-anchor="start" x="914" y="-396.3" font-family="Times,serif" font-size="14.00" fill="#000000">last_connected :timestamp without time zone</text>
<text text-anchor="start" x="914" y="-381.3" font-family="Times,serif" font-size="14.00" fill="#000000">last_disconnected :timestamp without time zone</text>
<text text-anchor="start" x="914" y="-366.3" font-family="Times,serif" font-size="14.00" fill="#000000">disabled :boolean</text>
<text text-anchor="start" x="914" y="-351.3" font-family="Times,serif" font-size="14.00" fill="#000000">email :character varying</text>
</g>
<!-- Role -->
<g id="node2" class="node">
<title>Role</title>
<path fill="none" stroke="#000000" d="M104,-208C104,-208 229,-208 229,-208 235,-208 241,-214 241,-220 241,-220 241,-242 241,-242 241,-248 235,-254 229,-254 229,-254 104,-254 104,-254 98,-254 92,-248 92,-242 92,-242 92,-220 92,-220 92,-214 98,-208 104,-208"/>
<text text-anchor="middle" x="166.5" y="-238.8" font-family="Times,serif" font-size="14.00" fill="#000000">Role</text>
<polyline fill="none" stroke="#000000" points="92,-231 241,-231 "/>
<text text-anchor="start" x="100" y="-215.8" font-family="Times,serif" font-size="14.00" fill="#000000">name :character varying</text>
</g>
<!-- User&#45;&gt;Role -->
<g id="edge15" class="edge">
<title>User&#45;&gt;Role</title>
<path fill="none" stroke="#e9b87b" d="M895.7475,-407.4223C698.0634,-399.973 363.565,-379.5219 254.5,-325 226.4329,-310.9692 202.6881,-284.0644 186.9639,-262.6217"/>
<polygon fill="#e9b87b" stroke="#e9b87b" points="895.9397,-407.4293 905.7665,-412.2961 900.9363,-407.6142 905.9329,-407.7991 905.9329,-407.7991 905.9329,-407.7991 900.9363,-407.6142 906.0993,-403.3022 895.9397,-407.4293 895.9397,-407.4293"/>
<polygon fill="#e9b87b" stroke="#e9b87b" points="186.9252,-262.5672 184.8035,-251.8085 184.0299,-258.4907 181.1347,-254.4142 181.1347,-254.4142 181.1347,-254.4142 184.0299,-258.4907 177.4658,-257.0199 186.9252,-262.5672 186.9252,-262.5672"/>
</g>
<!-- UserRole -->
<g id="node5" class="node">
<title>UserRole</title>
<path fill="none" stroke="#000000" d="M236.5,-85.5C236.5,-85.5 280.5,-85.5 280.5,-85.5 286.5,-85.5 292.5,-91.5 292.5,-97.5 292.5,-97.5 292.5,-120.5 292.5,-120.5 292.5,-126.5 286.5,-132.5 280.5,-132.5 280.5,-132.5 236.5,-132.5 236.5,-132.5 230.5,-132.5 224.5,-126.5 224.5,-120.5 224.5,-120.5 224.5,-97.5 224.5,-97.5 224.5,-91.5 230.5,-85.5 236.5,-85.5"/>
<text text-anchor="middle" x="258.5" y="-117.3" font-family="Times,serif" font-size="14.00" fill="#000000">UserRole</text>
<polyline fill="none" stroke="#000000" points="224.5,-109.5 292.5,-109.5 "/>
</g>
<!-- User&#45;&gt;UserRole -->
<g id="edge14" class="edge">
<title>User&#45;&gt;UserRole</title>
<path fill="none" stroke="#2529a8" d="M897.8295,-397.482C689.1729,-376.411 330.0393,-334.4967 287.5,-292 248.4567,-252.9958 248.7203,-184.0788 253.1414,-142.8611"/>
<ellipse fill="none" stroke="#2529a8" cx="901.823" cy="-397.8838" rx="4" ry="4"/>
<polygon fill="#2529a8" stroke="#2529a8" points="253.1618,-142.692 258.8345,-133.3074 253.7646,-137.7285 254.3673,-132.7649 254.3673,-132.7649 254.3673,-132.7649 253.7646,-137.7285 249.9001,-132.2225 253.1618,-142.692 253.1618,-142.692"/>
</g>
<!-- AuthToken -->
<g id="node6" class="node">
<title>AuthToken</title>
<path fill="none" stroke="#000000" d="M309,-193C309,-193 560,-193 560,-193 566,-193 572,-199 572,-205 572,-205 572,-257 572,-257 572,-263 566,-269 560,-269 560,-269 309,-269 309,-269 303,-269 297,-263 297,-257 297,-257 297,-205 297,-205 297,-199 303,-193 309,-193"/>
<text text-anchor="middle" x="434.5" y="-253.8" font-family="Times,serif" font-size="14.00" fill="#000000">AuthToken</text>
<polyline fill="none" stroke="#000000" points="297,-246 572,-246 "/>
<text text-anchor="start" x="305" y="-230.8" font-family="Times,serif" font-size="14.00" fill="#000000">otp_code_expiry :timestamp without time zone</text>
<text text-anchor="start" x="305" y="-215.8" font-family="Times,serif" font-size="14.00" fill="#000000">otp_secret_key :character varying</text>
<text text-anchor="start" x="305" y="-200.8" font-family="Times,serif" font-size="14.00" fill="#000000">otp_auth_key :character varying(30)</text>
</g>
<!-- User&#45;&gt;AuthToken -->
<g id="edge3" class="edge">
<title>User&#45;&gt;AuthToken</title>
<path fill="none" stroke="#488c22" d="M897.8935,-378.9843C805.8291,-357.4467 685.6841,-326.8083 581.5,-292 564.5843,-286.3484 546.8535,-279.6688 529.794,-272.8389"/>
<ellipse fill="none" stroke="#488c22" cx="901.9752" cy="-379.9359" rx="4" ry="4"/>
<polygon fill="#488c22" stroke="#488c22" points="529.6646,-272.7866 522.0834,-264.8633 525.0298,-270.9106 520.3951,-269.0346 520.3951,-269.0346 520.3951,-269.0346 525.0298,-270.9106 518.7067,-273.2059 529.6646,-272.7866 529.6646,-272.7866"/>
</g>
<!-- Organisation -->
<g id="node7" class="node">
<title>Organisation</title>
<path fill="none" stroke="#000000" d="M602.5,-170.5C602.5,-170.5 766.5,-170.5 766.5,-170.5 772.5,-170.5 778.5,-176.5 778.5,-182.5 778.5,-182.5 778.5,-279.5 778.5,-279.5 778.5,-285.5 772.5,-291.5 766.5,-291.5 766.5,-291.5 602.5,-291.5 602.5,-291.5 596.5,-291.5 590.5,-285.5 590.5,-279.5 590.5,-279.5 590.5,-182.5 590.5,-182.5 590.5,-176.5 596.5,-170.5 602.5,-170.5"/>
<text text-anchor="middle" x="684.5" y="-276.3" font-family="Times,serif" font-size="14.00" fill="#000000">Organisation</text>
<polyline fill="none" stroke="#000000" points="590.5,-268.5 778.5,-268.5 "/>
<text text-anchor="start" x="598.5" y="-253.3" font-family="Times,serif" font-size="14.00" fill="#000000">name_en :character varying</text>
<text text-anchor="start" x="598.5" y="-238.3" font-family="Times,serif" font-size="14.00" fill="#000000">name_zh_tw :character varying</text>
<text text-anchor="start" x="598.5" y="-223.3" font-family="Times,serif" font-size="14.00" fill="#000000">description_en :text</text>
<text text-anchor="start" x="598.5" y="-208.3" font-family="Times,serif" font-size="14.00" fill="#000000">description_zh_tw :text</text>
<text text-anchor="start" x="598.5" y="-193.3" font-family="Times,serif" font-size="14.00" fill="#000000">registration :character varying</text>
<text text-anchor="start" x="598.5" y="-178.3" font-family="Times,serif" font-size="14.00" fill="#000000">website :character varying</text>
</g>
<!-- User&#45;&gt;Organisation -->
<g id="edge13" class="edge">
<title>User&#45;&gt;Organisation</title>
<path fill="none" stroke="#3b3c27" d="M895.9686,-370.9851C860.8564,-358.6469 824.4232,-343.3721 792.5,-325 779.2453,-317.3718 766.1237,-307.9809 753.8369,-298.1153"/>
<polygon fill="#3b3c27" stroke="#3b3c27" points="896.3787,-371.1265 904.3647,-378.6414 901.1054,-372.757 905.8321,-374.3874 905.8321,-374.3874 905.8321,-374.3874 901.1054,-372.757 907.2995,-370.1334 896.3787,-371.1265 896.3787,-371.1265"/>
<polygon fill="#3b3c27" stroke="#3b3c27" points="753.6126,-297.9308 748.7493,-288.1023 749.7514,-294.7541 745.8903,-291.5773 745.8903,-291.5773 745.8903,-291.5773 749.7514,-294.7541 743.0312,-295.0524 753.6126,-297.9308 753.6126,-297.9308"/>
</g>
<!-- OrganisationsUser -->
<g id="node8" class="node">
<title>OrganisationsUser</title>
<path fill="none" stroke="#000000" d="M753,-85.5C753,-85.5 846,-85.5 846,-85.5 852,-85.5 858,-91.5 858,-97.5 858,-97.5 858,-120.5 858,-120.5 858,-126.5 852,-132.5 846,-132.5 846,-132.5 753,-132.5 753,-132.5 747,-132.5 741,-126.5 741,-120.5 741,-120.5 741,-97.5 741,-97.5 741,-91.5 747,-85.5 753,-85.5"/>
<text text-anchor="middle" x="799.5" y="-117.3" font-family="Times,serif" font-size="14.00" fill="#000000">OrganisationsUser</text>
<polyline fill="none" stroke="#000000" points="741,-109.5 858,-109.5 "/>
</g>
<!-- User&#45;&gt;OrganisationsUser -->
<g id="edge12" class="edge">
<title>User&#45;&gt;OrganisationsUser</title>
<path fill="none" stroke="#5a5a1b" d="M898.6855,-356.6488C870.5,-339.9039 844.0508,-318.6488 825.5,-292 794.5991,-247.6098 793.1174,-182.346 795.7112,-142.9362"/>
<ellipse fill="none" stroke="#5a5a1b" cx="902.4217" cy="-358.8079" rx="4" ry="4"/>
<polygon fill="#5a5a1b" stroke="#5a5a1b" points="795.7254,-142.7538 800.994,-133.1365 796.1166,-137.7691 796.5078,-132.7844 796.5078,-132.7844 796.5078,-132.7844 796.1166,-137.7691 792.0216,-132.4323 795.7254,-142.7538 795.7254,-142.7538"/>
</g>
<!-- Address -->
<g id="node9" class="node">
<title>Address</title>
<path fill="none" stroke="#000000" d="M846.5,-170.5C846.5,-170.5 1062.5,-170.5 1062.5,-170.5 1068.5,-170.5 1074.5,-176.5 1074.5,-182.5 1074.5,-182.5 1074.5,-279.5 1074.5,-279.5 1074.5,-285.5 1068.5,-291.5 1062.5,-291.5 1062.5,-291.5 846.5,-291.5 846.5,-291.5 840.5,-291.5 834.5,-285.5 834.5,-279.5 834.5,-279.5 834.5,-182.5 834.5,-182.5 834.5,-176.5 840.5,-170.5 846.5,-170.5"/>
<text text-anchor="middle" x="954.5" y="-276.3" font-family="Times,serif" font-size="14.00" fill="#000000">Address</text>
<polyline fill="none" stroke="#000000" points="834.5,-268.5 1074.5,-268.5 "/>
<text text-anchor="start" x="842.5" y="-253.3" font-family="Times,serif" font-size="14.00" fill="#000000">flat :character varying</text>
<text text-anchor="start" x="842.5" y="-238.3" font-family="Times,serif" font-size="14.00" fill="#000000">building :character varying</text>
<text text-anchor="start" x="842.5" y="-223.3" font-family="Times,serif" font-size="14.00" fill="#000000">street :character varying</text>
<text text-anchor="start" x="842.5" y="-208.3" font-family="Times,serif" font-size="14.00" fill="#000000">addressable_type :character varying</text>
<text text-anchor="start" x="842.5" y="-193.3" font-family="Times,serif" font-size="14.00" fill="#000000">address_type :character varying</text>
<text text-anchor="start" x="842.5" y="-178.3" font-family="Times,serif" font-size="14.00" fill="#000000">deleted_at :timestamp without time zone</text>
</g>
<!-- User&#45;&gt;Address -->
<g id="edge2" class="edge">
<title>User&#45;&gt;Address</title>
<path fill="none" stroke="#a4aa1e" d="M980.7663,-336.5965C978.4989,-332.7738 976.3931,-328.9 974.5,-325 970.6117,-316.9897 967.4754,-308.234 964.9466,-299.392"/>
<ellipse fill="none" stroke="#a4aa1e" cx="982.8975" cy="-340.021" rx="4" ry="4"/>
<ellipse fill="#a4aa1e" stroke="#a4aa1e" cx="963.9058" cy="-295.4814" rx="4" ry="4"/>
</g>
<!-- Version -->
<g id="node10" class="node">
<title>Version</title>
<ellipse fill="none" stroke="#000000" cx="1059.5" cy="-109" rx="38.1938" ry="18"/>
<text text-anchor="middle" x="1059.5" y="-105.3" font-family="Times,serif" font-size="14.00" fill="#000000">Version</text>
</g>
<!-- User&#45;&gt;Version -->
<g id="edge1" class="edge">
<title>User&#45;&gt;Version</title>
<path fill="none" stroke="#29de71" d="M1008.6363,-335.415C1008.4538,-326.3416 1010.6626,-317.6126 1016.5,-310 1035.2623,-285.5318 1064.7377,-316.4682 1083.5,-292 1118.6407,-246.1724 1092.4075,-174.1707 1073.7992,-135.562"/>
<ellipse fill="none" stroke="#29de71" cx="1009.0122" cy="-339.4749" rx="4" ry="4"/>
<polygon fill="#29de71" stroke="#29de71" points="1073.7426,-135.4484 1073.3005,-124.4915 1071.5086,-130.9752 1069.2746,-126.502 1069.2746,-126.502 1069.2746,-126.502 1071.5086,-130.9752 1065.2487,-128.5126 1073.7426,-135.4484 1073.7426,-135.4484"/>
</g>
<!-- Offer -->
<g id="node11" class="node">
<title>Offer</title>
<ellipse fill="none" stroke="#000000" cx="1160.5" cy="-231" rx="29.795" ry="18"/>
<text text-anchor="middle" x="1160.5" y="-227.3" font-family="Times,serif" font-size="14.00" fill="#000000">Offer</text>
</g>
<!-- User&#45;&gt;Offer -->
<g id="edge4" class="edge">
<title>User&#45;&gt;Offer</title>
<path fill="none" stroke="#4cb0cf" d="M1018.247,-335.313C1018.736,-326.1343 1021.4423,-317.4055 1027.5,-310 1053.0518,-278.7631 1082.5835,-313.8704 1116.5,-292 1129.53,-283.5978 1139.9383,-269.8675 1147.3539,-257.559"/>
<ellipse fill="none" stroke="#4cb0cf" cx="1018.3043" cy="-339.4734" rx="4" ry="4"/>
<polygon fill="#4cb0cf" stroke="#4cb0cf" points="1147.5284,-257.249 1156.3562,-250.7435 1149.9818,-252.8922 1152.4352,-248.5355 1152.4352,-248.5355 1152.4352,-248.5355 1149.9818,-252.8922 1148.5141,-246.3275 1147.5284,-257.249 1147.5284,-257.249"/>
</g>
<!-- User&#45;&gt;Offer -->
<g id="edge5" class="edge">
<title>User&#45;&gt;Offer</title>
<path fill="none" stroke="#b452b2" d="M1036.5118,-335.3286C1038.2963,-326.1475 1041.7136,-317.4138 1047.5,-310 1066.9998,-285.016 1090.3524,-309.9095 1116.5,-292 1129.2055,-283.2975 1139.5428,-269.6669 1146.9973,-257.4958"/>
<ellipse fill="none" stroke="#b452b2" cx="1035.9113" cy="-339.5304" rx="4" ry="4"/>
<polygon fill="#b452b2" stroke="#b452b2" points="1147.1406,-257.2467 1156.028,-250.8228 1149.634,-252.9127 1152.1274,-248.5788 1152.1274,-248.5788 1152.1274,-248.5788 1149.634,-252.9127 1148.2269,-246.3347 1147.1406,-257.2467 1147.1406,-257.2467"/>
<text text-anchor="middle" x="1091.5" y="-313.8" font-family="Times,serif" font-size="14.00" fill="#000000">reviewed_offers</text>
</g>
<!-- User&#45;&gt;Offer -->
<g id="edge8" class="edge">
<title>User&#45;&gt;Offer</title>
<path fill="none" stroke="#b0d307" d="M1128.9361,-335.2222C1131.2753,-331.8684 1133.4754,-328.4571 1135.5,-325 1147.3806,-304.7133 1153.7329,-278.6915 1157.0561,-259.172"/>
<polygon fill="#b0d307" stroke="#b0d307" points="1128.8063,-335.3975 1119.2387,-340.7559 1125.8307,-339.4157 1122.8551,-343.434 1122.8551,-343.434 1122.8551,-343.434 1125.8307,-339.4157 1126.4715,-346.112 1128.8063,-335.3975 1128.8063,-335.3975"/>
<polygon fill="#b0d307" stroke="#b0d307" points="1157.0888,-258.9586 1163.0545,-249.7575 1157.8477,-254.0165 1158.6066,-249.0744 1158.6066,-249.0744 1158.6066,-249.0744 1157.8477,-254.0165 1154.1587,-248.3914 1157.0888,-258.9586 1157.0888,-258.9586"/>
<text text-anchor="middle" x="1196" y="-313.8" font-family="Times,serif" font-size="14.00" fill="#000000">offers_subscription</text>
</g>
<!-- User&#45;&gt;Offer -->
<g id="edge10" class="edge">
<title>User&#45;&gt;Offer</title>
<path fill="none" stroke="#0544aa" d="M1196.212,-373.8999C1218.4638,-361.8533 1238.5677,-345.9609 1252.5,-325 1273.4707,-293.4499 1228.6232,-263.3145 1194.458,-246.0104"/>
<polygon fill="#0544aa" stroke="#0544aa" points="1196.145,-373.9342 1185.1933,-374.4924 1191.6958,-376.2154 1187.2465,-378.4967 1187.2465,-378.4967 1187.2465,-378.4967 1191.6958,-376.2154 1189.2997,-382.5011 1196.145,-373.9342 1196.145,-373.9342"/>
<polygon fill="#0544aa" stroke="#0544aa" points="1194.1564,-245.8634 1187.1413,-237.435 1189.6625,-243.6715 1185.1685,-241.4796 1185.1685,-241.4796 1185.1685,-241.4796 1189.6625,-243.6715 1183.1958,-245.5241 1194.1564,-245.8634 1194.1564,-245.8634"/>
<text text-anchor="middle" x="1341" y="-313.8" font-family="Times,serif" font-size="14.00" fill="#000000">offers_with_unread_messages</text>
</g>
<!-- Message -->
<g id="node12" class="node">
<title>Message</title>
<ellipse fill="none" stroke="#000000" cx="1380.5" cy="-231" rx="42.4939" ry="18"/>
<text text-anchor="middle" x="1380.5" y="-227.3" font-family="Times,serif" font-size="14.00" fill="#000000">Message</text>
</g>
<!-- User&#45;&gt;Message -->
<g id="edge6" class="edge">
<title>User&#45;&gt;Message</title>
<path fill="none" stroke="#f9c156" d="M1195.4097,-396.7153C1289.3262,-383.9637 1398.2258,-361.6655 1427.5,-325 1436.5238,-313.6979 1416.3475,-280.346 1399.6757,-256.5878"/>
<ellipse fill="none" stroke="#f9c156" cx="1191.2033" cy="-397.2768" rx="4" ry="4"/>
<polygon fill="#f9c156" stroke="#f9c156" points="1399.5799,-256.4541 1397.4096,-245.7051 1396.6663,-252.3908 1393.7526,-248.3274 1393.7526,-248.3274 1393.7526,-248.3274 1396.6663,-252.3908 1390.0956,-250.9497 1399.5799,-256.4541 1399.5799,-256.4541"/>
</g>
<!-- Subscription -->
<g id="node13" class="node">
<title>Subscription</title>
<ellipse fill="none" stroke="#000000" cx="1495.5" cy="-231" rx="55.4913" ry="18"/>
<text text-anchor="middle" x="1495.5" y="-227.3" font-family="Times,serif" font-size="14.00" fill="#000000">Subscription</text>
</g>
<!-- User&#45;&gt;Subscription -->
<g id="edge7" class="edge">
<title>User&#45;&gt;Subscription</title>
<path fill="none" stroke="#baa19f" d="M1195.1508,-392.1091C1290.7656,-377.2133 1404.2206,-354.2464 1443.5,-325 1465.4534,-308.6541 1479.3256,-280.1572 1487.1673,-258.8129"/>
<ellipse fill="none" stroke="#baa19f" cx="1191.0845" cy="-392.7364" rx="4" ry="4"/>
<polygon fill="#baa19f" stroke="#baa19f" points="1487.1916,-258.7421 1494.7021,-250.7519 1488.8194,-254.0144 1490.4473,-249.2868 1490.4473,-249.2868 1490.4473,-249.2868 1488.8194,-254.0144 1486.1925,-247.8218 1487.1916,-258.7421 1487.1916,-258.7421"/>
</g>
<!-- User&#45;&gt;Subscription -->
<g id="edge9" class="edge">
<title>User&#45;&gt;Subscription</title>
<path fill="none" stroke="#47fa13" d="M1195.156,-396.7236C1299.0061,-383.5143 1425.8807,-360.6508 1465.5,-325 1484.019,-308.336 1491.1789,-280.2694 1493.9091,-259.1333"/>
<ellipse fill="none" stroke="#47fa13" cx="1191.0571" cy="-397.2381" rx="4" ry="4"/>
<polygon fill="#47fa13" stroke="#47fa13" points="1493.9177,-259.0493 1499.4231,-249.5656 1494.4323,-254.0758 1494.947,-249.1024 1494.947,-249.1024 1494.947,-249.1024 1494.4323,-254.0758 1490.4709,-248.6392 1493.9177,-259.0493 1493.9177,-259.0493"/>
<text text-anchor="middle" x="1535" y="-313.8" font-family="Times,serif" font-size="14.00" fill="#000000">unread_subscriptions</text>
</g>
<!-- BraintreeTransaction -->
<g id="node14" class="node">
<title>BraintreeTransaction</title>
<ellipse fill="none" stroke="#000000" cx="1653.5" cy="-231" rx="85.2851" ry="18"/>
<text text-anchor="middle" x="1653.5" y="-227.3" font-family="Times,serif" font-size="14.00" fill="#000000">BraintreeTransaction</text>
</g>
<!-- User&#45;&gt;BraintreeTransaction -->
<g id="edge11" class="edge">
<title>User&#45;&gt;BraintreeTransaction</title>
<path fill="none" stroke="#261687" d="M1195.5271,-402.1355C1335.468,-390.8668 1532.6012,-367.8621 1596.5,-325 1620.0036,-309.2342 1635.4036,-280.1929 1644.2018,-258.5459"/>
<ellipse fill="none" stroke="#261687" cx="1191.221" cy="-402.4779" rx="4" ry="4"/>
<polygon fill="#261687" stroke="#261687" points="1644.2069,-258.5324 1651.9871,-250.8047 1645.996,-253.8635 1647.785,-249.1945 1647.785,-249.1945 1647.785,-249.1945 1645.996,-253.8635 1643.583,-247.5843 1644.2069,-258.5324 1644.2069,-258.5324"/>
</g>
<!-- Package -->
<g id="node15" class="node">
<title>Package</title>
<ellipse fill="none" stroke="#000000" cx="1796.5" cy="-231" rx="40.0939" ry="18"/>
<text text-anchor="middle" x="1796.5" y="-227.3" font-family="Times,serif" font-size="14.00" fill="#000000">Package</text>
</g>
<!-- User&#45;&gt;Package -->
<g id="edge16" class="edge">
<title>User&#45;&gt;Package</title>
<path fill="none" stroke="#2e7170" d="M1195.3162,-393.1611C1311.1842,-377.8795 1475.7611,-353.974 1618.5,-325 1676.4968,-313.2275 1697.7487,-324.0473 1747.5,-292 1761.1002,-283.2394 1772.6511,-269.4282 1781.1161,-257.1616"/>
<ellipse fill="none" stroke="#2e7170" cx="1191.0248" cy="-393.7252" rx="4" ry="4"/>
<polygon fill="#2e7170" stroke="#2e7170" points="1781.2447,-256.9649 1790.4853,-251.0606 1783.9822,-252.7809 1786.7196,-248.5968 1786.7196,-248.5968 1786.7196,-248.5968 1783.9822,-252.7809 1782.954,-246.1331 1781.2447,-256.9649 1781.2447,-256.9649"/>
<text text-anchor="middle" x="1758.5" y="-313.8" font-family="Times,serif" font-size="14.00" fill="#000000">moved_packages</text>
</g>
<!-- Location -->
<g id="node16" class="node">
<title>Location</title>
<ellipse fill="none" stroke="#000000" cx="1905.5" cy="-231" rx="42.4939" ry="18"/>
<text text-anchor="middle" x="1905.5" y="-227.3" font-family="Times,serif" font-size="14.00" fill="#000000">Location</text>
</g>
<!-- User&#45;&gt;Location -->
<g id="edge17" class="edge">
<title>User&#45;&gt;Location</title>
<path fill="none" stroke="#af4ea3" d="M1197.4658,-405.4217C1388.0211,-395.8594 1703.7204,-373.1824 1809.5,-325 1842.2518,-310.0816 1870.3959,-279.0013 1887.5897,-256.6593"/>
<polygon fill="#af4ea3" stroke="#af4ea3" points="1197.3471,-405.4275 1187.1366,-401.428 1192.3532,-405.675 1187.3593,-405.9225 1187.3593,-405.9225 1187.3593,-405.9225 1192.3532,-405.675 1187.5821,-410.4169 1197.3471,-405.4275 1197.3471,-405.4275"/>
<polygon fill="#af4ea3" stroke="#af4ea3" points="1887.6439,-256.5867 1897.2347,-251.27 1890.6369,-252.5815 1893.63,-248.5763 1893.63,-248.5763 1893.63,-248.5763 1890.6369,-252.5815 1890.0253,-245.8825 1887.6439,-256.5867 1887.6439,-256.5867"/>
<text text-anchor="middle" x="1874" y="-313.8" font-family="Times,serif" font-size="14.00" fill="#000000">used_locations</text>
</g>
<!-- Permission -->
<g id="node3" class="node">
<title>Permission</title>
<path fill="none" stroke="#000000" d="M12,-86C12,-86 137,-86 137,-86 143,-86 149,-92 149,-98 149,-98 149,-120 149,-120 149,-126 143,-132 137,-132 137,-132 12,-132 12,-132 6,-132 0,-126 0,-120 0,-120 0,-98 0,-98 0,-92 6,-86 12,-86"/>
<text text-anchor="middle" x="74.5" y="-116.8" font-family="Times,serif" font-size="14.00" fill="#000000">Permission</text>
<polyline fill="none" stroke="#000000" points="0,-109 149,-109 "/>
<text text-anchor="start" x="8" y="-93.8" font-family="Times,serif" font-size="14.00" fill="#000000">name :character varying</text>
</g>
<!-- Role&#45;&gt;Permission -->
<g id="edge20" class="edge">
<title>Role&#45;&gt;Permission</title>
<path fill="none" stroke="#a7d491" d="M142.9225,-199.7342C129.1335,-181.4488 111.7862,-158.4447 98.009,-140.175"/>
<polygon fill="#a7d491" stroke="#a7d491" points="142.958,-199.7813 145.386,-210.475 145.9685,-203.7734 148.979,-207.7656 148.979,-207.7656 148.979,-207.7656 145.9685,-203.7734 152.5719,-205.0561 142.958,-199.7813 142.958,-199.7813"/>
<polygon fill="#a7d491" stroke="#a7d491" points="97.9768,-140.1322 95.5487,-129.4385 94.9663,-136.1401 91.9558,-132.1479 91.9558,-132.1479 91.9558,-132.1479 94.9663,-136.1401 88.3629,-134.8574 97.9768,-140.1322 97.9768,-140.1322"/>
</g>
<!-- RolePermission -->
<g id="node4" class="node">
<title>RolePermission</title>
<path fill="none" stroke="#000000" d="M111,-.5C111,-.5 190,-.5 190,-.5 196,-.5 202,-6.5 202,-12.5 202,-12.5 202,-35.5 202,-35.5 202,-41.5 196,-47.5 190,-47.5 190,-47.5 111,-47.5 111,-47.5 105,-47.5 99,-41.5 99,-35.5 99,-35.5 99,-12.5 99,-12.5 99,-6.5 105,-.5 111,-.5"/>
<text text-anchor="middle" x="150.5" y="-32.3" font-family="Times,serif" font-size="14.00" fill="#000000">RolePermission</text>
<polyline fill="none" stroke="#000000" points="99,-24.5 202,-24.5 "/>
</g>
<!-- Role&#45;&gt;RolePermission -->
<g id="edge19" class="edge">
<title>Role&#45;&gt;RolePermission</title>
<path fill="none" stroke="#4651b5" d="M165.0478,-199.6883C163.5624,-170.1 160.9803,-124.487 157.5,-85 156.7197,-76.1467 155.7052,-66.5899 154.6917,-57.7269"/>
<ellipse fill="none" stroke="#4651b5" cx="165.2586" cy="-203.9657" rx="4" ry="4"/>
<polygon fill="#4651b5" stroke="#4651b5" points="154.6836,-57.6566 157.986,-47.1998 154.1001,-52.6908 153.5167,-47.7249 153.5167,-47.7249 153.5167,-47.7249 154.1001,-52.6908 149.0474,-48.25 154.6836,-57.6566 154.6836,-57.6566"/>
</g>
<!-- Role&#45;&gt;UserRole -->
<g id="edge18" class="edge">
<title>Role&#45;&gt;UserRole</title>
<path fill="none" stroke="#cc36f8" d="M188.9961,-201.1683C202.805,-182.8564 220.478,-159.4205 234.5471,-140.7637"/>
<ellipse fill="none" stroke="#cc36f8" cx="186.4294" cy="-204.5719" rx="4" ry="4"/>
<polygon fill="#cc36f8" stroke="#cc36f8" points="234.7099,-140.5478 244.3237,-135.2729 237.7203,-136.5556 240.7308,-132.5635 240.7308,-132.5635 240.7308,-132.5635 237.7203,-136.5556 237.1379,-129.854 234.7099,-140.5478 234.7099,-140.5478"/>
</g>
<!-- Permission&#45;&gt;RolePermission -->
<g id="edge21" class="edge">
<title>Permission&#45;&gt;RolePermission</title>
<path fill="none" stroke="#1baccd" d="M100.6208,-79.7859C107.6215,-71.9562 115.2203,-63.4576 122.3268,-55.5096"/>
<ellipse fill="none" stroke="#1baccd" cx="97.9335" cy="-82.7915" rx="4" ry="4"/>
<polygon fill="#1baccd" stroke="#1baccd" points="122.5633,-55.245 132.5833,-50.7897 125.896,-51.5176 129.2287,-47.7903 129.2287,-47.7903 129.2287,-47.7903 125.896,-51.5176 125.8741,-44.7908 122.5633,-55.245 122.5633,-55.245"/>
</g>
<!-- Organisation&#45;&gt;OrganisationsUser -->
<g id="edge22" class="edge">
<title>Organisation&#45;&gt;OrganisationsUser</title>
<path fill="none" stroke="#fccb5a" d="M747.2795,-164.3991C755.1465,-156.0532 762.8806,-147.8484 769.886,-140.4166"/>
<ellipse fill="none" stroke="#fccb5a" cx="744.4068" cy="-167.4467" rx="4" ry="4"/>
<polygon fill="#fccb5a" stroke="#fccb5a" points="770.3142,-139.9624 780.448,-135.7723 773.7438,-136.324 777.1734,-132.6856 777.1734,-132.6856 777.1734,-132.6856 773.7438,-136.324 773.8989,-129.5989 770.3142,-139.9624 770.3142,-139.9624"/>
</g>
<!-- Order -->
<g id="node17" class="node">
<title>Order</title>
<ellipse fill="none" stroke="#000000" cx="684.5" cy="-109" rx="31.3957" ry="18"/>
<text text-anchor="middle" x="684.5" y="-105.3" font-family="Times,serif" font-size="14.00" fill="#000000">Order</text>
</g>
<!-- Organisation&#45;&gt;Order -->
<g id="edge23" class="edge">
<title>Organisation&#45;&gt;Order</title>
<path fill="none" stroke="#e834e3" d="M684.5,-162.2355C684.5,-153.4133 684.5,-144.8113 684.5,-137.1839"/>
<ellipse fill="none" stroke="#e834e3" cx="684.5" cy="-166.3574" rx="4" ry="4"/>
<polygon fill="#e834e3" stroke="#e834e3" points="684.5001,-137.1288 689,-127.1287 684.5,-132.1288 684.5,-127.1288 684.5,-127.1288 684.5,-127.1288 684.5,-132.1288 680,-127.1288 684.5001,-137.1288 684.5001,-137.1288"/>
</g>
<!-- Address&#45;&gt;Version -->
<g id="edge24" class="edge">
<title>Address&#45;&gt;Version</title>
<path fill="none" stroke="#781bb3" d="M1011.9743,-164.2204C1021.3842,-153.2869 1030.579,-142.6034 1038.335,-133.5917"/>
<ellipse fill="none" stroke="#781bb3" cx="1009.3017" cy="-167.3257" rx="4" ry="4"/>
<polygon fill="#781bb3" stroke="#781bb3" points="1038.4949,-133.4059 1048.4289,-128.762 1041.7565,-129.6162 1045.0182,-125.8265 1045.0182,-125.8265 1045.0182,-125.8265 1041.7565,-129.6162 1041.6074,-122.891 1038.4949,-133.4059 1038.4949,-133.4059"/>
</g>
</g>
</svg>
