<?xml version="1.0" encoding="UTF-8" standalone="no"?>
<!DOCTYPE svg PUBLIC "-//W3C//DTD SVG 1.1//EN"
 "http://www.w3.org/Graphics/SVG/1.1/DTD/svg11.dtd">
<!-- Generated by graphviz version 2.40.1 (20161225.0304)
 -->
<!-- Title: models_diagram Pages: 1 -->
<svg width="2274pt" height="1211pt"
 viewBox="0.00 0.00 2273.69 1211.00" xmlns="http://www.w3.org/2000/svg" xmlns:xlink="http://www.w3.org/1999/xlink">
<g id="graph0" class="graph" transform="scale(1 1) rotate(0) translate(4 1207)">
<title>models_diagram</title>
<polygon fill="transparent" stroke="transparent" points="-4,4 -4,-1207 2269.6943,-1207 2269.6943,4 -4,4"/>
<!-- Package -->
<g id="node1" class="node">
<title>Package</title>
<path fill="none" stroke="#000000" d="M101.1943,-73.5C101.1943,-73.5 324.1943,-73.5 324.1943,-73.5 330.1943,-73.5 336.1943,-79.5 336.1943,-85.5 336.1943,-85.5 336.1943,-377.5 336.1943,-377.5 336.1943,-383.5 330.1943,-389.5 324.1943,-389.5 324.1943,-389.5 101.1943,-389.5 101.1943,-389.5 95.1943,-389.5 89.1943,-383.5 89.1943,-377.5 89.1943,-377.5 89.1943,-85.5 89.1943,-85.5 89.1943,-79.5 95.1943,-73.5 101.1943,-73.5"/>
<text text-anchor="middle" x="212.6943" y="-374.3" font-family="Times,serif" font-size="14.00" fill="#000000">Package</text>
<polyline fill="none" stroke="#000000" points="89.1943,-366.5 336.1943,-366.5 "/>
<text text-anchor="start" x="97.1943" y="-351.3" font-family="Times,serif" font-size="14.00" fill="#000000">quantity :integer</text>
<text text-anchor="start" x="97.1943" y="-336.3" font-family="Times,serif" font-size="14.00" fill="#000000">length :integer</text>
<text text-anchor="start" x="97.1943" y="-321.3" font-family="Times,serif" font-size="14.00" fill="#000000">width :integer</text>
<text text-anchor="start" x="97.1943" y="-306.3" font-family="Times,serif" font-size="14.00" fill="#000000">height :integer</text>
<text text-anchor="start" x="97.1943" y="-291.3" font-family="Times,serif" font-size="14.00" fill="#000000">notes :text</text>
<text text-anchor="start" x="97.1943" y="-276.3" font-family="Times,serif" font-size="14.00" fill="#000000">state :character varying</text>
<text text-anchor="start" x="97.1943" y="-261.3" font-family="Times,serif" font-size="14.00" fill="#000000">received_at :timestamp without time zone</text>
<text text-anchor="start" x="97.1943" y="-246.3" font-family="Times,serif" font-size="14.00" fill="#000000">rejected_at :timestamp without time zone</text>
<text text-anchor="start" x="97.1943" y="-231.3" font-family="Times,serif" font-size="14.00" fill="#000000">deleted_at :timestamp without time zone</text>
<text text-anchor="start" x="97.1943" y="-216.3" font-family="Times,serif" font-size="14.00" fill="#000000">inventory_number :character varying</text>
<text text-anchor="start" x="97.1943" y="-201.3" font-family="Times,serif" font-size="14.00" fill="#000000">designation_name :character varying</text>
<text text-anchor="start" x="97.1943" y="-186.3" font-family="Times,serif" font-size="14.00" fill="#000000">grade :character varying</text>
<text text-anchor="start" x="97.1943" y="-171.3" font-family="Times,serif" font-size="14.00" fill="#000000">stockit_sent_on :date</text>
<text text-anchor="start" x="97.1943" y="-156.3" font-family="Times,serif" font-size="14.00" fill="#000000">stockit_designated_on :date</text>
<text text-anchor="start" x="97.1943" y="-141.3" font-family="Times,serif" font-size="14.00" fill="#000000">stockit_moved_on :date</text>
<text text-anchor="start" x="97.1943" y="-126.3" font-family="Times,serif" font-size="14.00" fill="#000000">saleable :boolean</text>
<text text-anchor="start" x="97.1943" y="-111.3" font-family="Times,serif" font-size="14.00" fill="#000000">case_number :character varying</text>
<text text-anchor="start" x="97.1943" y="-96.3" font-family="Times,serif" font-size="14.00" fill="#000000">allow_web_publish :boolean</text>
<text text-anchor="start" x="97.1943" y="-81.3" font-family="Times,serif" font-size="14.00" fill="#000000">received_quantity :integer</text>
</g>
<!-- Version -->
<g id="node10" class="node">
<title>Version</title>
<ellipse fill="none" stroke="#000000" cx="1724.6943" cy="-18" rx="38.1938" ry="18"/>
<text text-anchor="middle" x="1724.6943" y="-14.3" font-family="Times,serif" font-size="14.00" fill="#000000">Version</text>
</g>
<!-- Package&#45;&gt;Version -->
<g id="edge1" class="edge">
<title>Package&#45;&gt;Version</title>
<path fill="none" stroke="#0f69f8" d="M343.1642,-94.9277C356.1233,-86.3414 369.6908,-78.8257 383.6943,-73 444.4437,-47.7274 1442.2007,-24.2297 1675.9663,-19.0539"/>
<ellipse fill="none" stroke="#0f69f8" cx="339.7482" cy="-97.2579" rx="4" ry="4"/>
<polygon fill="#0f69f8" stroke="#0f69f8" points="1676.1996,-19.0489 1686.2964,-23.3272 1681.1984,-18.9386 1686.1972,-18.8283 1686.1972,-18.8283 1686.1972,-18.8283 1681.1984,-18.9386 1686.0979,-14.3294 1676.1996,-19.0489 1676.1996,-19.0489"/>
</g>
<!-- Location -->
<g id="node11" class="node">
<title>Location</title>
<ellipse fill="none" stroke="#000000" cx="498.6943" cy="-18" rx="42.4939" ry="18"/>
<text text-anchor="middle" x="498.6943" y="-14.3" font-family="Times,serif" font-size="14.00" fill="#000000">Location</text>
</g>
<!-- Package&#45;&gt;Location -->
<g id="edge2" class="edge">
<title>Package&#45;&gt;Location</title>
<path fill="none" stroke="#3e5c64" d="M344.5212,-102.306C357.3636,-91.8892 370.5239,-81.9485 383.6943,-73 406.7594,-57.3287 434.9784,-43.7602 457.6904,-34.0208"/>
<polygon fill="#3e5c64" stroke="#3e5c64" points="344.2911,-102.4953 333.7097,-105.3738 340.43,-105.672 336.5688,-108.8488 336.5688,-108.8488 336.5688,-108.8488 340.43,-105.672 339.4279,-112.3238 344.2911,-102.4953 344.2911,-102.4953"/>
<polygon fill="#3e5c64" stroke="#3e5c64" points="457.8364,-33.9595 468.7989,-34.2351 462.4462,-32.0229 467.0559,-30.0863 467.0559,-30.0863 467.0559,-30.0863 462.4462,-32.0229 465.3129,-25.9375 457.8364,-33.9595 457.8364,-33.9595"/>
</g>
<!-- PackagesLocation -->
<g id="node12" class="node">
<title>PackagesLocation</title>
<ellipse fill="none" stroke="#000000" cx="219.6943" cy="-18" rx="74.9875" ry="18"/>
<text text-anchor="middle" x="219.6943" y="-14.3" font-family="Times,serif" font-size="14.00" fill="#000000">PackagesLocation</text>
</g>
<!-- Package&#45;&gt;PackagesLocation -->
<g id="edge3" class="edge">
<title>Package&#45;&gt;PackagesLocation</title>
<path fill="none" stroke="#a062c3" d="M218.1449,-65.2577C218.3701,-58.3887 218.5795,-52.0024 218.7669,-46.2864"/>
<ellipse fill="none" stroke="#a062c3" cx="218.0137" cy="-69.2614" rx="4" ry="4"/>
<polygon fill="#a062c3" stroke="#a062c3" points="218.7708,-46.1644 223.5962,-36.3173 218.9347,-41.1671 219.0986,-36.1698 219.0986,-36.1698 219.0986,-36.1698 218.9347,-41.1671 214.601,-36.0223 218.7708,-46.1644 218.7708,-46.1644"/>
</g>
<!-- Image -->
<g id="node13" class="node">
<title>Image</title>
<ellipse fill="none" stroke="#000000" cx="358.6943" cy="-18" rx="33.2948" ry="18"/>
<text text-anchor="middle" x="358.6943" y="-14.3" font-family="Times,serif" font-size="14.00" fill="#000000">Image</text>
</g>
<!-- Package&#45;&gt;Image -->
<g id="edge4" class="edge">
<title>Package&#45;&gt;Image</title>
<path fill="none" stroke="#a095fa" d="M325.6362,-66.3419C331.3676,-57.9606 336.6245,-50.2734 341.179,-43.6132"/>
<ellipse fill="none" stroke="#a095fa" cx="323.1638" cy="-69.9574" rx="4" ry="4"/>
<polygon fill="#a095fa" stroke="#a095fa" points="341.288,-43.4537 350.6474,-37.7394 344.1104,-39.3265 346.9328,-35.1992 346.9328,-35.1992 346.9328,-35.1992 344.1104,-39.3265 343.2183,-32.6591 341.288,-43.4537 341.288,-43.4537"/>
</g>
<!-- OrdersPackage -->
<g id="node14" class="node">
<title>OrdersPackage</title>
<ellipse fill="none" stroke="#000000" cx="63.6943" cy="-18" rx="63.8893" ry="18"/>
<text text-anchor="middle" x="63.6943" y="-14.3" font-family="Times,serif" font-size="14.00" fill="#000000">OrdersPackage</text>
</g>
<!-- Package&#45;&gt;OrdersPackage -->
<g id="edge5" class="edge">
<title>Package&#45;&gt;OrdersPackage</title>
<path fill="none" stroke="#3286cf" d="M97.5093,-66.453C91.7518,-58.2031 86.4618,-50.6232 81.8607,-44.0304"/>
<ellipse fill="none" stroke="#3286cf" cx="99.9701" cy="-69.979" rx="4" ry="4"/>
<polygon fill="#3286cf" stroke="#3286cf" points="81.7573,-43.8821 79.7245,-33.1063 78.8958,-39.7819 76.0343,-35.6817 76.0343,-35.6817 76.0343,-35.6817 78.8958,-39.7819 72.3441,-38.2571 81.7573,-43.8821 81.7573,-43.8821"/>
</g>
<!-- Item -->
<g id="node2" class="node">
<title>Item</title>
<path fill="none" stroke="#000000" d="M374.6943,-1096.5C374.6943,-1096.5 590.6943,-1096.5 590.6943,-1096.5 596.6943,-1096.5 602.6943,-1102.5 602.6943,-1108.5 602.6943,-1108.5 602.6943,-1190.5 602.6943,-1190.5 602.6943,-1196.5 596.6943,-1202.5 590.6943,-1202.5 590.6943,-1202.5 374.6943,-1202.5 374.6943,-1202.5 368.6943,-1202.5 362.6943,-1196.5 362.6943,-1190.5 362.6943,-1190.5 362.6943,-1108.5 362.6943,-1108.5 362.6943,-1102.5 368.6943,-1096.5 374.6943,-1096.5"/>
<text text-anchor="middle" x="482.6943" y="-1187.3" font-family="Times,serif" font-size="14.00" fill="#000000">Item</text>
<polyline fill="none" stroke="#000000" points="362.6943,-1179.5 602.6943,-1179.5 "/>
<text text-anchor="start" x="370.6943" y="-1164.3" font-family="Times,serif" font-size="14.00" fill="#000000">donor_description :text</text>
<text text-anchor="start" x="370.6943" y="-1149.3" font-family="Times,serif" font-size="14.00" fill="#000000">state :character varying</text>
<text text-anchor="start" x="370.6943" y="-1134.3" font-family="Times,serif" font-size="14.00" fill="#000000">reject_reason :character varying</text>
<text text-anchor="start" x="370.6943" y="-1119.3" font-family="Times,serif" font-size="14.00" fill="#000000">deleted_at :timestamp without time zone</text>
<text text-anchor="start" x="370.6943" y="-1104.3" font-family="Times,serif" font-size="14.00" fill="#000000">rejection_comments :text</text>
</g>
<!-- Item&#45;&gt;Package -->
<g id="edge9" class="edge">
<title>Item&#45;&gt;Package</title>
<path fill="none" stroke="#03680c" d="M363.9425,-1091.2208C342.4478,-1072.5362 326.6943,-1049.09 326.6943,-1020.5 326.6943,-1020.5 326.6943,-1020.5 326.6943,-509.5 326.6943,-472.389 317.8903,-434.4347 305.1754,-398.9719"/>
<ellipse fill="none" stroke="#03680c" cx="367.0693" cy="-1093.8123" rx="4" ry="4"/>
<polygon fill="#03680c" stroke="#03680c" points="305.1504,-398.9042 305.8963,-387.9637 303.4135,-394.2156 301.6766,-389.5269 301.6766,-389.5269 301.6766,-389.5269 303.4135,-394.2156 297.4568,-391.0902 305.1504,-398.9042 305.1504,-398.9042"/>
</g>
<!-- Item&#45;&gt;Package -->
<g id="edge10" class="edge">
<title>Item&#45;&gt;Package</title>
<path fill="none" stroke="#886e05" d="M354.5816,-1117.3643C275.7465,-1093.7074 189.6943,-1059.0545 189.6943,-1020.5 189.6943,-1020.5 189.6943,-1020.5 189.6943,-509.5 189.6943,-473.9758 191.5827,-435.9848 194.2773,-399.8573"/>
<ellipse fill="none" stroke="#886e05" cx="358.8395" cy="-1118.626" rx="4" ry="4"/>
<polygon fill="#886e05" stroke="#886e05" points="194.29,-399.6911 199.5445,-390.0661 194.6739,-394.7058 195.0578,-389.7206 195.0578,-389.7206 195.0578,-389.7206 194.6739,-394.7058 190.5711,-389.3751 194.29,-399.6911 194.29,-399.6911"/>
<text text-anchor="middle" x="244.1943" y="-776.3" font-family="Times,serif" font-size="14.00" fill="#000000">inventory_packages</text>
</g>
<!-- Message -->
<g id="node4" class="node">
<title>Message</title>
<path fill="none" stroke="#000000" d="M471.6943,-982.5C471.6943,-982.5 687.6943,-982.5 687.6943,-982.5 693.6943,-982.5 699.6943,-988.5 699.6943,-994.5 699.6943,-994.5 699.6943,-1046.5 699.6943,-1046.5 699.6943,-1052.5 693.6943,-1058.5 687.6943,-1058.5 687.6943,-1058.5 471.6943,-1058.5 471.6943,-1058.5 465.6943,-1058.5 459.6943,-1052.5 459.6943,-1046.5 459.6943,-1046.5 459.6943,-994.5 459.6943,-994.5 459.6943,-988.5 465.6943,-982.5 471.6943,-982.5"/>
<text text-anchor="middle" x="579.6943" y="-1043.3" font-family="Times,serif" font-size="14.00" fill="#000000">Message</text>
<polyline fill="none" stroke="#000000" points="459.6943,-1035.5 699.6943,-1035.5 "/>
<text text-anchor="start" x="467.6943" y="-1020.3" font-family="Times,serif" font-size="14.00" fill="#000000">body :text</text>
<text text-anchor="start" x="467.6943" y="-1005.3" font-family="Times,serif" font-size="14.00" fill="#000000">is_private :boolean</text>
<text text-anchor="start" x="467.6943" y="-990.3" font-family="Times,serif" font-size="14.00" fill="#000000">deleted_at :timestamp without time zone</text>
</g>
<!-- Item&#45;&gt;Message -->
<g id="edge7" class="edge">
<title>Item&#45;&gt;Message</title>
<path fill="none" stroke="#accece" d="M527.6374,-1089.7304C533.3558,-1082.1255 539.1404,-1074.4325 544.6711,-1067.0773"/>
<ellipse fill="none" stroke="#accece" cx="525.112" cy="-1093.089" rx="4" ry="4"/>
<polygon fill="#accece" stroke="#accece" points="545.0179,-1066.6161 554.6245,-1061.328 548.0229,-1062.6198 551.0278,-1058.6235 551.0278,-1058.6235 551.0278,-1058.6235 548.0229,-1062.6198 547.4312,-1055.919 545.0179,-1066.6161 545.0179,-1066.6161"/>
</g>
<!-- Item&#45;&gt;Version -->
<g id="edge6" class="edge">
<title>Item&#45;&gt;Version</title>
<path fill="none" stroke="#634ffa" d="M610.8237,-1146.9287C1019.5467,-1137.8908 2265.6943,-1103.5274 2265.6943,-1020.5 2265.6943,-1020.5 2265.6943,-1020.5 2265.6943,-231.5 2265.6943,-123.9011 2180.3582,-118.1587 2082.6943,-73 2028.3832,-47.8871 1856.9724,-29.7164 1772.5827,-22.0449"/>
<ellipse fill="none" stroke="#634ffa" cx="606.7977" cy="-1147.0173" rx="4" ry="4"/>
<polygon fill="#634ffa" stroke="#634ffa" points="1772.4523,-22.0333 1762.8942,-16.6581 1767.4722,-21.5867 1762.4922,-21.1401 1762.4922,-21.1401 1762.4922,-21.1401 1767.4722,-21.5867 1762.0903,-25.6221 1772.4523,-22.0333 1772.4523,-22.0333"/>
</g>
<!-- Item&#45;&gt;Image -->
<g id="edge8" class="edge">
<title>Item&#45;&gt;Image</title>
<path fill="none" stroke="#eb781e" d="M397.1628,-1090.497C378.7518,-1070.9925 364.6943,-1047.319 364.6943,-1020.5 364.6943,-1020.5 364.6943,-1020.5 364.6943,-231.5 364.6943,-165.1243 361.7608,-87.1867 359.9961,-46.3091"/>
<ellipse fill="none" stroke="#eb781e" cx="400.1953" cy="-1093.5686" rx="4" ry="4"/>
<polygon fill="#eb781e" stroke="#eb781e" points="359.9942,-46.2633 364.0496,-36.0749 359.7741,-41.2681 359.554,-36.273 359.554,-36.273 359.554,-36.273 359.7741,-41.2681 355.0584,-36.4711 359.9942,-46.2633 359.9942,-46.2633"/>
</g>
<!-- Offer -->
<g id="node3" class="node">
<title>Offer</title>
<path fill="none" stroke="#000000" d="M603.6943,-629.5C603.6943,-629.5 881.6943,-629.5 881.6943,-629.5 887.6943,-629.5 893.6943,-635.5 893.6943,-641.5 893.6943,-641.5 893.6943,-918.5 893.6943,-918.5 893.6943,-924.5 887.6943,-930.5 881.6943,-930.5 881.6943,-930.5 603.6943,-930.5 603.6943,-930.5 597.6943,-930.5 591.6943,-924.5 591.6943,-918.5 591.6943,-918.5 591.6943,-641.5 591.6943,-641.5 591.6943,-635.5 597.6943,-629.5 603.6943,-629.5"/>
<text text-anchor="middle" x="742.6943" y="-915.3" font-family="Times,serif" font-size="14.00" fill="#000000">Offer</text>
<polyline fill="none" stroke="#000000" points="591.6943,-907.5 893.6943,-907.5 "/>
<text text-anchor="start" x="599.6943" y="-892.3" font-family="Times,serif" font-size="14.00" fill="#000000">language :character varying</text>
<text text-anchor="start" x="599.6943" y="-877.3" font-family="Times,serif" font-size="14.00" fill="#000000">state :character varying</text>
<text text-anchor="start" x="599.6943" y="-862.3" font-family="Times,serif" font-size="14.00" fill="#000000">origin :character varying</text>
<text text-anchor="start" x="599.6943" y="-847.3" font-family="Times,serif" font-size="14.00" fill="#000000">stairs :boolean</text>
<text text-anchor="start" x="599.6943" y="-832.3" font-family="Times,serif" font-size="14.00" fill="#000000">parking :boolean</text>
<text text-anchor="start" x="599.6943" y="-817.3" font-family="Times,serif" font-size="14.00" fill="#000000">estimated_size :character varying</text>
<text text-anchor="start" x="599.6943" y="-802.3" font-family="Times,serif" font-size="14.00" fill="#000000">notes :text</text>
<text text-anchor="start" x="599.6943" y="-787.3" font-family="Times,serif" font-size="14.00" fill="#000000">deleted_at :timestamp without time zone</text>
<text text-anchor="start" x="599.6943" y="-772.3" font-family="Times,serif" font-size="14.00" fill="#000000">submitted_at :timestamp without time zone</text>
<text text-anchor="start" x="599.6943" y="-757.3" font-family="Times,serif" font-size="14.00" fill="#000000">reviewed_at :timestamp without time zone</text>
<text text-anchor="start" x="599.6943" y="-742.3" font-family="Times,serif" font-size="14.00" fill="#000000">review_completed_at :timestamp without time zone</text>
<text text-anchor="start" x="599.6943" y="-727.3" font-family="Times,serif" font-size="14.00" fill="#000000">received_at :timestamp without time zone</text>
<text text-anchor="start" x="599.6943" y="-712.3" font-family="Times,serif" font-size="14.00" fill="#000000">delivered_by :character varying(30)</text>
<text text-anchor="start" x="599.6943" y="-697.3" font-family="Times,serif" font-size="14.00" fill="#000000">cancelled_at :timestamp without time zone</text>
<text text-anchor="start" x="599.6943" y="-682.3" font-family="Times,serif" font-size="14.00" fill="#000000">start_receiving_at :timestamp without time zone</text>
<text text-anchor="start" x="599.6943" y="-667.3" font-family="Times,serif" font-size="14.00" fill="#000000">cancel_reason :character varying</text>
<text text-anchor="start" x="599.6943" y="-652.3" font-family="Times,serif" font-size="14.00" fill="#000000">inactive_at :timestamp without time zone</text>
<text text-anchor="start" x="599.6943" y="-637.3" font-family="Times,serif" font-size="14.00" fill="#000000">saleable :boolean</text>
</g>
<!-- Offer&#45;&gt;Item -->
<g id="edge12" class="edge">
<title>Offer&#45;&gt;Item</title>
<path fill="none" stroke="#cc5bc8" d="M752.141,-938.928C747.4186,-981.5382 735.144,-1025.127 708.6943,-1059 684.7566,-1089.6562 648.8243,-1109.9667 612.6143,-1123.4082"/>
<ellipse fill="none" stroke="#cc5bc8" cx="752.5645" cy="-934.6847" rx="4" ry="4"/>
<polygon fill="#cc5bc8" stroke="#cc5bc8" points="612.3338,-1123.5076 601.4048,-1122.6083 607.6212,-1125.1786 602.9087,-1126.8495 602.9087,-1126.8495 602.9087,-1126.8495 607.6212,-1125.1786 604.4126,-1131.0908 612.3338,-1123.5076 612.3338,-1123.5076"/>
</g>
<!-- Offer&#45;&gt;Message -->
<g id="edge14" class="edge">
<title>Offer&#45;&gt;Message</title>
<path fill="none" stroke="#b4b0c7" d="M720.0242,-938.1112C715.4585,-947.3277 710.0628,-956.061 703.6943,-964 700.2249,-968.3251 696.3514,-972.3318 692.1769,-976.0421"/>
<ellipse fill="none" stroke="#b4b0c7" cx="721.8223" cy="-934.2485" rx="4" ry="4"/>
<polygon fill="#b4b0c7" stroke="#b4b0c7" points="692.1152,-976.0924 681.5189,-978.9157 688.2375,-979.249 684.3599,-982.4056 684.3599,-982.4056 684.3599,-982.4056 688.2375,-979.249 687.2008,-985.8954 692.1152,-976.0924 692.1152,-976.0924"/>
</g>
<!-- User -->
<g id="node5" class="node">
<title>User</title>
<path fill="none" stroke="#000000" d="M749.1943,-441.5C749.1943,-441.5 1006.1943,-441.5 1006.1943,-441.5 1012.1943,-441.5 1018.1943,-447.5 1018.1943,-453.5 1018.1943,-453.5 1018.1943,-565.5 1018.1943,-565.5 1018.1943,-571.5 1012.1943,-577.5 1006.1943,-577.5 1006.1943,-577.5 749.1943,-577.5 749.1943,-577.5 743.1943,-577.5 737.1943,-571.5 737.1943,-565.5 737.1943,-565.5 737.1943,-453.5 737.1943,-453.5 737.1943,-447.5 743.1943,-441.5 749.1943,-441.5"/>
<text text-anchor="middle" x="877.6943" y="-562.3" font-family="Times,serif" font-size="14.00" fill="#000000">User</text>
<polyline fill="none" stroke="#000000" points="737.1943,-554.5 1018.1943,-554.5 "/>
<text text-anchor="start" x="745.1943" y="-539.3" font-family="Times,serif" font-size="14.00" fill="#000000">first_name :character varying</text>
<text text-anchor="start" x="745.1943" y="-524.3" font-family="Times,serif" font-size="14.00" fill="#000000">last_name :character varying</text>
<text text-anchor="start" x="745.1943" y="-509.3" font-family="Times,serif" font-size="14.00" fill="#000000">mobile :character varying</text>
<text text-anchor="start" x="745.1943" y="-494.3" font-family="Times,serif" font-size="14.00" fill="#000000">last_connected :timestamp without time zone</text>
<text text-anchor="start" x="745.1943" y="-479.3" font-family="Times,serif" font-size="14.00" fill="#000000">last_disconnected :timestamp without time zone</text>
<text text-anchor="start" x="745.1943" y="-464.3" font-family="Times,serif" font-size="14.00" fill="#000000">disabled :boolean</text>
<text text-anchor="start" x="745.1943" y="-449.3" font-family="Times,serif" font-size="14.00" fill="#000000">email :character varying</text>
</g>
<!-- Offer&#45;&gt;User -->
<g id="edge16" class="edge">
<title>Offer&#45;&gt;User</title>
<path fill="none" stroke="#20a7af" d="M877.9446,-620.2476C879.2754,-617.1862 880.5277,-614.103 881.6943,-611 884.4638,-603.6339 885.8856,-595.7779 886.3899,-587.8222"/>
<polygon fill="#20a7af" stroke="#20a7af" points="877.9254,-620.2892 869.6409,-627.4738 875.825,-624.8267 873.7246,-629.3642 873.7246,-629.3642 873.7246,-629.3642 875.825,-624.8267 877.8084,-631.2545 877.9254,-620.2892 877.9254,-620.2892"/>
<polygon fill="#20a7af" stroke="#20a7af" points="886.3916,-587.7194 891.0695,-577.8014 886.4809,-582.7202 886.5702,-577.721 886.5702,-577.721 886.5702,-577.721 886.4809,-582.7202 882.0709,-577.6406 886.3916,-587.7194 886.3916,-587.7194"/>
</g>
<!-- Delivery -->
<g id="node6" class="node">
<title>Delivery</title>
<path fill="none" stroke="#000000" d="M1845.6943,-186C1845.6943,-186 2061.6943,-186 2061.6943,-186 2067.6943,-186 2073.6943,-192 2073.6943,-198 2073.6943,-198 2073.6943,-265 2073.6943,-265 2073.6943,-271 2067.6943,-277 2061.6943,-277 2061.6943,-277 1845.6943,-277 1845.6943,-277 1839.6943,-277 1833.6943,-271 1833.6943,-265 1833.6943,-265 1833.6943,-198 1833.6943,-198 1833.6943,-192 1839.6943,-186 1845.6943,-186"/>
<text text-anchor="middle" x="1953.6943" y="-261.8" font-family="Times,serif" font-size="14.00" fill="#000000">Delivery</text>
<polyline fill="none" stroke="#000000" points="1833.6943,-254 2073.6943,-254 "/>
<text text-anchor="start" x="1841.6943" y="-238.8" font-family="Times,serif" font-size="14.00" fill="#000000">delivery_type :character varying</text>
<text text-anchor="start" x="1841.6943" y="-223.8" font-family="Times,serif" font-size="14.00" fill="#000000">start :timestamp without time zone</text>
<text text-anchor="start" x="1841.6943" y="-208.8" font-family="Times,serif" font-size="14.00" fill="#000000">finish :timestamp without time zone</text>
<text text-anchor="start" x="1841.6943" y="-193.8" font-family="Times,serif" font-size="14.00" fill="#000000">deleted_at :timestamp without time zone</text>
</g>
<!-- Offer&#45;&gt;Delivery -->
<g id="edge15" class="edge">
<title>Offer&#45;&gt;Delivery</title>
<path fill="none" stroke="#37e6ab" d="M902.0165,-776.6789C1194.6659,-766.9322 1800.2232,-728.6081 1934.6943,-578 1972.0593,-536.1511 1965.1137,-371.8015 1958.5541,-285.3411"/>
<ellipse fill="none" stroke="#37e6ab" cx="897.876" cy="-776.8143" rx="4" ry="4"/>
<ellipse fill="#37e6ab" stroke="#37e6ab" cx="1958.2326" cy="-281.2117" rx="4" ry="4"/>
</g>
<!-- Offer&#45;&gt;Version -->
<g id="edge11" class="edge">
<title>Offer&#45;&gt;Version</title>
<path fill="none" stroke="#50a37c" d="M901.627,-739.6866C1067.8018,-688.4166 1321.2346,-582.4881 1444.6943,-390 1521.5545,-270.1661 1394.4871,-177.9372 1490.6943,-73 1515.3544,-46.1023 1615.524,-30.2871 1676.5284,-22.9651"/>
<ellipse fill="none" stroke="#50a37c" cx="897.6057" cy="-740.9167" rx="4" ry="4"/>
<polygon fill="#50a37c" stroke="#50a37c" points="1676.7677,-22.9373 1687.2216,-26.2489 1681.7341,-22.3582 1686.7005,-21.7791 1686.7005,-21.7791 1686.7005,-21.7791 1681.7341,-22.3582 1686.1793,-17.3094 1676.7677,-22.9373 1676.7677,-22.9373"/>
</g>
<!-- Subscription -->
<g id="node15" class="node">
<title>Subscription</title>
<ellipse fill="none" stroke="#000000" cx="447.6943" cy="-231.5" rx="55.4913" ry="18"/>
<text text-anchor="middle" x="447.6943" y="-227.8" font-family="Times,serif" font-size="14.00" fill="#000000">Subscription</text>
</g>
<!-- Offer&#45;&gt;Subscription -->
<g id="edge13" class="edge">
<title>Offer&#45;&gt;Subscription</title>
<path fill="none" stroke="#8dd565" d="M593.6007,-622.4736C591.2053,-618.6686 588.8989,-614.8421 586.6943,-611 539.7452,-529.1762 557.6901,-496.3778 524.6943,-408 521.6323,-399.7984 520.2193,-398.0135 516.6943,-390 496.5219,-344.141 473.3179,-290.6934 459.6137,-259.054"/>
<ellipse fill="none" stroke="#8dd565" cx="595.8364" cy="-625.9374" rx="4" ry="4"/>
<polygon fill="#8dd565" stroke="#8dd565" points="459.4872,-258.7618 459.6435,-247.797 457.5006,-254.1734 455.514,-249.585 455.514,-249.585 455.514,-249.585 457.5006,-254.1734 451.3844,-251.373 459.4872,-258.7618 459.4872,-258.7618"/>
</g>
<!-- Message&#45;&gt;Offer -->
<g id="edge19" class="edge">
<title>Message&#45;&gt;Offer</title>
<path fill="none" stroke="#f3db8a" d="M586.2338,-972.4218C588.3197,-964.3588 591.0696,-956.2609 594.6943,-949 596.2887,-945.8064 597.9582,-942.6251 599.6954,-939.4593"/>
<polygon fill="#f3db8a" stroke="#f3db8a" points="586.2316,-972.4319 579.6177,-981.1787 585.1181,-977.3063 584.0047,-982.1808 584.0047,-982.1808 584.0047,-982.1808 585.1181,-977.3063 588.3917,-983.1829 586.2316,-972.4319 586.2316,-972.4319"/>
<polygon fill="#f3db8a" stroke="#f3db8a" points="599.806,-939.2656 608.6723,-932.8128 602.2852,-934.9235 604.7645,-930.5815 604.7645,-930.5815 604.7645,-930.5815 602.2852,-934.9235 600.8566,-928.3501 599.806,-939.2656 599.806,-939.2656"/>
<text text-anchor="middle" x="647.1943" y="-952.8" font-family="Times,serif" font-size="14.00" fill="#000000">offers_subscription</text>
</g>
<!-- Message&#45;&gt;Version -->
<g id="edge17" class="edge">
<title>Message&#45;&gt;Version</title>
<path fill="none" stroke="#228557" d="M708.095,-994.2555C768.6055,-979.556 840.9025,-958.5668 902.6943,-931 915.4314,-925.3177 1741.9964,-402.2335 1748.6943,-390 1816.3546,-266.421 1777.4751,-210.9179 1748.6943,-73 1746.7151,-63.5155 1743.0066,-53.6635 1739.0863,-44.9628"/>
<ellipse fill="none" stroke="#228557" cx="703.9071" cy="-995.2624" rx="4" ry="4"/>
<polygon fill="#228557" stroke="#228557" points="1738.9735,-44.7272 1738.7092,-33.7645 1736.8124,-40.2184 1734.6513,-35.7095 1734.6513,-35.7095 1734.6513,-35.7095 1736.8124,-40.2184 1730.5933,-37.6545 1738.9735,-44.7272 1738.9735,-44.7272"/>
</g>
<!-- Message&#45;&gt;Subscription -->
<g id="edge18" class="edge">
<title>Message&#45;&gt;Subscription</title>
<path fill="none" stroke="#47f192" d="M549.1746,-975.1796C540.9461,-961.4366 532.6771,-945.9974 526.6943,-931 440.885,-715.8946 436.6354,-653.1318 410.6943,-423 404.0551,-364.101 423.7938,-296.2158 436.942,-259.1702"/>
<ellipse fill="none" stroke="#47f192" cx="551.377" cy="-978.7864" rx="4" ry="4"/>
<polygon fill="#47f192" stroke="#47f192" points="437.0168,-258.9652 444.6751,-251.1166 438.7326,-254.2688 440.4483,-249.5724 440.4483,-249.5724 440.4483,-249.5724 438.7326,-254.2688 436.2216,-248.0282 437.0168,-258.9652 437.0168,-258.9652"/>
</g>
<!-- User&#45;&gt;Package -->
<g id="edge35" class="edge">
<title>User&#45;&gt;Package</title>
<path fill="none" stroke="#84dd62" d="M728.7868,-488.6993C645.8726,-474.786 541.5553,-453.3856 451.6943,-423 419.8714,-412.2394 411.4266,-408.9583 383.6943,-390 370.5495,-381.0139 357.4069,-371.0472 344.5762,-360.6133"/>
<ellipse fill="none" stroke="#84dd62" cx="732.7969" cy="-489.3662" rx="4" ry="4"/>
<polygon fill="#84dd62" stroke="#84dd62" points="344.3455,-360.4231 339.4933,-350.5891 340.4879,-357.242 336.6303,-354.061 336.6303,-354.061 336.6303,-354.061 340.4879,-357.242 333.7674,-357.5328 344.3455,-360.4231 344.3455,-360.4231"/>
<text text-anchor="middle" x="498.6943" y="-411.8" font-family="Times,serif" font-size="14.00" fill="#000000">moved_packages</text>
</g>
<!-- User&#45;&gt;Offer -->
<g id="edge23" class="edge">
<title>User&#45;&gt;Offer</title>
<path fill="none" stroke="#a75985" d="M904.3743,-585.9643C904.0986,-594.5529 902.6792,-603.061 899.6943,-611 898.5277,-614.103 897.2754,-617.1862 895.944,-620.2476"/>
<ellipse fill="none" stroke="#a75985" cx="904.3371" cy="-581.7208" rx="4" ry="4"/>
<polygon fill="#a75985" stroke="#a75985" points="895.924,-620.291 887.6365,-627.4721 893.8217,-624.8276 891.7194,-629.3642 891.7194,-629.3642 891.7194,-629.3642 893.8217,-624.8276 895.8023,-631.2562 895.924,-620.291 895.924,-620.291"/>
</g>
<!-- User&#45;&gt;Offer -->
<g id="edge24" class="edge">
<title>User&#45;&gt;Offer</title>
<path fill="none" stroke="#56e3a9" d="M918.2038,-585.4812C919.0318,-594.1343 918.1376,-602.7896 914.6943,-611 910.4488,-621.1235 905.2683,-630.9462 899.389,-640.4236"/>
<ellipse fill="none" stroke="#56e3a9" cx="917.5914" cy="-581.5015" rx="4" ry="4"/>
<polygon fill="#56e3a9" stroke="#56e3a9" points="899.2468,-640.6426 890.0261,-646.5779 896.5234,-644.8358 893.7999,-649.029 893.7999,-649.029 893.7999,-649.029 896.5234,-644.8358 897.5738,-651.4801 899.2468,-640.6426 899.2468,-640.6426"/>
<text text-anchor="middle" x="961.6943" y="-599.8" font-family="Times,serif" font-size="14.00" fill="#000000">reviewed_offers</text>
</g>
<!-- User&#45;&gt;Offer -->
<g id="edge27" class="edge">
<title>User&#45;&gt;Offer</title>
<path fill="none" stroke="#048e77" d="M726.9405,-539.2309C669.8662,-553.8067 614.5399,-573.1648 597.6943,-596 585.9881,-611.8686 583.917,-628.3263 588.2514,-644.5809"/>
<polygon fill="#048e77" stroke="#048e77" points="727.1555,-539.1772 737.9489,-541.1149 732.006,-537.9633 736.8564,-536.7495 736.8564,-536.7495 736.8564,-536.7495 732.006,-537.9633 735.764,-532.3841 727.1555,-539.1772 727.1555,-539.1772"/>
<polygon fill="#048e77" stroke="#048e77" points="588.2789,-644.6614 587.2619,-655.5801 589.899,-649.3917 591.5191,-654.1219 591.5191,-654.1219 591.5191,-654.1219 589.899,-649.3917 595.7764,-652.6638 588.2789,-644.6614 588.2789,-644.6614"/>
<text text-anchor="middle" x="650.1943" y="-599.8" font-family="Times,serif" font-size="14.00" fill="#000000">offers_subscription</text>
</g>
<!-- User&#45;&gt;Offer -->
<g id="edge29" class="edge">
<title>User&#45;&gt;Offer</title>
<path fill="none" stroke="#b095ae" d="M730.2648,-583.5324C727.1338,-587.4899 724.2604,-591.643 721.6943,-596 717.2966,-603.4671 714.0576,-611.4015 711.7822,-619.622"/>
<polygon fill="#b095ae" stroke="#b095ae" points="730.5057,-583.2531 740.445,-578.6205 733.7716,-579.4671 737.0376,-575.6812 737.0376,-575.6812 737.0376,-575.6812 733.7716,-579.4671 733.6302,-572.7418 730.5057,-583.2531 730.5057,-583.2531"/>
<polygon fill="#b095ae" stroke="#b095ae" points="711.7769,-619.6457 705.1559,-628.3871 710.6595,-624.5192 709.5421,-629.3928 709.5421,-629.3928 709.5421,-629.3928 710.6595,-624.5192 713.9283,-630.3985 711.7769,-619.6457 711.7769,-619.6457"/>
<text text-anchor="middle" x="804.1943" y="-599.8" font-family="Times,serif" font-size="14.00" fill="#000000">offers_with_unread_messages</text>
</g>
<!-- User&#45;&gt;Message -->
<g id="edge25" class="edge">
<title>User&#45;&gt;Message</title>
<path fill="none" stroke="#cc26d6" d="M729.1664,-537.9365C667.7993,-552.7636 606.3822,-572.6847 586.6943,-596 496.0091,-703.394 536.546,-886.3455 563.1268,-972.6925"/>
<ellipse fill="none" stroke="#cc26d6" cx="733.1456" cy="-536.9889" rx="4" ry="4"/>
<polygon fill="#cc26d6" stroke="#cc26d6" points="563.2064,-972.9455 561.9172,-983.8353 564.7079,-977.7147 566.2095,-982.4839 566.2095,-982.4839 566.2095,-982.4839 564.7079,-977.7147 570.5018,-981.1325 563.2064,-972.9455 563.2064,-972.9455"/>
</g>
<!-- Address -->
<g id="node8" class="node">
<title>Address</title>
<path fill="none" stroke="#000000" d="M1511.6943,-171C1511.6943,-171 1727.6943,-171 1727.6943,-171 1733.6943,-171 1739.6943,-177 1739.6943,-183 1739.6943,-183 1739.6943,-280 1739.6943,-280 1739.6943,-286 1733.6943,-292 1727.6943,-292 1727.6943,-292 1511.6943,-292 1511.6943,-292 1505.6943,-292 1499.6943,-286 1499.6943,-280 1499.6943,-280 1499.6943,-183 1499.6943,-183 1499.6943,-177 1505.6943,-171 1511.6943,-171"/>
<text text-anchor="middle" x="1619.6943" y="-276.8" font-family="Times,serif" font-size="14.00" fill="#000000">Address</text>
<polyline fill="none" stroke="#000000" points="1499.6943,-269 1739.6943,-269 "/>
<text text-anchor="start" x="1507.6943" y="-253.8" font-family="Times,serif" font-size="14.00" fill="#000000">flat :character varying</text>
<text text-anchor="start" x="1507.6943" y="-238.8" font-family="Times,serif" font-size="14.00" fill="#000000">building :character varying</text>
<text text-anchor="start" x="1507.6943" y="-223.8" font-family="Times,serif" font-size="14.00" fill="#000000">street :character varying</text>
<text text-anchor="start" x="1507.6943" y="-208.8" font-family="Times,serif" font-size="14.00" fill="#000000">addressable_type :character varying</text>
<text text-anchor="start" x="1507.6943" y="-193.8" font-family="Times,serif" font-size="14.00" fill="#000000">address_type :character varying</text>
<text text-anchor="start" x="1507.6943" y="-178.8" font-family="Times,serif" font-size="14.00" fill="#000000">deleted_at :timestamp without time zone</text>
</g>
<!-- User&#45;&gt;Address -->
<g id="edge21" class="edge">
<title>User&#45;&gt;Address</title>
<path fill="none" stroke="#7d621a" d="M1026.4005,-498.3428C1170.3594,-485.5221 1376.9115,-461.1922 1447.6943,-423 1501.2646,-394.0952 1546.5224,-341.7341 1577.1473,-299.0613"/>
<ellipse fill="none" stroke="#7d621a" cx="1022.2886" cy="-498.7058" rx="4" ry="4"/>
<ellipse fill="#7d621a" stroke="#7d621a" cx="1579.6237" cy="-295.565" rx="4" ry="4"/>
</g>
<!-- User&#45;&gt;Version -->
<g id="edge20" class="edge">
<title>User&#45;&gt;Version</title>
<path fill="none" stroke="#f37ce2" d="M1026.2593,-496.7195C1167.7506,-481.1359 1366.1525,-449.2193 1414.6943,-390 1510.1347,-273.5662 1351.5978,-160.8139 1457.6943,-54 1472.8139,-38.7782 1603.4099,-26.8835 1676.1907,-21.3657"/>
<ellipse fill="none" stroke="#f37ce2" cx="1022.2734" cy="-497.1532" rx="4" ry="4"/>
<polygon fill="#f37ce2" stroke="#f37ce2" points="1676.5164,-21.3415 1686.8233,-25.0858 1681.5026,-20.9699 1686.4888,-20.5983 1686.4888,-20.5983 1686.4888,-20.5983 1681.5026,-20.9699 1686.1543,-16.1107 1676.5164,-21.3415 1676.5164,-21.3415"/>
</g>
<!-- User&#45;&gt;Location -->
<g id="edge36" class="edge">
<title>User&#45;&gt;Location</title>
<path fill="none" stroke="#54f6bd" d="M773.7757,-436.1599C754.216,-425.1282 733.3874,-415.0896 712.6943,-408 677.8012,-396.0454 573.833,-416.0234 547.6943,-390 497.4518,-339.979 523.87,-142.8439 511.6943,-73 510.161,-64.204 508.0751,-54.7117 506.0232,-46.1296"/>
<polygon fill="#54f6bd" stroke="#54f6bd" points="774.0068,-436.2932 780.4191,-445.1889 778.3375,-438.7923 782.6682,-441.2913 782.6682,-441.2913 782.6682,-441.2913 778.3375,-438.7923 784.9174,-437.3937 774.0068,-436.2932 774.0068,-436.2932"/>
<polygon fill="#54f6bd" stroke="#54f6bd" points="505.9738,-45.9292 507.9455,-35.142 504.7753,-41.0749 503.5767,-36.2207 503.5767,-36.2207 503.5767,-36.2207 504.7753,-41.0749 499.2079,-37.2994 505.9738,-45.9292 505.9738,-45.9292"/>
<text text-anchor="middle" x="588.1943" y="-227.8" font-family="Times,serif" font-size="14.00" fill="#000000">used_locations</text>
</g>
<!-- User&#45;&gt;Subscription -->
<g id="edge26" class="edge">
<title>User&#45;&gt;Subscription</title>
<path fill="none" stroke="#acd7de" d="M742.5904,-437.3791C733.4875,-432.5142 724.4571,-427.6866 715.6943,-423 703.2453,-416.3419 701.1884,-412.1497 687.6943,-408 651.1723,-396.7687 547.5117,-412.5896 516.6943,-390 474.2854,-358.9136 457.6061,-296.1371 451.3021,-259.6084"/>
<ellipse fill="none" stroke="#acd7de" cx="746.3747" cy="-439.4013" rx="4" ry="4"/>
<polygon fill="#acd7de" stroke="#acd7de" points="451.2837,-259.4915 454.1687,-248.9119 450.5037,-254.5527 449.7238,-249.6139 449.7238,-249.6139 449.7238,-249.6139 450.5037,-254.5527 445.2788,-250.3158 451.2837,-259.4915 451.2837,-259.4915"/>
</g>
<!-- User&#45;&gt;Subscription -->
<g id="edge28" class="edge">
<title>User&#45;&gt;Subscription</title>
<path fill="none" stroke="#92f3d9" d="M729.167,-480.5655C676.762,-467.1152 618.5194,-448.3483 568.6943,-423 559.1051,-418.1215 558.6712,-413.9304 549.6943,-408 535.7549,-398.7911 527.972,-402.3258 516.6943,-390 481.9024,-351.9744 462.7384,-293.6382 453.8918,-259.354"/>
<ellipse fill="none" stroke="#92f3d9" cx="733.3117" cy="-481.614" rx="4" ry="4"/>
<polygon fill="#92f3d9" stroke="#92f3d9" points="453.865,-259.2447 455.841,-248.4584 452.6684,-254.39 451.4717,-249.5353 451.4717,-249.5353 451.4717,-249.5353 452.6684,-254.39 447.1025,-250.6123 453.865,-259.2447 453.865,-259.2447"/>
<text text-anchor="middle" x="626.1943" y="-411.8" font-family="Times,serif" font-size="14.00" fill="#000000">unread_subscriptions</text>
</g>
<!-- AuthToken -->
<g id="node16" class="node">
<title>AuthToken</title>
<ellipse fill="none" stroke="#000000" cx="688.6943" cy="-231.5" rx="50.8918" ry="18"/>
<text text-anchor="middle" x="688.6943" y="-227.8" font-family="Times,serif" font-size="14.00" fill="#000000">AuthToken</text>
</g>
<!-- User&#45;&gt;AuthToken -->
<g id="edge22" class="edge">
<title>User&#45;&gt;AuthToken</title>
<path fill="none" stroke="#df3587" d="M786.607,-435.3497C772.7072,-421.2899 759.4386,-405.952 748.6943,-390 720.9591,-348.8215 703.7189,-293.0658 695.1882,-259.8398"/>
<ellipse fill="none" stroke="#df3587" cx="789.7582" cy="-438.4773" rx="4" ry="4"/>
<polygon fill="#df3587" stroke="#df3587" points="695.1282,-259.5972 697.0902,-248.8082 693.9252,-254.744 692.7223,-249.8909 692.7223,-249.8909 692.7223,-249.8909 693.9252,-254.744 688.3545,-250.9735 695.1282,-259.5972 695.1282,-259.5972"/>
</g>
<!-- BraintreeTransaction -->
<g id="node17" class="node">
<title>BraintreeTransaction</title>
<ellipse fill="none" stroke="#000000" cx="842.6943" cy="-231.5" rx="85.2851" ry="18"/>
<text text-anchor="middle" x="842.6943" y="-227.8" font-family="Times,serif" font-size="14.00" fill="#000000">BraintreeTransaction</text>
</g>
<!-- User&#45;&gt;BraintreeTransaction -->
<g id="edge30" class="edge">
<title>User&#45;&gt;BraintreeTransaction</title>
<path fill="none" stroke="#801087" d="M868.0866,-433.1868C860.8421,-375.6453 851.3152,-299.9739 846.2388,-259.653"/>
<ellipse fill="none" stroke="#801087" cx="868.6327" cy="-437.5249" rx="4" ry="4"/>
<polygon fill="#801087" stroke="#801087" points="846.2385,-259.6503 849.4541,-249.1665 845.6139,-254.6895 844.9893,-249.7286 844.9893,-249.7286 844.9893,-249.7286 845.6139,-254.6895 840.5246,-250.2908 846.2385,-259.6503 846.2385,-259.6503"/>
</g>
<!-- OrganisationsUser -->
<g id="node18" class="node">
<title>OrganisationsUser</title>
<ellipse fill="none" stroke="#000000" cx="1021.6943" cy="-231.5" rx="76.0865" ry="18"/>
<text text-anchor="middle" x="1021.6943" y="-227.8" font-family="Times,serif" font-size="14.00" fill="#000000">OrganisationsUser</text>
</g>
<!-- User&#45;&gt;OrganisationsUser -->
<g id="edge31" class="edge">
<title>User&#45;&gt;OrganisationsUser</title>
<path fill="none" stroke="#796ea4" d="M916.6379,-434.3173C946.8315,-376.027 986.9311,-298.6123 1007.7755,-258.3711"/>
<ellipse fill="none" stroke="#796ea4" cx="914.7605" cy="-437.9418" rx="4" ry="4"/>
<polygon fill="#796ea4" stroke="#796ea4" points="1007.8029,-258.3181 1016.3982,-251.5084 1010.1027,-253.8784 1012.4024,-249.4386 1012.4024,-249.4386 1012.4024,-249.4386 1010.1027,-253.8784 1008.4066,-247.3688 1007.8029,-258.3181 1007.8029,-258.3181"/>
</g>
<!-- Organisation -->
<g id="node19" class="node">
<title>Organisation</title>
<ellipse fill="none" stroke="#000000" cx="1171.6943" cy="-231.5" rx="55.7903" ry="18"/>
<text text-anchor="middle" x="1171.6943" y="-227.8" font-family="Times,serif" font-size="14.00" fill="#000000">Organisation</text>
</g>
<!-- User&#45;&gt;Organisation -->
<g id="edge32" class="edge">
<title>User&#45;&gt;Organisation</title>
<path fill="none" stroke="#9ff0b0" d="M1027.4169,-450.8072C1056.3934,-434.3941 1084.5781,-414.2453 1106.6943,-390 1141.1158,-352.2648 1158.6063,-293.8294 1166.3913,-259.4484"/>
<polygon fill="#9ff0b0" stroke="#9ff0b0" points="1027.1596,-450.9492 1016.2301,-451.8417 1022.7821,-453.3653 1018.4046,-455.7814 1018.4046,-455.7814 1018.4046,-455.7814 1022.7821,-453.3653 1020.5791,-459.7212 1027.1596,-450.9492 1027.1596,-450.9492"/>
<polygon fill="#9ff0b0" stroke="#9ff0b0" points="1166.4064,-259.3778 1172.9037,-250.544 1167.455,-254.489 1168.5037,-249.6002 1168.5037,-249.6002 1168.5037,-249.6002 1167.455,-254.489 1164.1038,-248.6564 1166.4064,-259.3778 1166.4064,-259.3778"/>
</g>
<!-- UserRole -->
<g id="node20" class="node">
<title>UserRole</title>
<ellipse fill="none" stroke="#000000" cx="1289.6943" cy="-231.5" rx="44.393" ry="18"/>
<text text-anchor="middle" x="1289.6943" y="-227.8" font-family="Times,serif" font-size="14.00" fill="#000000">UserRole</text>
</g>
<!-- User&#45;&gt;UserRole -->
<g id="edge33" class="edge">
<title>User&#45;&gt;UserRole</title>
<path fill="none" stroke="#7adeb0" d="M1026.5592,-491.3642C1098.3842,-475.499 1180.8616,-445.7566 1236.6943,-390 1272.1387,-354.604 1283.8809,-294.8651 1287.7698,-259.7135"/>
<ellipse fill="none" stroke="#7adeb0" cx="1022.2153" cy="-492.2972" rx="4" ry="4"/>
<polygon fill="#7adeb0" stroke="#7adeb0" points="1287.7805,-259.6016 1293.2213,-250.0806 1288.2613,-254.6247 1288.7421,-249.6479 1288.7421,-249.6479 1288.7421,-249.6479 1288.2613,-254.6247 1284.263,-249.2152 1287.7805,-259.6016 1287.7805,-259.6016"/>
</g>
<!-- Role -->
<g id="node21" class="node">
<title>Role</title>
<ellipse fill="none" stroke="#000000" cx="1378.6943" cy="-231.5" rx="27.0966" ry="18"/>
<text text-anchor="middle" x="1378.6943" y="-227.8" font-family="Times,serif" font-size="14.00" fill="#000000">Role</text>
</g>
<!-- User&#45;&gt;Role -->
<g id="edge34" class="edge">
<title>User&#45;&gt;Role</title>
<path fill="none" stroke="#474863" d="M1028.1874,-488.2363C1146.847,-468.4048 1299.311,-435.0992 1342.6943,-390 1376.4675,-354.8911 1381.0612,-295.0521 1380.4719,-259.8048"/>
<polygon fill="#474863" stroke="#474863" points="1028.1294,-488.2458 1017.5293,-485.4371 1023.1963,-489.0613 1018.2632,-489.8769 1018.2632,-489.8769 1018.2632,-489.8769 1023.1963,-489.0613 1018.9972,-494.3166 1028.1294,-488.2458 1028.1294,-488.2458"/>
<polygon fill="#474863" stroke="#474863" points="1380.4688,-259.705 1384.6468,-249.5663 1380.3089,-254.7076 1380.1491,-249.7101 1380.1491,-249.7101 1380.1491,-249.7101 1380.3089,-254.7076 1375.6514,-249.854 1380.4688,-259.705 1380.4688,-259.705"/>
</g>
<!-- Delivery&#45;&gt;Version -->
<g id="edge37" class="edge">
<title>Delivery&#45;&gt;Version</title>
<path fill="none" stroke="#a3d93b" d="M1924.7562,-178.4806C1901.0401,-139.3654 1864.1959,-87.3543 1819.6943,-54 1804.711,-42.7699 1785.817,-34.6628 1768.8326,-29.0199"/>
<ellipse fill="none" stroke="#a3d93b" cx="1926.9773" cy="-182.194" rx="4" ry="4"/>
<polygon fill="#a3d93b" stroke="#a3d93b" points="1768.6418,-28.9604 1760.4395,-21.6821 1763.8695,-27.4688 1759.0971,-25.9772 1759.0971,-25.9772 1759.0971,-25.9772 1763.8695,-27.4688 1757.7547,-30.2724 1768.6418,-28.9604 1768.6418,-28.9604"/>
</g>
<!-- Schedule -->
<g id="node7" class="node">
<title>Schedule</title>
<path fill="none" stroke="#000000" d="M1994.1943,-456.5C1994.1943,-456.5 2225.1943,-456.5 2225.1943,-456.5 2231.1943,-456.5 2237.1943,-462.5 2237.1943,-468.5 2237.1943,-468.5 2237.1943,-550.5 2237.1943,-550.5 2237.1943,-556.5 2231.1943,-562.5 2225.1943,-562.5 2225.1943,-562.5 1994.1943,-562.5 1994.1943,-562.5 1988.1943,-562.5 1982.1943,-556.5 1982.1943,-550.5 1982.1943,-550.5 1982.1943,-468.5 1982.1943,-468.5 1982.1943,-462.5 1988.1943,-456.5 1994.1943,-456.5"/>
<text text-anchor="middle" x="2109.6943" y="-547.3" font-family="Times,serif" font-size="14.00" fill="#000000">Schedule</text>
<polyline fill="none" stroke="#000000" points="1982.1943,-539.5 2237.1943,-539.5 "/>
<text text-anchor="start" x="1990.1943" y="-524.3" font-family="Times,serif" font-size="14.00" fill="#000000">resource :character varying</text>
<text text-anchor="start" x="1990.1943" y="-509.3" font-family="Times,serif" font-size="14.00" fill="#000000">slot :integer</text>
<text text-anchor="start" x="1990.1943" y="-494.3" font-family="Times,serif" font-size="14.00" fill="#000000">slot_name :character varying</text>
<text text-anchor="start" x="1990.1943" y="-479.3" font-family="Times,serif" font-size="14.00" fill="#000000">zone :character varying</text>
<text text-anchor="start" x="1990.1943" y="-464.3" font-family="Times,serif" font-size="14.00" fill="#000000">scheduled_at :timestamp without time zone</text>
</g>
<!-- Schedule&#45;&gt;Delivery -->
<g id="edge38" class="edge">
<title>Schedule&#45;&gt;Delivery</title>
<path fill="none" stroke="#6b2fd0" d="M2075.792,-449.0842C2048.5495,-400.5368 2010.6186,-332.942 1984.2927,-286.0278"/>
<ellipse fill="none" stroke="#6b2fd0" cx="2077.8431" cy="-452.7394" rx="4" ry="4"/>
<polygon fill="#6b2fd0" stroke="#6b2fd0" points="1984.2469,-285.9462 1983.2775,-275.0232 1981.8001,-281.5858 1979.3532,-277.2254 1979.3532,-277.2254 1979.3532,-277.2254 1981.8001,-281.5858 1975.4288,-279.4276 1984.2469,-285.9462 1984.2469,-285.9462"/>
</g>
<!-- Address&#45;&gt;Version -->
<g id="edge39" class="edge">
<title>Address&#45;&gt;Version</title>
<path fill="none" stroke="#5f6084" d="M1653.125,-163.5244C1672.8891,-123.3372 1696.826,-74.6656 1711.3986,-45.0348"/>
<ellipse fill="none" stroke="#5f6084" cx="1651.2676" cy="-167.3011" rx="4" ry="4"/>
<polygon fill="#5f6084" stroke="#5f6084" points="1711.5488,-44.7293 1720.0001,-37.7417 1713.7554,-40.2425 1715.962,-35.7558 1715.962,-35.7558 1715.962,-35.7558 1713.7554,-40.2425 1711.9239,-33.7698 1711.5488,-44.7293 1711.5488,-44.7293"/>
</g>
<!-- Contact -->
<g id="node9" class="node">
<title>Contact</title>
<path fill="none" stroke="#000000" d="M1697.6943,-471.5C1697.6943,-471.5 1913.6943,-471.5 1913.6943,-471.5 1919.6943,-471.5 1925.6943,-477.5 1925.6943,-483.5 1925.6943,-483.5 1925.6943,-535.5 1925.6943,-535.5 1925.6943,-541.5 1919.6943,-547.5 1913.6943,-547.5 1913.6943,-547.5 1697.6943,-547.5 1697.6943,-547.5 1691.6943,-547.5 1685.6943,-541.5 1685.6943,-535.5 1685.6943,-535.5 1685.6943,-483.5 1685.6943,-483.5 1685.6943,-477.5 1691.6943,-471.5 1697.6943,-471.5"/>
<text text-anchor="middle" x="1805.6943" y="-532.3" font-family="Times,serif" font-size="14.00" fill="#000000">Contact</text>
<polyline fill="none" stroke="#000000" points="1685.6943,-524.5 1925.6943,-524.5 "/>
<text text-anchor="start" x="1693.6943" y="-509.3" font-family="Times,serif" font-size="14.00" fill="#000000">name :character varying</text>
<text text-anchor="start" x="1693.6943" y="-494.3" font-family="Times,serif" font-size="14.00" fill="#000000">mobile :character varying</text>
<text text-anchor="start" x="1693.6943" y="-479.3" font-family="Times,serif" font-size="14.00" fill="#000000">deleted_at :timestamp without time zone</text>
</g>
<!-- Contact&#45;&gt;Delivery -->
<g id="edge42" class="edge">
<title>Contact&#45;&gt;Delivery</title>
<path fill="none" stroke="#825a98" d="M1829.8796,-464.071C1856.0599,-414.8944 1897.7699,-336.5474 1925.4394,-284.5736"/>
<ellipse fill="none" stroke="#825a98" cx="1827.8425" cy="-467.8974" rx="4" ry="4"/>
<ellipse fill="#825a98" stroke="#825a98" cx="1927.3676" cy="-280.9515" rx="4" ry="4"/>
</g>
<!-- Contact&#45;&gt;Address -->
<g id="edge41" class="edge">
<title>Contact&#45;&gt;Address</title>
<path fill="none" stroke="#19a925" d="M1775.7318,-464.7173C1745.7321,-419.879 1699.1989,-350.3293 1664.7481,-298.8384"/>
<ellipse fill="none" stroke="#19a925" cx="1777.9975" cy="-468.1037" rx="4" ry="4"/>
<ellipse fill="#19a925" stroke="#19a925" cx="1662.4078" cy="-295.3405" rx="4" ry="4"/>
</g>
<!-- Contact&#45;&gt;Version -->
<g id="edge40" class="edge">
<title>Contact&#45;&gt;Version</title>
<path fill="none" stroke="#59ca53" d="M1808.5281,-462.9016C1813.8874,-361.0389 1821.6589,-122.1991 1781.6943,-54 1777.2285,-46.379 1770.442,-40.1227 1763.0912,-35.0888"/>
<ellipse fill="none" stroke="#59ca53" cx="1808.2983" cy="-467.1666" rx="4" ry="4"/>
<polygon fill="#59ca53" stroke="#59ca53" points="1762.8457,-34.9391 1756.6511,-25.8905 1758.5769,-32.3358 1754.3081,-29.7324 1754.3081,-29.7324 1754.3081,-29.7324 1758.5769,-32.3358 1751.9651,-33.5743 1762.8457,-34.9391 1762.8457,-34.9391"/>
</g>
</g>
</svg>
