<?xml version="1.0" encoding="UTF-8" standalone="no"?>
<!DOCTYPE svg PUBLIC "-//W3C//DTD SVG 1.1//EN"
 "http://www.w3.org/Graphics/SVG/1.1/DTD/svg11.dtd">
<!-- Generated by graphviz version 2.40.1 (20161225.0304)
 -->
<!-- Title: models_diagram Pages: 1 -->
<svg width="854pt" height="552pt"
 viewBox="0.00 0.00 854.50 552.00" xmlns="http://www.w3.org/2000/svg" xmlns:xlink="http://www.w3.org/1999/xlink">
<g id="graph0" class="graph" transform="scale(1 1) rotate(0) translate(4 548)">
<title>models_diagram</title>
<polygon fill="transparent" stroke="transparent" points="-4,4 -4,-548 850.4965,-548 850.4965,4 -4,4"/>
<!-- OrdersPackage -->
<g id="node1" class="node">
<title>OrdersPackage</title>
<path fill="none" stroke="#000000" d="M12,-38C12,-38 215,-38 215,-38 221,-38 227,-44 227,-50 227,-50 227,-102 227,-102 227,-108 221,-114 215,-114 215,-114 12,-114 12,-114 6,-114 0,-108 0,-102 0,-102 0,-50 0,-50 0,-44 6,-38 12,-38"/>
<text text-anchor="middle" x="113.5" y="-98.8" font-family="Times,serif" font-size="14.00" fill="#000000">OrdersPackage</text>
<polyline fill="none" stroke="#000000" points="0,-91 227,-91 "/>
<text text-anchor="start" x="8" y="-75.8" font-family="Times,serif" font-size="14.00" fill="#000000">state :character varying</text>
<text text-anchor="start" x="8" y="-60.8" font-family="Times,serif" font-size="14.00" fill="#000000">quantity :integer</text>
<text text-anchor="start" x="8" y="-45.8" font-family="Times,serif" font-size="14.00" fill="#000000">sent_on :timestamp without time zone</text>
</g>
<!-- OrderTransport -->
<g id="node2" class="node">
<title>OrderTransport</title>
<path fill="none" stroke="#000000" d="M257,-.5C257,-.5 430,-.5 430,-.5 436,-.5 442,-6.5 442,-12.5 442,-12.5 442,-139.5 442,-139.5 442,-145.5 436,-151.5 430,-151.5 430,-151.5 257,-151.5 257,-151.5 251,-151.5 245,-145.5 245,-139.5 245,-139.5 245,-12.5 245,-12.5 245,-6.5 251,-.5 257,-.5"/>
<text text-anchor="middle" x="343.5" y="-136.3" font-family="Times,serif" font-size="14.00" fill="#000000">OrderTransport</text>
<polyline fill="none" stroke="#000000" points="245,-128.5 442,-128.5 "/>
<text text-anchor="start" x="253" y="-113.3" font-family="Times,serif" font-size="14.00" fill="#000000">scheduled_at :date</text>
<text text-anchor="start" x="253" y="-98.3" font-family="Times,serif" font-size="14.00" fill="#000000">timeslot :character varying</text>
<text text-anchor="start" x="253" y="-83.3" font-family="Times,serif" font-size="14.00" fill="#000000">transport_type :character varying</text>
<text text-anchor="start" x="253" y="-68.3" font-family="Times,serif" font-size="14.00" fill="#000000">need_english :boolean</text>
<text text-anchor="start" x="253" y="-53.3" font-family="Times,serif" font-size="14.00" fill="#000000">need_cart :boolean</text>
<text text-anchor="start" x="253" y="-38.3" font-family="Times,serif" font-size="14.00" fill="#000000">need_carry :boolean</text>
<text text-anchor="start" x="253" y="-23.3" font-family="Times,serif" font-size="14.00" fill="#000000">need_over_6ft :boolean</text>
<text text-anchor="start" x="253" y="-8.3" font-family="Times,serif" font-size="14.00" fill="#000000">remove_net :character varying</text>
</g>
<!-- Order -->
<g id="node3" class="node">
<title>Order</title>
<path fill="none" stroke="#000000" d="M473,-203.5C473,-203.5 754,-203.5 754,-203.5 760,-203.5 766,-209.5 766,-215.5 766,-215.5 766,-402.5 766,-402.5 766,-408.5 760,-414.5 754,-414.5 754,-414.5 473,-414.5 473,-414.5 467,-414.5 461,-408.5 461,-402.5 461,-402.5 461,-215.5 461,-215.5 461,-209.5 467,-203.5 473,-203.5"/>
<text text-anchor="middle" x="613.5" y="-399.3" font-family="Times,serif" font-size="14.00" fill="#000000">Order</text>
<polyline fill="none" stroke="#000000" points="461,-391.5 766,-391.5 "/>
<text text-anchor="start" x="469" y="-376.3" font-family="Times,serif" font-size="14.00" fill="#000000">status :character varying</text>
<text text-anchor="start" x="469" y="-361.3" font-family="Times,serif" font-size="14.00" fill="#000000">code :character varying</text>
<text text-anchor="start" x="469" y="-346.3" font-family="Times,serif" font-size="14.00" fill="#000000">detail_type :character varying</text>
<text text-anchor="start" x="469" y="-331.3" font-family="Times,serif" font-size="14.00" fill="#000000">description :text</text>
<text text-anchor="start" x="469" y="-316.3" font-family="Times,serif" font-size="14.00" fill="#000000">state :character varying</text>
<text text-anchor="start" x="469" y="-301.3" font-family="Times,serif" font-size="14.00" fill="#000000">purpose_description :text</text>
<text text-anchor="start" x="469" y="-286.3" font-family="Times,serif" font-size="14.00" fill="#000000">processed_at :timestamp without time zone</text>
<text text-anchor="start" x="469" y="-271.3" font-family="Times,serif" font-size="14.00" fill="#000000">process_completed_at :timestamp without time zone</text>
<text text-anchor="start" x="469" y="-256.3" font-family="Times,serif" font-size="14.00" fill="#000000">cancelled_at :timestamp without time zone</text>
<text text-anchor="start" x="469" y="-241.3" font-family="Times,serif" font-size="14.00" fill="#000000">closed_at :timestamp without time zone</text>
<text text-anchor="start" x="469" y="-226.3" font-family="Times,serif" font-size="14.00" fill="#000000">dispatch_started_at :timestamp without time zone</text>
<text text-anchor="start" x="469" y="-211.3" font-family="Times,serif" font-size="14.00" fill="#000000">submitted_at :timestamp without time zone</text>
</g>
<!-- Order&#45;&gt;OrdersPackage -->
<g id="edge4" class="edge">
<title>Order&#45;&gt;OrdersPackage</title>
<path fill="none" stroke="#a52e3a" d="M452.7294,-248.9672C384.5775,-221.8004 305.0052,-187.7792 235.5,-152 216.719,-142.3321 197.0194,-130.7483 179.062,-119.5727"/>
<ellipse fill="none" stroke="#a52e3a" cx="456.8396" cy="-250.6003" rx="4" ry="4"/>
<polygon fill="#a52e3a" stroke="#a52e3a" points="178.8657,-119.4494 172.7921,-110.319 174.6319,-116.7894 170.3982,-114.1294 170.3982,-114.1294 170.3982,-114.1294 174.6319,-116.7894 168.0042,-117.9398 178.8657,-119.4494 178.8657,-119.4494"/>
</g>
<!-- Order&#45;&gt;OrderTransport -->
<g id="edge7" class="edge">
<title>Order&#45;&gt;OrderTransport</title>
<path fill="none" stroke="#ef3b40" d="M484.9656,-198.0795C468.8723,-184.1916 452.6562,-170.1978 437.235,-156.8898"/>
<ellipse fill="none" stroke="#ef3b40" cx="488.1115" cy="-200.7943" rx="4" ry="4"/>
<ellipse fill="#ef3b40" stroke="#ef3b40" cx="434.1663" cy="-154.2416" rx="4" ry="4"/>
</g>
<!-- OrdersPurpose -->
<g id="node4" class="node">
<title>OrdersPurpose</title>
<path fill="none" stroke="#000000" d="M472,-52.5C472,-52.5 545,-52.5 545,-52.5 551,-52.5 557,-58.5 557,-64.5 557,-64.5 557,-87.5 557,-87.5 557,-93.5 551,-99.5 545,-99.5 545,-99.5 472,-99.5 472,-99.5 466,-99.5 460,-93.5 460,-87.5 460,-87.5 460,-64.5 460,-64.5 460,-58.5 466,-52.5 472,-52.5"/>
<text text-anchor="middle" x="508.5" y="-84.3" font-family="Times,serif" font-size="14.00" fill="#000000">OrdersPurpose</text>
<polyline fill="none" stroke="#000000" points="460,-76.5 557,-76.5 "/>
</g>
<!-- Order&#45;&gt;OrdersPurpose -->
<g id="edge5" class="edge">
<title>Order&#45;&gt;OrdersPurpose</title>
<path fill="none" stroke="#549dca" d="M562.4273,-195.6673C548.1032,-163.8814 533.6373,-131.7809 523.2991,-108.8399"/>
<ellipse fill="none" stroke="#549dca" cx="564.272" cy="-199.7608" rx="4" ry="4"/>
<polygon fill="#549dca" stroke="#549dca" points="523.2422,-108.7135 523.2363,-97.7476 521.1879,-104.155 519.1336,-99.5965 519.1336,-99.5965 519.1336,-99.5965 521.1879,-104.155 515.031,-101.4454 523.2422,-108.7135 523.2422,-108.7135"/>
</g>
<!-- Version -->
<g id="node6" class="node">
<title>Version</title>
<ellipse fill="none" stroke="#000000" cx="613.5" cy="-76" rx="38.1938" ry="18"/>
<text text-anchor="middle" x="613.5" y="-72.3" font-family="Times,serif" font-size="14.00" fill="#000000">Version</text>
</g>
<!-- Order&#45;&gt;Version -->
<g id="edge1" class="edge">
<title>Order&#45;&gt;Version</title>
<path fill="none" stroke="#176627" d="M613.5,-195.0895C613.5,-161.3882 613.5,-127.3979 613.5,-104.4069"/>
<ellipse fill="none" stroke="#176627" cx="613.5" cy="-199.4077" rx="4" ry="4"/>
<polygon fill="#176627" stroke="#176627" points="613.5001,-104.3561 618,-94.356 613.5,-99.3561 613.5,-94.3561 613.5,-94.3561 613.5,-94.3561 613.5,-99.3561 609,-94.3561 613.5001,-104.3561 613.5001,-104.3561"/>
</g>
<!-- Package -->
<g id="node7" class="node">
<title>Package</title>
<ellipse fill="none" stroke="#000000" cx="710.5" cy="-76" rx="40.0939" ry="18"/>
<text text-anchor="middle" x="710.5" y="-72.3" font-family="Times,serif" font-size="14.00" fill="#000000">Package</text>
</g>
<!-- Order&#45;&gt;Package -->
<g id="edge2" class="edge">
<title>Order&#45;&gt;Package</title>
<path fill="none" stroke="#8f0102" d="M658.7234,-195.9756C662.3401,-187.1741 665.9623,-178.4347 669.5,-170 678.9564,-147.454 690.0649,-122.0488 698.3321,-103.339"/>
<ellipse fill="none" stroke="#8f0102" cx="657.206" cy="-199.677" rx="4" ry="4"/>
<polygon fill="#8f0102" stroke="#8f0102" points="698.4385,-103.0988 706.6027,-95.7779 700.4633,-98.5271 702.4882,-93.9555 702.4882,-93.9555 702.4882,-93.9555 700.4633,-98.5271 698.3737,-92.1331 698.4385,-103.0988 698.4385,-103.0988"/>
</g>
<!-- Order&#45;&gt;Package -->
<g id="edge6" class="edge">
<title>Order&#45;&gt;Package</title>
<path fill="none" stroke="#2ab131" d="M665.6995,-194.0982C666.9902,-191.0385 668.2592,-188.0016 669.5,-185 680.8865,-157.4549 692.7553,-125.4875 700.7749,-103.3258"/>
<polygon fill="#2ab131" stroke="#2ab131" points="665.6851,-194.132 657.6284,-201.5711 663.7271,-198.7327 661.769,-203.3334 661.769,-203.3334 661.769,-203.3334 663.7271,-198.7327 665.9096,-205.0956 665.6851,-194.132 665.6851,-194.132"/>
<polygon fill="#2ab131" stroke="#2ab131" points="700.7865,-103.2935 708.4073,-95.4085 702.4798,-98.589 704.1732,-93.8845 704.1732,-93.8845 704.1732,-93.8845 702.4798,-98.589 699.9391,-92.3604 700.7865,-103.2935 700.7865,-103.2935"/>
<text text-anchor="middle" x="714" y="-173.8" font-family="Times,serif" font-size="14.00" fill="#000000">cart_packages</text>
</g>
<!-- Purpose -->
<g id="node8" class="node">
<title>Purpose</title>
<ellipse fill="none" stroke="#000000" cx="807.5" cy="-76" rx="38.9931" ry="18"/>
<text text-anchor="middle" x="807.5" y="-72.3" font-family="Times,serif" font-size="14.00" fill="#000000">Purpose</text>
</g>
<!-- Order&#45;&gt;Purpose -->
<g id="edge3" class="edge">
<title>Order&#45;&gt;Purpose</title>
<path fill="none" stroke="#70b4a1" d="M748.095,-195.5925C751.0004,-192.0952 753.8088,-188.562 756.5,-185 775.4799,-159.879 789.7871,-126.562 798.3459,-103.4037"/>
<polygon fill="#70b4a1" stroke="#70b4a1" points="748.0931,-195.5948 738.1697,-200.2613 744.8402,-199.3919 741.5872,-203.189 741.5872,-203.189 741.5872,-203.189 744.8402,-199.3919 745.0046,-206.1167 748.0931,-195.5948 748.0931,-195.5948"/>
<polygon fill="#70b4a1" stroke="#70b4a1" points="798.3954,-103.265 806.0013,-95.3655 800.0799,-98.5572 801.7643,-93.8495 801.7643,-93.8495 801.7643,-93.8495 800.0799,-98.5572 797.5274,-92.3335 798.3954,-103.265 798.3954,-103.265"/>
</g>
<!-- StockitLocalOrder -->
<g id="node5" class="node">
<title>StockitLocalOrder</title>
<path fill="none" stroke="#000000" d="M516.5,-452.5C516.5,-452.5 710.5,-452.5 710.5,-452.5 716.5,-452.5 722.5,-458.5 722.5,-464.5 722.5,-464.5 722.5,-531.5 722.5,-531.5 722.5,-537.5 716.5,-543.5 710.5,-543.5 710.5,-543.5 516.5,-543.5 516.5,-543.5 510.5,-543.5 504.5,-537.5 504.5,-531.5 504.5,-531.5 504.5,-464.5 504.5,-464.5 504.5,-458.5 510.5,-452.5 516.5,-452.5"/>
<text text-anchor="middle" x="613.5" y="-528.3" font-family="Times,serif" font-size="14.00" fill="#000000">StockitLocalOrder</text>
<polyline fill="none" stroke="#000000" points="504.5,-520.5 722.5,-520.5 "/>
<text text-anchor="start" x="512.5" y="-505.3" font-family="Times,serif" font-size="14.00" fill="#000000">client_name :character varying</text>
<text text-anchor="start" x="512.5" y="-490.3" font-family="Times,serif" font-size="14.00" fill="#000000">hkid_number :character varying</text>
<text text-anchor="start" x="512.5" y="-475.3" font-family="Times,serif" font-size="14.00" fill="#000000">reference_number :character varying</text>
<text text-anchor="start" x="512.5" y="-460.3" font-family="Times,serif" font-size="14.00" fill="#000000">purpose_of_goods :text</text>
</g>
<!-- StockitLocalOrder&#45;&gt;Order -->
<g id="edge8" class="edge">
<title>StockitLocalOrder&#45;&gt;Order</title>
<path fill="none" stroke="#2382c9" d="M613.5,-444.1825C613.5,-437.2895 613.5,-430.0397 613.5,-422.6259"/>
<ellipse fill="none" stroke="#2382c9" cx="613.5" cy="-448.2484" rx="4" ry="4"/>
<ellipse fill="#2382c9" stroke="#2382c9" cx="613.5" cy="-418.5259" rx="4" ry="4"/>
</g>
</g>
</svg>
