<?xml version="1.0" encoding="UTF-8" standalone="no"?>
<!DOCTYPE svg PUBLIC "-//W3C//DTD SVG 1.1//EN"
 "http://www.w3.org/Graphics/SVG/1.1/DTD/svg11.dtd">
<!-- Generated by graphviz version 2.26.3 (20100126.1600)
 -->
<!-- Title: models_diagram Pages: 1 -->
<svg width="961pt" height="398pt"
 viewBox="0.00 0.00 961.01 398.00" xmlns="http://www.w3.org/2000/svg" xmlns:xlink="http://www.w3.org/1999/xlink">
<g id="graph1" class="graph" transform="scale(1 1) rotate(0) translate(4 394)">
<title>models_diagram</title>
<polygon fill="white" stroke="white" points="-4,5 -4,-394 958.005,-394 958.005,5 -4,5"/>
<!-- _diagram_info -->
<g id="node1" class="node"><title>_diagram_info</title>
<text text-anchor="start" x="174.005" y="-373.8" font-family="Times Roman,serif" font-size="13.00">Models diagram</text>
<text text-anchor="start" x="174.005" y="-356.8" font-family="Times Roman,serif" font-size="13.00">Date: Jul 03 2014 &#45; 17:25</text>
<text text-anchor="start" x="174.005" y="-339.8" font-family="Times Roman,serif" font-size="13.00">Migration version: 20140628072714</text>
<text text-anchor="start" x="174.005" y="-322.8" font-family="Times Roman,serif" font-size="13.00">Generated by RailRoady 1.1.1</text>
<text text-anchor="start" x="174.005" y="-305.8" font-family="Times Roman,serif" font-size="13.00">http://railroady.prestonlee.com</text>
</g>
<!-- User -->
<g id="node2" class="node"><title>User</title>
<ellipse fill="none" stroke="black" cx="327.005" cy="-241" rx="33.9411" ry="18.3848"/>
<text text-anchor="middle" x="327.005" y="-237.4" font-family="Times Roman,serif" font-size="14.00">User</text>
</g>
<!-- Offer -->
<g id="node3" class="node"><title>Offer</title>
<ellipse fill="none" stroke="black" cx="472.005" cy="-167" rx="36.7696" ry="18.3848"/>
<text text-anchor="middle" x="472.005" y="-163.4" font-family="Times Roman,serif" font-size="14.00">Offer</text>
</g>
<!-- User&#45;&gt;Offer -->
<g id="edge2" class="edge"><title>User&#45;&gt;Offer</title>
<path fill="none" stroke="#5db935" d="M359.342,-224.497C382.38,-212.74 413.323,-196.949 436.951,-184.89"/>
<ellipse fill="none" stroke="#5db935" cx="355.495" cy="-226.461" rx="4.00002" ry="4.00002"/>
<polygon fill="#5db935" stroke="#5db935" points="437.031,-184.849 447.984,-184.311 441.485,-182.576 445.938,-180.303 445.938,-180.303 445.938,-180.303 441.485,-182.576 443.893,-176.295 437.031,-184.849 437.031,-184.849"/>
</g>
<!-- Permission -->
<g id="node4" class="node"><title>Permission</title>
<ellipse fill="none" stroke="black" cx="118.005" cy="-167" rx="63.1385" ry="18.3848"/>
<text text-anchor="middle" x="118.005" y="-163.4" font-family="Times Roman,serif" font-size="14.00">Permission</text>
</g>
<!-- User&#45;&gt;Permission -->
<g id="edge8" class="edge"><title>User&#45;&gt;Permission</title>
<path fill="none" stroke="#9766d6" d="M288.49,-227.363C254.588,-215.359 205.005,-197.804 168.041,-184.716"/>
<polygon fill="#9766d6" stroke="#9766d6" points="288.957,-227.528 296.881,-235.108 293.67,-229.197 298.383,-230.866 298.383,-230.866 298.383,-230.866 293.67,-229.197 299.885,-226.624 288.957,-227.528 288.957,-227.528"/>
<polygon fill="#9766d6" stroke="#9766d6" points="167.88,-184.659 159.956,-177.079 163.167,-182.99 158.454,-181.321 158.454,-181.321 158.454,-181.321 163.167,-182.99 156.952,-185.563 167.88,-184.659 167.88,-184.659"/>
</g>
<!-- Message -->
<g id="node6" class="node"><title>Message</title>
<ellipse fill="none" stroke="black" cx="295.005" cy="-19" rx="53.033" ry="18.3848"/>
<text text-anchor="middle" x="295.005" y="-15.4" font-family="Times Roman,serif" font-size="14.00">Message</text>
</g>
<!-- User&#45;&gt;Message -->
<g id="edge4" class="edge"><title>User&#45;&gt;Message</title>
<path fill="none" stroke="#4536d0" d="M288.388,-230.269C266.529,-221.996 241.028,-208.132 228.005,-186 200.286,-138.89 241.757,-78.1632 270.787,-44.4412"/>
<ellipse fill="none" stroke="#4536d0" cx="292.174" cy="-231.621" rx="4.00001" ry="4.00001"/>
<polygon fill="#4536d0" stroke="#4536d0" points="270.859,-44.3603 280.857,-39.8552 274.173,-40.6164 277.487,-36.8725 277.487,-36.8725 277.487,-36.8725 274.173,-40.6164 274.118,-33.8898 270.859,-44.3603 270.859,-44.3603"/>
</g>
<!-- UsersPermission -->
<g id="node15" class="node"><title>UsersPermission</title>
<ellipse fill="none" stroke="black" cx="327.005" cy="-167" rx="90.0096" ry="18.3848"/>
<text text-anchor="middle" x="327.005" y="-163.4" font-family="Times Roman,serif" font-size="14.00">UsersPermission</text>
</g>
<!-- User&#45;&gt;UsersPermission -->
<g id="edge6" class="edge"><title>User&#45;&gt;UsersPermission</title>
<path fill="none" stroke="#43b1d9" d="M327.005,-214.309C327.005,-208.377 327.005,-202.061 327.005,-196.04"/>
<ellipse fill="none" stroke="#43b1d9" cx="327.006" cy="-218.327" rx="4" ry="4"/>
<polygon fill="#43b1d9" stroke="#43b1d9" points="327.006,-195.667 331.505,-185.667 327.006,-190.667 327.005,-185.667 327.005,-185.667 327.005,-185.667 327.006,-190.667 322.505,-185.667 327.006,-195.667 327.006,-195.667"/>
</g>
<!-- Item -->
<g id="node5" class="node"><title>Item</title>
<ellipse fill="none" stroke="black" cx="661.005" cy="-93" rx="33.9411" ry="18.3848"/>
<text text-anchor="middle" x="661.005" y="-89.4" font-family="Times Roman,serif" font-size="14.00">Item</text>
</g>
<!-- Offer&#45;&gt;Item -->
<g id="edge14" class="edge"><title>Offer&#45;&gt;Item</title>
<path fill="none" stroke="#9e6a91" d="M508.287,-151.917C511.569,-150.582 514.845,-149.26 518.005,-148 553.589,-133.811 594.394,-118.179 623.284,-107.219"/>
<ellipse fill="none" stroke="#9e6a91" cx="504.373" cy="-153.518" rx="4.00001" ry="4.00001"/>
<polygon fill="#9e6a91" stroke="#9e6a91" points="623.626,-107.09 634.571,-107.756 628.301,-105.319 632.977,-103.548 632.977,-103.548 632.977,-103.548 628.301,-105.319 631.383,-99.3394 623.626,-107.09 623.626,-107.09"/>
</g>
<!-- Offer&#45;&gt;Message -->
<g id="edge12" class="edge"><title>Offer&#45;&gt;Message</title>
<path fill="none" stroke="#35ab7a" d="M446.47,-145.648C413.781,-118.315 357.321,-71.1053 323.338,-42.6908"/>
<ellipse fill="none" stroke="#35ab7a" cx="449.658" cy="-148.314" rx="4.00002" ry="4.00002"/>
<polygon fill="#35ab7a" stroke="#35ab7a" points="323.294,-42.654 318.509,-32.7871 319.459,-39.4467 315.623,-36.2393 315.623,-36.2393 315.623,-36.2393 319.459,-39.4467 312.736,-39.6915 323.294,-42.654 323.294,-42.654"/>
</g>
<!-- PermissionsUser -->
<g id="node23" class="node"><title>PermissionsUser</title>
<ellipse fill="none" stroke="black" cx="105.005" cy="-93" rx="90.0096" ry="18.3848"/>
<text text-anchor="middle" x="105.005" y="-89.4" font-family="Times Roman,serif" font-size="14.00">PermissionsUser</text>
</g>
<!-- Permission&#45;&gt;PermissionsUser -->
<g id="edge18" class="edge"><title>Permission&#45;&gt;PermissionsUser</title>
<path fill="none" stroke="#06bea4" d="M113.316,-140.309C112.248,-134.229 111.109,-127.745 110.028,-121.589"/>
<ellipse fill="none" stroke="#06bea4" cx="114.033" cy="-144.387" rx="4.00001" ry="4.00001"/>
<polygon fill="#06bea4" stroke="#06bea4" points="110.015,-121.517 112.717,-110.889 109.15,-116.592 108.285,-111.667 108.285,-111.667 108.285,-111.667 109.15,-116.592 103.853,-112.446 110.015,-121.517 110.015,-121.517"/>
</g>
<!-- Item&#45;&gt;Message -->
<g id="edge22" class="edge"><title>Item&#45;&gt;Message</title>
<path fill="none" stroke="#10f837" d="M620.854,-84.8819C555.449,-71.658 425.741,-45.4329 351.213,-30.3643"/>
<ellipse fill="none" stroke="#10f837" cx="624.926" cy="-85.7051" rx="4.00001" ry="4.00001"/>
<polygon fill="#10f837" stroke="#10f837" points="350.877,-30.2965 341.967,-23.9039 345.976,-29.3055 341.075,-28.3146 341.075,-28.3146 341.075,-28.3146 345.976,-29.3055 340.183,-32.7254 350.877,-30.2965 350.877,-30.2965"/>
</g>
<!-- Package -->
<g id="node8" class="node"><title>Package</title>
<ellipse fill="none" stroke="black" cx="661.005" cy="-19" rx="51.1176" ry="18.3848"/>
<text text-anchor="middle" x="661.005" y="-15.4" font-family="Times Roman,serif" font-size="14.00">Package</text>
</g>
<!-- Item&#45;&gt;Package -->
<g id="edge26" class="edge"><title>Item&#45;&gt;Package</title>
<path fill="none" stroke="#dda775" d="M661.005,-66.309C661.005,-60.3769 661.005,-54.0606 661.005,-48.0396"/>
<ellipse fill="none" stroke="#dda775" cx="661.006" cy="-70.3267" rx="4" ry="4"/>
<polygon fill="#dda775" stroke="#dda775" points="661.006,-47.6674 665.505,-37.6673 661.006,-42.6674 661.005,-37.6674 661.005,-37.6674 661.005,-37.6674 661.006,-42.6674 656.505,-37.6674 661.006,-47.6674 661.006,-47.6674"/>
</g>
<!-- Image -->
<g id="node11" class="node"><title>Image</title>
<ellipse fill="none" stroke="black" cx="807.005" cy="-19" rx="41.2167" ry="18.3848"/>
<text text-anchor="middle" x="807.005" y="-15.4" font-family="Times Roman,serif" font-size="14.00">Image</text>
</g>
<!-- Item&#45;&gt;Image -->
<g id="edge24" class="edge"><title>Item&#45;&gt;Image</title>
<path fill="none" stroke="#ddcfde" d="M693.445,-76.558C716.257,-64.996 746.81,-49.5102 770.478,-37.5138"/>
<ellipse fill="none" stroke="#ddcfde" cx="689.672" cy="-78.4705" rx="4.00002" ry="4.00002"/>
<polygon fill="#ddcfde" stroke="#ddcfde" points="770.586,-37.4592 781.54,-36.9521 775.046,-35.1987 779.506,-32.9382 779.506,-32.9382 779.506,-32.9382 775.046,-35.1987 777.471,-28.9243 770.586,-37.4592 770.586,-37.4592"/>
</g>
<!-- RejectionReason -->
<g id="node7" class="node"><title>RejectionReason</title>
<ellipse fill="none" stroke="black" cx="695.005" cy="-241" rx="91.2168" ry="18.3848"/>
<text text-anchor="middle" x="695.005" y="-237.4" font-family="Times Roman,serif" font-size="14.00">RejectionReason</text>
</g>
<!-- RejectionReason&#45;&gt;Item -->
<g id="edge32" class="edge"><title>RejectionReason&#45;&gt;Item</title>
<path fill="none" stroke="#30cf73" d="M692.4,-214.161C690.234,-195.431 686.59,-169.956 681.005,-148 678.701,-138.941 675.47,-129.29 672.276,-120.642"/>
<ellipse fill="none" stroke="#30cf73" cx="692.854" cy="-218.279" rx="4.00001" ry="4.00001"/>
<polygon fill="#30cf73" stroke="#30cf73" points="672.178,-120.386 672.803,-109.438 670.389,-115.716 668.601,-111.047 668.601,-111.047 668.601,-111.047 670.389,-115.716 664.399,-112.657 672.178,-120.386 672.178,-120.386"/>
</g>
<!-- ItemType -->
<g id="node9" class="node"><title>ItemType</title>
<ellipse fill="none" stroke="black" cx="583.005" cy="-167" rx="56.0679" ry="18.3848"/>
<text text-anchor="middle" x="583.005" y="-163.4" font-family="Times Roman,serif" font-size="14.00">ItemType</text>
</g>
<!-- ItemType&#45;&gt;Item -->
<g id="edge38" class="edge"><title>ItemType&#45;&gt;Item</title>
<path fill="none" stroke="#d7b343" d="M607.476,-143.785C616.745,-134.991 627.292,-124.985 636.559,-116.193"/>
<ellipse fill="none" stroke="#d7b343" cx="604.392" cy="-146.71" rx="4.00002" ry="4.00002"/>
<polygon fill="#d7b343" stroke="#d7b343" points="636.731,-116.029 647.083,-112.411 640.359,-112.588 643.986,-109.147 643.986,-109.147 643.986,-109.147 640.359,-112.588 640.889,-105.882 636.731,-116.029 636.731,-116.029"/>
</g>
<!-- ItemType&#45;&gt;Package -->
<g id="edge40" class="edge"><title>ItemType&#45;&gt;Package</title>
<path fill="none" stroke="#52bf40" d="M590.541,-140.704C596.586,-121.544 606.03,-95.321 618.005,-74 623.731,-63.8055 631.248,-53.4841 638.393,-44.5791"/>
<ellipse fill="none" stroke="#52bf40" cx="589.336" cy="-144.624" rx="4.00001" ry="4.00001"/>
<polygon fill="#52bf40" stroke="#52bf40" points="638.416,-44.5509 648.256,-39.7107 641.602,-40.6972 644.787,-36.8435 644.787,-36.8435 644.787,-36.8435 641.602,-40.6972 641.319,-33.9763 638.416,-44.5509 638.416,-44.5509"/>
</g>
<!-- Ability -->
<g id="node10" class="node"><title>Ability</title>
<polygon fill="none" stroke="black" points="940.005,-259 880.005,-259 880.005,-223 940.005,-223 940.005,-259"/>
<text text-anchor="middle" x="910.005" y="-237.4" font-family="Times Roman,serif" font-size="14.00">Ability</text>
</g>
<!-- ActiveRecord::Base -->
<g id="node17" class="node"><title>ActiveRecord::Base</title>
<ellipse fill="none" stroke="black" cx="538.005" cy="-343" rx="103.945" ry="18.3848"/>
<text text-anchor="middle" x="538.005" y="-339.4" font-family="Times Roman,serif" font-size="14.00">ActiveRecord::Base</text>
</g>
<!-- ActiveRecord::Base&#45;&gt;User -->
<g id="edge10" class="edge"><title>ActiveRecord::Base&#45;&gt;User</title>
<path fill="none" stroke="black" d="M501.733,-325.466C459.197,-304.903 389.78,-271.346 352.535,-253.341"/>
</g>
<!-- ActiveRecord::Base&#45;&gt;Offer -->
<g id="edge16" class="edge"><title>ActiveRecord::Base&#45;&gt;Offer</title>
<path fill="none" stroke="black" d="M531.067,-324.498C518.358,-290.607 491.49,-218.96 478.851,-185.255"/>
</g>
<!-- ActiveRecord::Base&#45;&gt;Permission -->
<g id="edge20" class="edge"><title>ActiveRecord::Base&#45;&gt;Permission</title>
<path fill="none" stroke="black" d="M500.342,-325.731C478.612,-316.175 450.602,-304.541 425.005,-296 363.654,-275.528 344.061,-284.01 284.005,-260 231.554,-239.03 175.108,-204.58 143.407,-184.014"/>
</g>
<!-- ActiveRecord::Base&#45;&gt;Item -->
<g id="edge28" class="edge"><title>ActiveRecord::Base&#45;&gt;Item</title>
<path fill="none" stroke="black" d="M543.311,-324.47C551.276,-299.127 568.302,-253.245 595.005,-222 613.506,-200.353 632.964,-210.179 648.005,-186 662.128,-163.298 663.492,-131.516 662.647,-111.604"/>
</g>
<!-- ActiveRecord::Base&#45;&gt;Message -->
<g id="edge30" class="edge"><title>ActiveRecord::Base&#45;&gt;Message</title>
<path fill="none" stroke="black" d="M502.13,-325.57C480.287,-315.596 451.562,-303.595 425.005,-296 229.458,-240.077 55.8858,-309.176 6.00545,-112 1.86348,-95.6269 -4.76275,-87.0108 6.00545,-74 35.3948,-38.49 167.013,-25.7122 242.09,-21.2639"/>
</g>
<!-- ActiveRecord::Base&#45;&gt;RejectionReason -->
<g id="edge34" class="edge"><title>ActiveRecord::Base&#45;&gt;RejectionReason</title>
<path fill="none" stroke="black" d="M565.713,-324.999C594.41,-306.355 638.98,-277.399 667.575,-258.821"/>
</g>
<!-- ActiveRecord::Base&#45;&gt;Package -->
<g id="edge36" class="edge"><title>ActiveRecord::Base&#45;&gt;Package</title>
<path fill="none" stroke="black" d="M610.009,-329.532C678.059,-315.167 772.931,-290.326 795.005,-260 852.057,-181.622 735.006,-76.4455 683.592,-35.908"/>
</g>
<!-- ActiveRecord::Base&#45;&gt;ItemType -->
<g id="edge42" class="edge"><title>ActiveRecord::Base&#45;&gt;ItemType</title>
<path fill="none" stroke="black" d="M540.706,-324.318C544.4,-300.345 551.757,-257.604 562.005,-222 565.596,-209.526 570.792,-195.892 575.118,-185.32"/>
</g>
<!-- ActiveRecord::Base&#45;&gt;Image -->
<g id="edge46" class="edge"><title>ActiveRecord::Base&#45;&gt;Image</title>
<path fill="none" stroke="black" d="M615.121,-330.498C688.714,-316.808 791.855,-292.414 816.005,-260 866.661,-192.011 831.547,-80.7874 814.657,-37.2691"/>
</g>
<!-- Object -->
<g id="node36" class="node"><title>Object</title>
<ellipse fill="none" stroke="black" cx="910.005" cy="-343" rx="43.1335" ry="18.3848"/>
<text text-anchor="middle" x="910.005" y="-339.4" font-family="Times Roman,serif" font-size="14.00">Object</text>
</g>
<!-- Object&#45;&gt;Ability -->
<g id="edge44" class="edge"><title>Object&#45;&gt;Ability</title>
<path fill="none" stroke="black" d="M910.005,-324.292C910.005,-305.773 910.005,-277.603 910.005,-259.247"/>
</g>
</g>
</svg>
