<?xml version="1.0" encoding="UTF-8" standalone="no"?>
<!DOCTYPE svg PUBLIC "-//W3C//DTD SVG 1.1//EN"
 "http://www.w3.org/Graphics/SVG/1.1/DTD/svg11.dtd">
<!-- Generated by graphviz version 2.40.1 (20161225.0304)
 -->
<!-- Title: models_diagram Pages: 1 -->
<svg width="1336pt" height="828pt"
 viewBox="0.00 0.00 1336.14 828.00" xmlns="http://www.w3.org/2000/svg" xmlns:xlink="http://www.w3.org/1999/xlink">
<g id="graph0" class="graph" transform="scale(1 1) rotate(0) translate(4 824)">
<title>models_diagram</title>
<polygon fill="transparent" stroke="transparent" points="-4,4 -4,-824 1332.1379,-824 1332.1379,4 -4,4"/>
<!-- Package -->
<g id="node1" class="node">
<title>Package</title>
<path fill="none" stroke="#000000" d="M227.1379,-172.5C227.1379,-172.5 450.1379,-172.5 450.1379,-172.5 456.1379,-172.5 462.1379,-178.5 462.1379,-184.5 462.1379,-184.5 462.1379,-476.5 462.1379,-476.5 462.1379,-482.5 456.1379,-488.5 450.1379,-488.5 450.1379,-488.5 227.1379,-488.5 227.1379,-488.5 221.1379,-488.5 215.1379,-482.5 215.1379,-476.5 215.1379,-476.5 215.1379,-184.5 215.1379,-184.5 215.1379,-178.5 221.1379,-172.5 227.1379,-172.5"/>
<text text-anchor="middle" x="338.6379" y="-473.3" font-family="Times,serif" font-size="14.00" fill="#000000">Package</text>
<polyline fill="none" stroke="#000000" points="215.1379,-465.5 462.1379,-465.5 "/>
<text text-anchor="start" x="223.1379" y="-450.3" font-family="Times,serif" font-size="14.00" fill="#000000">quantity :integer</text>
<text text-anchor="start" x="223.1379" y="-435.3" font-family="Times,serif" font-size="14.00" fill="#000000">length :integer</text>
<text text-anchor="start" x="223.1379" y="-420.3" font-family="Times,serif" font-size="14.00" fill="#000000">width :integer</text>
<text text-anchor="start" x="223.1379" y="-405.3" font-family="Times,serif" font-size="14.00" fill="#000000">height :integer</text>
<text text-anchor="start" x="223.1379" y="-390.3" font-family="Times,serif" font-size="14.00" fill="#000000">notes :text</text>
<text text-anchor="start" x="223.1379" y="-375.3" font-family="Times,serif" font-size="14.00" fill="#000000">state :character varying</text>
<text text-anchor="start" x="223.1379" y="-360.3" font-family="Times,serif" font-size="14.00" fill="#000000">received_at :timestamp without time zone</text>
<text text-anchor="start" x="223.1379" y="-345.3" font-family="Times,serif" font-size="14.00" fill="#000000">rejected_at :timestamp without time zone</text>
<text text-anchor="start" x="223.1379" y="-330.3" font-family="Times,serif" font-size="14.00" fill="#000000">deleted_at :timestamp without time zone</text>
<text text-anchor="start" x="223.1379" y="-315.3" font-family="Times,serif" font-size="14.00" fill="#000000">inventory_number :character varying</text>
<text text-anchor="start" x="223.1379" y="-300.3" font-family="Times,serif" font-size="14.00" fill="#000000">designation_name :character varying</text>
<text text-anchor="start" x="223.1379" y="-285.3" font-family="Times,serif" font-size="14.00" fill="#000000">grade :character varying</text>
<text text-anchor="start" x="223.1379" y="-270.3" font-family="Times,serif" font-size="14.00" fill="#000000">stockit_sent_on :date</text>
<text text-anchor="start" x="223.1379" y="-255.3" font-family="Times,serif" font-size="14.00" fill="#000000">stockit_designated_on :date</text>
<text text-anchor="start" x="223.1379" y="-240.3" font-family="Times,serif" font-size="14.00" fill="#000000">stockit_moved_on :date</text>
<text text-anchor="start" x="223.1379" y="-225.3" font-family="Times,serif" font-size="14.00" fill="#000000">saleable :boolean</text>
<text text-anchor="start" x="223.1379" y="-210.3" font-family="Times,serif" font-size="14.00" fill="#000000">case_number :character varying</text>
<text text-anchor="start" x="223.1379" y="-195.3" font-family="Times,serif" font-size="14.00" fill="#000000">allow_web_publish :boolean</text>
<text text-anchor="start" x="223.1379" y="-180.3" font-family="Times,serif" font-size="14.00" fill="#000000">received_quantity :integer</text>
</g>
<!-- PackagesLocation -->
<g id="node6" class="node">
<title>PackagesLocation</title>
<path fill="none" stroke="#000000" d="M457.1379,-73.5C457.1379,-73.5 654.1379,-73.5 654.1379,-73.5 660.1379,-73.5 666.1379,-79.5 666.1379,-85.5 666.1379,-85.5 666.1379,-122.5 666.1379,-122.5 666.1379,-128.5 660.1379,-134.5 654.1379,-134.5 654.1379,-134.5 457.1379,-134.5 457.1379,-134.5 451.1379,-134.5 445.1379,-128.5 445.1379,-122.5 445.1379,-122.5 445.1379,-85.5 445.1379,-85.5 445.1379,-79.5 451.1379,-73.5 457.1379,-73.5"/>
<text text-anchor="middle" x="555.6379" y="-119.3" font-family="Times,serif" font-size="14.00" fill="#000000">PackagesLocation</text>
<polyline fill="none" stroke="#000000" points="445.1379,-111.5 666.1379,-111.5 "/>
<text text-anchor="start" x="453.1379" y="-96.3" font-family="Times,serif" font-size="14.00" fill="#000000">quantity :integer</text>
<text text-anchor="start" x="453.1379" y="-81.3" font-family="Times,serif" font-size="14.00" fill="#000000">reference_to_orders_package :integer</text>
</g>
<!-- Package&#45;&gt;PackagesLocation -->
<g id="edge3" class="edge">
<title>Package&#45;&gt;PackagesLocation</title>
<path fill="none" stroke="#271383" d="M467.9074,-195.5712C486.6126,-176.0471 504.4622,-157.416 519.119,-142.1176"/>
<ellipse fill="none" stroke="#271383" cx="465.1182" cy="-198.4825" rx="4" ry="4"/>
<polygon fill="#271383" stroke="#271383" points="519.1294,-142.1068 529.2968,-137.999 522.5884,-138.4963 526.0474,-134.8859 526.0474,-134.8859 526.0474,-134.8859 522.5884,-138.4963 522.798,-131.7727 519.1294,-142.1068 519.1294,-142.1068"/>
</g>
<!-- Version -->
<g id="node7" class="node">
<title>Version</title>
<ellipse fill="none" stroke="#000000" cx="416.6379" cy="-18" rx="38.1938" ry="18"/>
<text text-anchor="middle" x="416.6379" y="-14.3" font-family="Times,serif" font-size="14.00" fill="#000000">Version</text>
</g>
<!-- Package&#45;&gt;Version -->
<g id="edge1" class="edge">
<title>Package&#45;&gt;Version</title>
<path fill="none" stroke="#2d2be6" d="M390.4091,-164.3228C392.9843,-154.436 395.4182,-144.608 397.6379,-135 404.5872,-104.9196 409.9167,-69.9139 413.1383,-46.0861"/>
<ellipse fill="none" stroke="#2d2be6" cx="389.3352" cy="-168.3936" rx="4" ry="4"/>
<polygon fill="#2d2be6" stroke="#2d2be6" points="413.1631,-45.897 418.9299,-36.57 413.8157,-40.9398 414.4684,-35.9826 414.4684,-35.9826 414.4684,-35.9826 413.8157,-40.9398 410.0069,-35.3952 413.1631,-45.897 413.1631,-45.897"/>
</g>
<!-- Location -->
<g id="node8" class="node">
<title>Location</title>
<ellipse fill="none" stroke="#000000" cx="200.6379" cy="-104" rx="42.4939" ry="18"/>
<text text-anchor="middle" x="200.6379" y="-100.3" font-family="Times,serif" font-size="14.00" fill="#000000">Location</text>
</g>
<!-- Package&#45;&gt;Location -->
<g id="edge2" class="edge">
<title>Package&#45;&gt;Location</title>
<path fill="none" stroke="#113118" d="M236.8211,-163.3877C229.216,-150.9055 222.3043,-139.5613 216.607,-130.2102"/>
<polygon fill="#113118" stroke="#113118" points="237.0265,-163.7248 238.3866,-174.606 239.628,-167.9947 242.2296,-172.2646 242.2296,-172.2646 242.2296,-172.2646 239.628,-167.9947 246.0725,-169.9232 237.0265,-163.7248 237.0265,-163.7248"/>
<polygon fill="#113118" stroke="#113118" points="216.5369,-130.095 215.1767,-119.2138 213.9353,-125.8251 211.3338,-121.5552 211.3338,-121.5552 211.3338,-121.5552 213.9353,-125.8251 207.4909,-123.8966 216.5369,-130.095 216.5369,-130.095"/>
</g>
<!-- Image -->
<g id="node9" class="node">
<title>Image</title>
<ellipse fill="none" stroke="#000000" cx="107.6379" cy="-104" rx="33.2948" ry="18"/>
<text text-anchor="middle" x="107.6379" y="-100.3" font-family="Times,serif" font-size="14.00" fill="#000000">Image</text>
</g>
<!-- Package&#45;&gt;Image -->
<g id="edge4" class="edge">
<title>Package&#45;&gt;Image</title>
<path fill="none" stroke="#4321d2" d="M208.814,-174.8607C207.7565,-173.8989 206.6977,-172.9451 205.6379,-172 183.3742,-152.1454 174.0911,-152.0855 149.6379,-135 144.9947,-131.7558 140.1153,-128.248 135.3918,-124.7986"/>
<ellipse fill="none" stroke="#4321d2" cx="211.9208" cy="-177.7372" rx="4" ry="4"/>
<polygon fill="#4321d2" stroke="#4321d2" points="135.1941,-124.653 129.8113,-115.0991 131.1683,-121.6876 127.1425,-118.7223 127.1425,-118.7223 127.1425,-118.7223 131.1683,-121.6876 124.4737,-122.3455 135.1941,-124.653 135.1941,-124.653"/>
</g>
<!-- OrdersPackage -->
<g id="node10" class="node">
<title>OrdersPackage</title>
<ellipse fill="none" stroke="#000000" cx="324.6379" cy="-104" rx="63.8893" ry="18"/>
<text text-anchor="middle" x="324.6379" y="-100.3" font-family="Times,serif" font-size="14.00" fill="#000000">OrdersPackage</text>
</g>
<!-- Package&#45;&gt;OrdersPackage -->
<g id="edge5" class="edge">
<title>Package&#45;&gt;OrdersPackage</title>
<path fill="none" stroke="#7281b1" d="M328.3445,-163.9679C327.6153,-152.1698 326.9478,-141.371 326.3863,-132.2875"/>
<ellipse fill="none" stroke="#7281b1" cx="328.6105" cy="-168.2722" rx="4" ry="4"/>
<polygon fill="#7281b1" stroke="#7281b1" points="326.374,-132.0874 330.2485,-121.8288 326.0655,-127.0969 325.757,-122.1064 325.757,-122.1064 325.757,-122.1064 326.0655,-127.0969 321.2656,-122.3841 326.374,-132.0874 326.374,-132.0874"/>
</g>
<!-- Pallet -->
<g id="node2" class="node">
<title>Pallet</title>
<path fill="none" stroke="#000000" d="M1143.1379,-721C1143.1379,-721 1316.1379,-721 1316.1379,-721 1322.1379,-721 1328.1379,-727 1328.1379,-733 1328.1379,-733 1328.1379,-785 1328.1379,-785 1328.1379,-791 1322.1379,-797 1316.1379,-797 1316.1379,-797 1143.1379,-797 1143.1379,-797 1137.1379,-797 1131.1379,-791 1131.1379,-785 1131.1379,-785 1131.1379,-733 1131.1379,-733 1131.1379,-727 1137.1379,-721 1143.1379,-721"/>
<text text-anchor="middle" x="1229.6379" y="-781.8" font-family="Times,serif" font-size="14.00" fill="#000000">Pallet</text>
<polyline fill="none" stroke="#000000" points="1131.1379,-774 1328.1379,-774 "/>
<text text-anchor="start" x="1139.1379" y="-758.8" font-family="Times,serif" font-size="14.00" fill="#000000">pallet_number :character varying</text>
<text text-anchor="start" x="1139.1379" y="-743.8" font-family="Times,serif" font-size="14.00" fill="#000000">description :character varying</text>
<text text-anchor="start" x="1139.1379" y="-728.8" font-family="Times,serif" font-size="14.00" fill="#000000">comments :text</text>
</g>
<!-- Pallet&#45;&gt;Package -->
<g id="edge6" class="edge">
<title>Pallet&#45;&gt;Package</title>
<path fill="none" stroke="#e50aa2" d="M1239.8791,-712.7451C1247.7905,-663.8553 1251.4413,-587.3973 1210.6379,-540 1115.4724,-429.4557 692.483,-368.5004 472.5282,-343.7628"/>
<ellipse fill="none" stroke="#e50aa2" cx="1239.2009" cy="-716.7017" rx="4" ry="4"/>
<polygon fill="#e50aa2" stroke="#e50aa2" points="472.4707,-343.7564 463.0313,-338.1755 467.5015,-343.2021 462.5324,-342.6478 462.5324,-342.6478 462.5324,-342.6478 467.5015,-343.2021 462.0335,-347.12 472.4707,-343.7564 472.4707,-343.7564"/>
</g>
<!-- Box -->
<g id="node3" class="node">
<title>Box</title>
<path fill="none" stroke="#000000" d="M1025.6379,-555.5C1025.6379,-555.5 1189.6379,-555.5 1189.6379,-555.5 1195.6379,-555.5 1201.6379,-561.5 1201.6379,-567.5 1201.6379,-567.5 1201.6379,-619.5 1201.6379,-619.5 1201.6379,-625.5 1195.6379,-631.5 1189.6379,-631.5 1189.6379,-631.5 1025.6379,-631.5 1025.6379,-631.5 1019.6379,-631.5 1013.6379,-625.5 1013.6379,-619.5 1013.6379,-619.5 1013.6379,-567.5 1013.6379,-567.5 1013.6379,-561.5 1019.6379,-555.5 1025.6379,-555.5"/>
<text text-anchor="middle" x="1107.6379" y="-616.3" font-family="Times,serif" font-size="14.00" fill="#000000">Box</text>
<polyline fill="none" stroke="#000000" points="1013.6379,-608.5 1201.6379,-608.5 "/>
<text text-anchor="start" x="1021.6379" y="-593.3" font-family="Times,serif" font-size="14.00" fill="#000000">box_number :character varying</text>
<text text-anchor="start" x="1021.6379" y="-578.3" font-family="Times,serif" font-size="14.00" fill="#000000">description :character varying</text>
<text text-anchor="start" x="1021.6379" y="-563.3" font-family="Times,serif" font-size="14.00" fill="#000000">comments :text</text>
</g>
<!-- Pallet&#45;&gt;Box -->
<g id="edge7" class="edge">
<title>Pallet&#45;&gt;Box</title>
<path fill="none" stroke="#4158f7" d="M1196.3682,-713.8678C1179.4584,-690.9286 1158.9369,-663.09 1141.8903,-639.9654"/>
<ellipse fill="none" stroke="#4158f7" cx="1198.9685" cy="-717.3952" rx="4" ry="4"/>
<polygon fill="#4158f7" stroke="#4158f7" points="1141.714,-639.7262 1139.4025,-629.0067 1138.7472,-635.7015 1135.7803,-631.6768 1135.7803,-631.6768 1135.7803,-631.6768 1138.7472,-635.7015 1132.1581,-634.347 1141.714,-639.7262 1141.714,-639.7262"/>
</g>
<!-- Box&#45;&gt;Package -->
<g id="edge8" class="edge">
<title>Box&#45;&gt;Package</title>
<path fill="none" stroke="#6cc04e" d="M1030.9874,-551.8404C1022.2033,-547.6201 1013.2944,-543.5777 1004.6379,-540 824.683,-465.626 608.3214,-402.0974 472.1072,-365.0898"/>
<ellipse fill="none" stroke="#6cc04e" cx="1034.7334" cy="-553.6675" rx="4" ry="4"/>
<polygon fill="#6cc04e" stroke="#6cc04e" points="472.0921,-365.0857 463.6164,-358.1278 467.266,-363.7785 462.4399,-362.4712 462.4399,-362.4712 462.4399,-362.4712 467.266,-363.7785 461.2633,-366.8147 472.0921,-365.0857 472.0921,-365.0857"/>
</g>
<!-- Item -->
<g id="node4" class="node">
<title>Item</title>
<path fill="none" stroke="#000000" d="M59.6379,-540.5C59.6379,-540.5 275.6379,-540.5 275.6379,-540.5 281.6379,-540.5 287.6379,-546.5 287.6379,-552.5 287.6379,-552.5 287.6379,-634.5 287.6379,-634.5 287.6379,-640.5 281.6379,-646.5 275.6379,-646.5 275.6379,-646.5 59.6379,-646.5 59.6379,-646.5 53.6379,-646.5 47.6379,-640.5 47.6379,-634.5 47.6379,-634.5 47.6379,-552.5 47.6379,-552.5 47.6379,-546.5 53.6379,-540.5 59.6379,-540.5"/>
<text text-anchor="middle" x="167.6379" y="-631.3" font-family="Times,serif" font-size="14.00" fill="#000000">Item</text>
<polyline fill="none" stroke="#000000" points="47.6379,-623.5 287.6379,-623.5 "/>
<text text-anchor="start" x="55.6379" y="-608.3" font-family="Times,serif" font-size="14.00" fill="#000000">donor_description :text</text>
<text text-anchor="start" x="55.6379" y="-593.3" font-family="Times,serif" font-size="14.00" fill="#000000">state :character varying</text>
<text text-anchor="start" x="55.6379" y="-578.3" font-family="Times,serif" font-size="14.00" fill="#000000">reject_reason :character varying</text>
<text text-anchor="start" x="55.6379" y="-563.3" font-family="Times,serif" font-size="14.00" fill="#000000">deleted_at :timestamp without time zone</text>
<text text-anchor="start" x="55.6379" y="-548.3" font-family="Times,serif" font-size="14.00" fill="#000000">rejection_comments :text</text>
</g>
<!-- Item&#45;&gt;Package -->
<g id="edge12" class="edge">
<title>Item&#45;&gt;Package</title>
<path fill="none" stroke="#910088" d="M182.558,-532.7145C185.6829,-523.8568 189.3581,-515.0265 193.6379,-507 195.6451,-503.2355 201.0745,-495.7496 208.7188,-485.8998"/>
<ellipse fill="none" stroke="#910088" cx="181.2238" cy="-536.6936" rx="4" ry="4"/>
<polygon fill="#910088" stroke="#910088" points="208.8011,-485.795 218.5157,-480.7081 211.8886,-481.8621 214.9762,-477.9293 214.9762,-477.9293 214.9762,-477.9293 211.8886,-481.8621 211.4366,-475.1505 208.8011,-485.795 208.8011,-485.795"/>
</g>
<!-- Item&#45;&gt;Package -->
<g id="edge13" class="edge">
<title>Item&#45;&gt;Package</title>
<path fill="none" stroke="#3a423a" d="M198.4347,-533.194C203.3394,-524.3057 208.4962,-515.3397 213.6379,-507 215.6269,-503.7738 217.6535,-500.5276 219.7114,-497.2681"/>
<ellipse fill="none" stroke="#3a423a" cx="196.4768" cy="-536.7811" rx="4" ry="4"/>
<polygon fill="#3a423a" stroke="#3a423a" points="219.8531,-497.0457 229.0229,-491.0319 222.5407,-492.8294 225.2282,-488.6131 225.2282,-488.6131 225.2282,-488.6131 222.5407,-492.8294 221.4335,-486.1943 219.8531,-497.0457 219.8531,-497.0457"/>
<text text-anchor="middle" x="268.1379" y="-510.8" font-family="Times,serif" font-size="14.00" fill="#000000">inventory_packages</text>
</g>
<!-- Item&#45;&gt;Version -->
<g id="edge9" class="edge">
<title>Item&#45;&gt;Version</title>
<path fill="none" stroke="#7f003b" d="M106.4578,-533.7116C95.9448,-520.0746 86.5232,-504.8845 80.6379,-489 16.3605,-315.5158 -54.6318,-213.5829 65.6379,-73 85.1114,-50.2374 277.1498,-30.35 368.641,-22.0818"/>
<ellipse fill="none" stroke="#7f003b" cx="109.2012" cy="-537.1506" rx="4" ry="4"/>
<polygon fill="#7f003b" stroke="#7f003b" points="368.7951,-22.0681 379.156,-25.6602 373.7753,-21.6231 378.7555,-21.1781 378.7555,-21.1781 378.7555,-21.1781 373.7753,-21.6231 378.355,-16.696 368.7951,-22.0681 368.7951,-22.0681"/>
</g>
<!-- Item&#45;&gt;Image -->
<g id="edge11" class="edge">
<title>Item&#45;&gt;Image</title>
<path fill="none" stroke="#cd19a9" d="M123.0937,-533.1712C115.0754,-519.3119 107.9142,-504.1702 103.6379,-489 67.2928,-360.0654 90.3036,-197.0594 102.0118,-132.3421"/>
<ellipse fill="none" stroke="#cd19a9" cx="125.3011" cy="-536.8622" rx="4" ry="4"/>
<polygon fill="#cd19a9" stroke="#cd19a9" points="102.0842,-131.9534 108.3405,-122.9473 103.0004,-127.038 103.9166,-122.1227 103.9166,-122.1227 103.9166,-122.1227 103.0004,-127.038 99.4928,-121.2981 102.0842,-131.9534 102.0842,-131.9534"/>
</g>
<!-- Message -->
<g id="node11" class="node">
<title>Message</title>
<ellipse fill="none" stroke="#000000" cx="154.6379" cy="-330.5" rx="42.4939" ry="18"/>
<text text-anchor="middle" x="154.6379" y="-326.8" font-family="Times,serif" font-size="14.00" fill="#000000">Message</text>
</g>
<!-- Item&#45;&gt;Message -->
<g id="edge10" class="edge">
<title>Item&#45;&gt;Message</title>
<path fill="none" stroke="#4800b7" d="M164.6015,-532.0726C161.9027,-477.4735 158.0786,-400.1079 156.0421,-358.9083"/>
<ellipse fill="none" stroke="#4800b7" cx="164.8096" cy="-536.2829" rx="4" ry="4"/>
<polygon fill="#4800b7" stroke="#4800b7" points="156.0348,-358.7596 160.0356,-348.5496 155.7879,-353.7657 155.541,-348.7718 155.541,-348.7718 155.541,-348.7718 155.7879,-353.7657 151.0465,-348.994 156.0348,-358.7596 156.0348,-358.7596"/>
</g>
<!-- PackageType -->
<g id="node5" class="node">
<title>PackageType</title>
<path fill="none" stroke="#000000" d="M426.6379,-698.5C426.6379,-698.5 626.6379,-698.5 626.6379,-698.5 632.6379,-698.5 638.6379,-704.5 638.6379,-710.5 638.6379,-710.5 638.6379,-807.5 638.6379,-807.5 638.6379,-813.5 632.6379,-819.5 626.6379,-819.5 626.6379,-819.5 426.6379,-819.5 426.6379,-819.5 420.6379,-819.5 414.6379,-813.5 414.6379,-807.5 414.6379,-807.5 414.6379,-710.5 414.6379,-710.5 414.6379,-704.5 420.6379,-698.5 426.6379,-698.5"/>
<text text-anchor="middle" x="526.6379" y="-804.3" font-family="Times,serif" font-size="14.00" fill="#000000">PackageType</text>
<polyline fill="none" stroke="#000000" points="414.6379,-796.5 638.6379,-796.5 "/>
<text text-anchor="start" x="422.6379" y="-781.3" font-family="Times,serif" font-size="14.00" fill="#000000">code :character varying</text>
<text text-anchor="start" x="422.6379" y="-766.3" font-family="Times,serif" font-size="14.00" fill="#000000">name_en :character varying</text>
<text text-anchor="start" x="422.6379" y="-751.3" font-family="Times,serif" font-size="14.00" fill="#000000">name_zh_tw :character varying</text>
<text text-anchor="start" x="422.6379" y="-736.3" font-family="Times,serif" font-size="14.00" fill="#000000">other_terms_en :character varying</text>
<text text-anchor="start" x="422.6379" y="-721.3" font-family="Times,serif" font-size="14.00" fill="#000000">other_terms_zh_tw :character varying</text>
<text text-anchor="start" x="422.6379" y="-706.3" font-family="Times,serif" font-size="14.00" fill="#000000">visible_in_selects :boolean</text>
</g>
<!-- PackageType&#45;&gt;Package -->
<g id="edge21" class="edge">
<title>PackageType&#45;&gt;Package</title>
<path fill="none" stroke="#bc3cec" d="M407.3773,-721.1875C389.4842,-710.5569 373.1886,-697.0666 361.6379,-680 341.4557,-650.1801 335.0244,-573.1528 333.9405,-498.9778"/>
<ellipse fill="none" stroke="#bc3cec" cx="411.1003" cy="-723.2984" rx="4" ry="4"/>
<polygon fill="#bc3cec" stroke="#bc3cec" points="333.9356,-498.5349 338.3219,-488.4845 333.8789,-493.5352 333.8222,-488.5355 333.8222,-488.5355 333.8222,-488.5355 333.8789,-493.5352 329.3224,-488.5865 333.9356,-498.5349 333.9356,-498.5349"/>
</g>
<!-- PackageType&#45;&gt;Item -->
<g id="edge20" class="edge">
<title>PackageType&#45;&gt;Item</title>
<path fill="none" stroke="#11e527" d="M407.0755,-715.9123C379.0552,-704.9334 349.5381,-692.6392 322.6379,-680 304.3016,-671.3846 285.1609,-661.4896 266.8383,-651.5403"/>
<ellipse fill="none" stroke="#11e527" cx="410.8214" cy="-717.3715" rx="4" ry="4"/>
<polygon fill="#11e527" stroke="#11e527" points="266.6884,-651.4584 260.0769,-642.7097 262.3024,-649.0578 257.9163,-646.6572 257.9163,-646.6572 257.9163,-646.6572 262.3024,-649.0578 255.7558,-650.6046 266.6884,-651.4584 266.6884,-651.4584"/>
</g>
<!-- PackageType&#45;&gt;PackageType -->
<g id="edge15" class="edge">
<title>PackageType&#45;&gt;PackageType</title>
<path fill="none" stroke="#f00eae" d="M648.9578,-762.1758C653.8244,-761.3499 656.6379,-760.2913 656.6379,-759 656.6379,-757.7087 653.8244,-756.6501 648.9578,-755.8242"/>
<polygon fill="#f00eae" stroke="#f00eae" points="648.8957,-762.183 638.4402,-758.8767 643.9297,-762.7646 638.9636,-763.3462 638.9636,-763.3462 638.9636,-763.3462 643.9297,-762.7646 639.4871,-767.8156 648.8957,-762.183 648.8957,-762.183"/>
<polygon fill="#f00eae" stroke="#f00eae" points="648.8957,-755.817 639.4871,-750.1844 643.9297,-755.2354 638.9636,-754.6538 638.9636,-754.6538 638.9636,-754.6538 643.9297,-755.2354 638.4402,-759.1233 648.8957,-755.817 648.8957,-755.817"/>
<text text-anchor="middle" x="713.6379" y="-755.3" font-family="Times,serif" font-size="14.00" fill="#000000">child_package_types</text>
</g>
<!-- PackageType&#45;&gt;PackageType -->
<g id="edge17" class="edge">
<title>PackageType&#45;&gt;PackageType</title>
<path fill="none" stroke="#16848c" d="M649.1717,-769.6241C710.8671,-770.4837 770.6379,-766.9423 770.6379,-759 770.6379,-751.0577 710.8671,-747.5163 649.1717,-748.3759"/>
<polygon fill="#16848c" stroke="#16848c" points="648.8585,-769.6186 638.9406,-764.9403 643.8593,-769.5291 638.8601,-769.4396 638.8601,-769.4396 638.8601,-769.4396 643.8593,-769.5291 638.7795,-773.9389 648.8585,-769.6186 648.8585,-769.6186"/>
<polygon fill="#16848c" stroke="#16848c" points="648.8585,-748.3814 638.7795,-744.0611 643.8593,-748.4709 638.8601,-748.5604 638.8601,-748.5604 638.8601,-748.5604 643.8593,-748.4709 638.9406,-753.0597 648.8585,-748.3814 648.8585,-748.3814"/>
<text text-anchor="middle" x="849.6379" y="-755.3" font-family="Times,serif" font-size="14.00" fill="#000000">default_child_package_types</text>
</g>
<!-- PackageType&#45;&gt;PackageType -->
<g id="edge19" class="edge">
<title>PackageType&#45;&gt;PackageType</title>
<path fill="none" stroke="#3468fa" d="M648.7998,-773.0549C768.7399,-778.2867 928.6379,-773.6017 928.6379,-759 928.6379,-744.3983 768.7399,-739.7133 648.7998,-744.9451"/>
<polygon fill="#3468fa" stroke="#3468fa" points="648.7728,-773.0537 638.9922,-768.095 643.7782,-772.8219 638.7836,-772.5902 638.7836,-772.5902 638.7836,-772.5902 643.7782,-772.8219 638.575,-777.0853 648.7728,-773.0537 648.7728,-773.0537"/>
<polygon fill="#3468fa" stroke="#3468fa" points="648.7728,-744.9463 638.575,-740.9147 643.7782,-745.1781 638.7836,-745.4098 638.7836,-745.4098 638.7836,-745.4098 643.7782,-745.1781 638.9922,-749.905 648.7728,-744.9463 648.7728,-744.9463"/>
<text text-anchor="middle" x="1002.6379" y="-755.3" font-family="Times,serif" font-size="14.00" fill="#000000">other_child_package_types</text>
</g>
<!-- SubpackageType -->
<g id="node12" class="node">
<title>SubpackageType</title>
<ellipse fill="none" stroke="#000000" cx="494.6379" cy="-593.5" rx="71.4873" ry="18"/>
<text text-anchor="middle" x="494.6379" y="-589.8" font-family="Times,serif" font-size="14.00" fill="#000000">SubpackageType</text>
</g>
<!-- PackageType&#45;&gt;SubpackageType -->
<g id="edge14" class="edge">
<title>PackageType&#45;&gt;SubpackageType</title>
<path fill="none" stroke="#310d82" d="M646.1526,-720.2361C672.442,-705.4676 687.7311,-686.8433 669.6379,-665 642.225,-631.9054 614.4113,-663.2723 574.6379,-647 556.4106,-639.5427 538.0088,-627.6112 523.4572,-616.9063"/>
<ellipse fill="none" stroke="#310d82" cx="642.3916" cy="-722.2293" rx="4" ry="4"/>
<polygon fill="#310d82" stroke="#310d82" points="523.3416,-616.8189 518.0786,-607.1986 519.3532,-613.8036 515.3647,-610.7882 515.3647,-610.7882 515.3647,-610.7882 519.3532,-613.8036 512.6509,-614.3778 523.3416,-616.8189 523.3416,-616.8189"/>
</g>
<!-- PackageType&#45;&gt;SubpackageType -->
<g id="edge16" class="edge">
<title>PackageType&#45;&gt;SubpackageType</title>
<path fill="none" stroke="#9b1508" d="M407.6531,-717.3025C392.9511,-707.3037 379.8726,-695.0279 370.6379,-680 350.6001,-647.392 393.6154,-623.8676 434.3578,-609.6576"/>
<ellipse fill="none" stroke="#9b1508" cx="411.155" cy="-719.5664" rx="4" ry="4"/>
<polygon fill="#9b1508" stroke="#9b1508" points="434.5915,-609.5798 445.5011,-610.6891 439.3353,-607.9998 444.0791,-606.4197 444.0791,-606.4197 444.0791,-606.4197 439.3353,-607.9998 442.657,-602.1503 434.5915,-609.5798 434.5915,-609.5798"/>
<text text-anchor="middle" x="442.1379" y="-668.8" font-family="Times,serif" font-size="14.00" fill="#000000">default_subpackage_types</text>
</g>
<!-- PackageType&#45;&gt;SubpackageType -->
<g id="edge18" class="edge">
<title>PackageType&#45;&gt;SubpackageType</title>
<path fill="none" stroke="#dd45a7" d="M518.1203,-690.2442C516.7725,-681.7166 515.2757,-673.1392 513.6379,-665 510.7188,-650.4941 506.5793,-634.5643 502.9089,-621.4298"/>
<ellipse fill="none" stroke="#dd45a7" cx="518.7615" cy="-694.435" rx="4" ry="4"/>
<polygon fill="#dd45a7" stroke="#dd45a7" points="502.8412,-621.1925 504.4255,-610.3417 501.4697,-616.3843 500.0981,-611.5761 500.0981,-611.5761 500.0981,-611.5761 501.4697,-616.3843 495.7707,-612.8105 502.8412,-621.1925 502.8412,-621.1925"/>
<text text-anchor="middle" x="582.1379" y="-668.8" font-family="Times,serif" font-size="14.00" fill="#000000">other_subpackage_types</text>
</g>
<!-- PackageCategoriesPackageType -->
<g id="node13" class="node">
<title>PackageCategoriesPackageType</title>
<ellipse fill="none" stroke="#000000" cx="708.6379" cy="-593.5" rx="124.5782" ry="18"/>
<text text-anchor="middle" x="708.6379" y="-589.8" font-family="Times,serif" font-size="14.00" fill="#000000">PackageCategoriesPackageType</text>
</g>
<!-- PackageType&#45;&gt;PackageCategoriesPackageType -->
<g id="edge22" class="edge">
<title>PackageType&#45;&gt;PackageCategoriesPackageType</title>
<path fill="none" stroke="#9ae1f6" d="M646.0431,-715.0024C661.3146,-705.3474 675.4805,-693.7802 686.6379,-680 699.924,-663.5906 705.2994,-640.144 707.4213,-621.8001"/>
<ellipse fill="none" stroke="#9ae1f6" cx="642.3747" cy="-717.2293" rx="4" ry="4"/>
<polygon fill="#9ae1f6" stroke="#9ae1f6" points="707.4355,-621.6409 712.8118,-612.0834 707.8826,-616.6609 708.3298,-611.681 708.3298,-611.681 708.3298,-611.681 707.8826,-616.6609 703.8478,-611.2785 707.4355,-621.6409 707.4355,-621.6409"/>
</g>
<!-- PackageCategory -->
<g id="node14" class="node">
<title>PackageCategory</title>
<ellipse fill="none" stroke="#000000" cx="923.6379" cy="-593.5" rx="72.2875" ry="18"/>
<text text-anchor="middle" x="923.6379" y="-589.8" font-family="Times,serif" font-size="14.00" fill="#000000">PackageCategory</text>
</g>
<!-- PackageType&#45;&gt;PackageCategory -->
<g id="edge23" class="edge">
<title>PackageType&#45;&gt;PackageCategory</title>
<path fill="none" stroke="#347231" d="M648.5449,-723.4647C708.4333,-704.0991 780.8254,-677.7919 842.6379,-647 859.9137,-638.3941 877.943,-626.7811 892.5942,-616.5738"/>
<polygon fill="#347231" stroke="#347231" points="648.1855,-723.5799 637.2889,-722.349 643.4243,-725.1069 638.6632,-726.634 638.6632,-726.634 638.6632,-726.634 643.4243,-725.1069 640.0375,-730.919 648.1855,-723.5799 648.1855,-723.5799"/>
<polygon fill="#347231" stroke="#347231" points="892.6399,-616.5415 903.4009,-614.4314 896.7195,-613.6506 900.7991,-610.7598 900.7991,-610.7598 900.7991,-610.7598 896.7195,-613.6506 898.1973,-607.0881 892.6399,-616.5415 892.6399,-616.5415"/>
</g>
<!-- PackagesLocation&#45;&gt;Version -->
<g id="edge24" class="edge">
<title>PackagesLocation&#45;&gt;Version</title>
<path fill="none" stroke="#8680eb" d="M499.3091,-69.1491C482.2058,-58.5672 463.998,-47.3019 449.0358,-38.0447"/>
<ellipse fill="none" stroke="#8680eb" cx="502.8387" cy="-71.3329" rx="4" ry="4"/>
<polygon fill="#8680eb" stroke="#8680eb" points="448.682,-37.8259 442.5457,-28.7376 444.43,-35.1951 440.178,-32.5644 440.178,-32.5644 440.178,-32.5644 444.43,-35.1951 437.8103,-36.3912 448.682,-37.8259 448.682,-37.8259"/>
</g>
</g>
</svg>
