<?xml version="1.0" encoding="UTF-8" standalone="no"?>
<!DOCTYPE svg PUBLIC "-//W3C//DTD SVG 1.1//EN"
 "http://www.w3.org/Graphics/SVG/1.1/DTD/svg11.dtd">
<!-- Generated by graphviz version 2.40.1 (20161225.0304)
 -->
<!-- Title: models_diagram Pages: 1 -->
<svg width="719pt" height="562pt"
 viewBox="0.00 0.00 718.99 562.00" xmlns="http://www.w3.org/2000/svg" xmlns:xlink="http://www.w3.org/1999/xlink">
<g id="graph0" class="graph" transform="scale(1 1) rotate(0) translate(4 558)">
<title>models_diagram</title>
<polygon fill="transparent" stroke="transparent" points="-4,4 -4,-558 714.9908,-558 714.9908,4 -4,4"/>
<!-- Order -->
<g id="node1" class="node">
<title>Order</title>
<path fill="none" stroke="#000000" d="M105.8466,-87.5C105.8466,-87.5 386.8466,-87.5 386.8466,-87.5 392.8466,-87.5 398.8466,-93.5 398.8466,-99.5 398.8466,-99.5 398.8466,-541.5 398.8466,-541.5 398.8466,-547.5 392.8466,-553.5 386.8466,-553.5 386.8466,-553.5 105.8466,-553.5 105.8466,-553.5 99.8466,-553.5 93.8466,-547.5 93.8466,-541.5 93.8466,-541.5 93.8466,-99.5 93.8466,-99.5 93.8466,-93.5 99.8466,-87.5 105.8466,-87.5"/>
<text text-anchor="middle" x="246.3466" y="-538.3" font-family="Times,serif" font-size="14.00" fill="#000000">Order</text>
<polyline fill="none" stroke="#000000" points="93.8466,-530.5 398.8466,-530.5 "/>
<text text-anchor="start" x="101.8466" y="-515.3" font-family="Times,serif" font-size="14.00" fill="#000000">id :integer</text>
<text text-anchor="start" x="101.8466" y="-500.3" font-family="Times,serif" font-size="14.00" fill="#000000">status :character varying</text>
<text text-anchor="start" x="101.8466" y="-485.3" font-family="Times,serif" font-size="14.00" fill="#000000">code :character varying</text>
<text text-anchor="start" x="101.8466" y="-470.3" font-family="Times,serif" font-size="14.00" fill="#000000">detail_type :character varying</text>
<text text-anchor="start" x="101.8466" y="-455.3" font-family="Times,serif" font-size="14.00" fill="#000000">detail_id :integer</text>
<text text-anchor="start" x="101.8466" y="-440.3" font-family="Times,serif" font-size="14.00" fill="#000000">stockit_contact_id :integer</text>
<text text-anchor="start" x="101.8466" y="-425.3" font-family="Times,serif" font-size="14.00" fill="#000000">stockit_organisation_id :integer</text>
<text text-anchor="start" x="101.8466" y="-410.3" font-family="Times,serif" font-size="14.00" fill="#000000">stockit_id :integer</text>
<text text-anchor="start" x="101.8466" y="-395.3" font-family="Times,serif" font-size="14.00" fill="#000000">created_at :timestamp without time zone</text>
<text text-anchor="start" x="101.8466" y="-380.3" font-family="Times,serif" font-size="14.00" fill="#000000">updated_at :timestamp without time zone</text>
<text text-anchor="start" x="101.8466" y="-365.3" font-family="Times,serif" font-size="14.00" fill="#000000">description :text</text>
<text text-anchor="start" x="101.8466" y="-350.3" font-family="Times,serif" font-size="14.00" fill="#000000">stockit_activity_id :integer</text>
<text text-anchor="start" x="101.8466" y="-335.3" font-family="Times,serif" font-size="14.00" fill="#000000">country_id :integer</text>
<text text-anchor="start" x="101.8466" y="-320.3" font-family="Times,serif" font-size="14.00" fill="#000000">created_by_id :integer</text>
<text text-anchor="start" x="101.8466" y="-305.3" font-family="Times,serif" font-size="14.00" fill="#000000">processed_by_id :integer</text>
<text text-anchor="start" x="101.8466" y="-290.3" font-family="Times,serif" font-size="14.00" fill="#000000">organisation_id :integer</text>
<text text-anchor="start" x="101.8466" y="-275.3" font-family="Times,serif" font-size="14.00" fill="#000000">state :character varying</text>
<text text-anchor="start" x="101.8466" y="-260.3" font-family="Times,serif" font-size="14.00" fill="#000000">purpose_description :text</text>
<text text-anchor="start" x="101.8466" y="-245.3" font-family="Times,serif" font-size="14.00" fill="#000000">processed_at :timestamp without time zone</text>
<text text-anchor="start" x="101.8466" y="-230.3" font-family="Times,serif" font-size="14.00" fill="#000000">process_completed_by_id :integer</text>
<text text-anchor="start" x="101.8466" y="-215.3" font-family="Times,serif" font-size="14.00" fill="#000000">process_completed_at :timestamp without time zone</text>
<text text-anchor="start" x="101.8466" y="-200.3" font-family="Times,serif" font-size="14.00" fill="#000000">cancelled_at :timestamp without time zone</text>
<text text-anchor="start" x="101.8466" y="-185.3" font-family="Times,serif" font-size="14.00" fill="#000000">cancelled_by_id :integer</text>
<text text-anchor="start" x="101.8466" y="-170.3" font-family="Times,serif" font-size="14.00" fill="#000000">closed_at :timestamp without time zone</text>
<text text-anchor="start" x="101.8466" y="-155.3" font-family="Times,serif" font-size="14.00" fill="#000000">closed_by_id :integer</text>
<text text-anchor="start" x="101.8466" y="-140.3" font-family="Times,serif" font-size="14.00" fill="#000000">dispatch_started_at :timestamp without time zone</text>
<text text-anchor="start" x="101.8466" y="-125.3" font-family="Times,serif" font-size="14.00" fill="#000000">dispatch_started_by_id :integer</text>
<text text-anchor="start" x="101.8466" y="-110.3" font-family="Times,serif" font-size="14.00" fill="#000000">submitted_by_id :integer</text>
<text text-anchor="start" x="101.8466" y="-95.3" font-family="Times,serif" font-size="14.00" fill="#000000">submitted_at :timestamp without time zone</text>
</g>
<!-- Version -->
<g id="node2" class="node">
<title>Version</title>
<ellipse fill="none" stroke="#000000" cx="38.3466" cy="-18" rx="38.1938" ry="18"/>
<text text-anchor="middle" x="38.3466" y="-14.3" font-family="Times,serif" font-size="14.00" fill="#000000">Version</text>
</g>
<!-- Order&#45;&gt;Version -->
<g id="edge1" class="edge">
<title>Order&#45;&gt;Version</title>
<path fill="none" stroke="#7af6e8" d="M89.2273,-91.9972C76.3119,-73.214 64.8906,-56.6036 56.1582,-43.9039"/>
<ellipse fill="none" stroke="#7af6e8" cx="91.5472" cy="-95.3711" rx="4" ry="4"/>
<polygon fill="#7af6e8" stroke="#7af6e8" points="55.958,-43.6126 54.0001,-32.8229 53.125,-39.4926 50.292,-35.3726 50.292,-35.3726 50.292,-35.3726 53.125,-39.4926 46.584,-37.9222 55.958,-43.6126 55.958,-43.6126"/>
</g>
<!-- Package -->
<g id="node3" class="node">
<title>Package</title>
<ellipse fill="none" stroke="#000000" cx="135.3466" cy="-18" rx="40.0939" ry="18"/>
<text text-anchor="middle" x="135.3466" y="-14.3" font-family="Times,serif" font-size="14.00" fill="#000000">Package</text>
</g>
<!-- Order&#45;&gt;Package -->
<g id="edge2" class="edge">
<title>Order&#45;&gt;Package</title>
<path fill="none" stroke="#27127f" d="M137.6517,-79.2717C136.8362,-75.84 136.0667,-72.4149 135.3466,-69 133.8069,-61.6982 133.281,-53.6764 133.2683,-46.2002"/>
<ellipse fill="none" stroke="#27127f" cx="138.6754" cy="-83.4071" rx="4" ry="4"/>
<polygon fill="#27127f" stroke="#27127f" points="133.2703,-46.1227 138.0381,-36.2476 133.405,-41.1245 133.5398,-36.1263 133.5398,-36.1263 133.5398,-36.1263 133.405,-41.1245 129.0414,-36.005 133.2703,-46.1227 133.2703,-46.1227"/>
</g>
<!-- Order&#45;&gt;Package -->
<g id="edge6" class="edge">
<title>Order&#45;&gt;Package</title>
<path fill="none" stroke="#0ff841" d="M156.5308,-77.8005C155.462,-74.8504 154.4002,-71.916 153.3466,-69 150.5955,-61.3863 147.6558,-53.1162 144.9665,-45.4955"/>
<polygon fill="#0ff841" stroke="#0ff841" points="156.5561,-77.8703 155.736,-88.8055 158.2612,-82.5706 159.9663,-87.2709 159.9663,-87.2709 159.9663,-87.2709 158.2612,-82.5706 164.1966,-85.7363 156.5561,-77.8703 156.5561,-77.8703"/>
<polygon fill="#0ff841" stroke="#0ff841" points="144.931,-45.3944 145.8575,-34.4678 143.2718,-40.6778 141.6125,-35.9611 141.6125,-35.9611 141.6125,-35.9611 143.2718,-40.6778 137.3675,-37.4545 144.931,-45.3944 144.931,-45.3944"/>
<text text-anchor="middle" x="191.8466" y="-57.8" font-family="Times,serif" font-size="14.00" fill="#000000">cart_packages</text>
</g>
<!-- Purpose -->
<g id="node4" class="node">
<title>Purpose</title>
<ellipse fill="none" stroke="#000000" cx="232.3466" cy="-18" rx="38.9931" ry="18"/>
<text text-anchor="middle" x="232.3466" y="-14.3" font-family="Times,serif" font-size="14.00" fill="#000000">Purpose</text>
</g>
<!-- Order&#45;&gt;Purpose -->
<g id="edge3" class="edge">
<title>Order&#45;&gt;Purpose</title>
<path fill="none" stroke="#dba6d9" d="M235.0941,-77.3655C234.5541,-65.6973 234.0684,-55.2039 233.661,-46.4011"/>
<polygon fill="#dba6d9" stroke="#dba6d9" points="235.0961,-77.4103 231.0633,-87.6077 235.3273,-82.405 235.5585,-87.3996 235.5585,-87.3996 235.5585,-87.3996 235.3273,-82.405 240.0537,-87.1915 235.0961,-77.4103 235.0961,-77.4103"/>
<polygon fill="#dba6d9" stroke="#dba6d9" points="233.651,-46.1833 237.6838,-35.9859 233.4198,-41.1887 233.1886,-36.194 233.1886,-36.194 233.1886,-36.194 233.4198,-41.1887 228.6934,-36.4021 233.651,-46.1833 233.651,-46.1833"/>
</g>
<!-- OrdersPackage -->
<g id="node5" class="node">
<title>OrdersPackage</title>
<ellipse fill="none" stroke="#000000" cx="353.3466" cy="-18" rx="63.8893" ry="18"/>
<text text-anchor="middle" x="353.3466" y="-14.3" font-family="Times,serif" font-size="14.00" fill="#000000">OrdersPackage</text>
</g>
<!-- Order&#45;&gt;OrdersPackage -->
<g id="edge4" class="edge">
<title>Order&#45;&gt;OrdersPackage</title>
<path fill="none" stroke="#7ff94b" d="M331.5396,-79.6506C336.1442,-66.633 340.259,-55 343.6401,-45.4411"/>
<ellipse fill="none" stroke="#7ff94b" cx="330.1326" cy="-83.6286" rx="4" ry="4"/>
<polygon fill="#7ff94b" stroke="#7ff94b" points="343.6748,-45.3431 351.252,-37.4161 345.3422,-40.6293 347.0096,-35.9155 347.0096,-35.9155 347.0096,-35.9155 345.3422,-40.6293 342.7671,-34.4148 343.6748,-45.3431 343.6748,-45.3431"/>
</g>
<!-- OrdersPurpose -->
<g id="node6" class="node">
<title>OrdersPurpose</title>
<ellipse fill="none" stroke="#000000" cx="498.3466" cy="-18" rx="63.0888" ry="18"/>
<text text-anchor="middle" x="498.3466" y="-14.3" font-family="Times,serif" font-size="14.00" fill="#000000">OrdersPurpose</text>
</g>
<!-- Order&#45;&gt;OrdersPurpose -->
<g id="edge5" class="edge">
<title>Order&#45;&gt;OrdersPurpose</title>
<path fill="none" stroke="#64cc36" d="M404.3784,-130.7991C433.2139,-96.185 459.6522,-64.4487 477.0886,-43.518"/>
<ellipse fill="none" stroke="#64cc36" cx="401.6715" cy="-134.0485" rx="4" ry="4"/>
<polygon fill="#64cc36" stroke="#64cc36" points="477.1404,-43.4558 486.9985,-38.6528 480.3407,-39.6142 483.5411,-35.7725 483.5411,-35.7725 483.5411,-35.7725 480.3407,-39.6142 480.0836,-32.8922 477.1404,-43.4558 477.1404,-43.4558"/>
</g>
<!-- OrderTransport -->
<g id="node7" class="node">
<title>OrderTransport</title>
<ellipse fill="none" stroke="#000000" cx="645.3466" cy="-18" rx="65.7887" ry="18"/>
<text text-anchor="middle" x="645.3466" y="-14.3" font-family="Times,serif" font-size="14.00" fill="#000000">OrderTransport</text>
</g>
<!-- Order&#45;&gt;OrderTransport -->
<g id="edge7" class="edge">
<title>Order&#45;&gt;OrderTransport</title>
<path fill="none" stroke="#00fc33" d="M405.3731,-199.9348C484.4153,-140.0093 572.306,-73.3754 616.5514,-39.8309"/>
<ellipse fill="none" stroke="#00fc33" cx="402.0868" cy="-202.4263" rx="4" ry="4"/>
<ellipse fill="#00fc33" stroke="#00fc33" cx="619.8258" cy="-37.3485" rx="4" ry="4"/>
</g>
</g>
</svg>
