<?xml version="1.0" encoding="UTF-8" standalone="no"?>
<!DOCTYPE svg PUBLIC "-//W3C//DTD SVG 1.1//EN"
 "http://www.w3.org/Graphics/SVG/1.1/DTD/svg11.dtd">
<!-- Generated by graphviz version 2.26.3 (20100126.1600)
 -->
<!-- Title: controllers_diagram Pages: 1 -->
<svg width="832pt" height="543pt"
 viewBox="0.00 0.00 832.00 543.00" xmlns="http://www.w3.org/2000/svg" xmlns:xlink="http://www.w3.org/1999/xlink">
<g id="graph1" class="graph" transform="scale(1 1) rotate(0) translate(4 539)">
<title>controllers_diagram</title>
<polygon fill="white" stroke="white" points="-4,5 -4,-539 829,-539 829,5 -4,5"/>
<!-- _diagram_info -->
<g id="node1" class="node"><title>_diagram_info</title>
<text text-anchor="start" x="581" y="-518.3" font-family="Times Roman,serif" font-size="13.00">Controllers diagram</text>
<text text-anchor="start" x="581" y="-501.3" font-family="Times Roman,serif" font-size="13.00">Date: Jul 03 2014 &#45; 17:25</text>
<text text-anchor="start" x="581" y="-484.3" font-family="Times Roman,serif" font-size="13.00">Migration version: 20140628072714</text>
<text text-anchor="start" x="581" y="-467.3" font-family="Times Roman,serif" font-size="13.00">Generated by RailRoady 1.1.1</text>
<text text-anchor="start" x="581" y="-450.3" font-family="Times Roman,serif" font-size="13.00">http://railroady.prestonlee.com</text>
</g>
<!-- Api::V1::ApiController -->
<g id="node2" class="node"><title>Api::V1::ApiController</title>
<polyline fill="none" stroke="black" points="287.026,-35.4245 428.026,-35.4245 "/>
<path fill="none" stroke="black" d="M428.026,-35.4245C434.026,-35.4245 440.026,-41.4245 440.026,-47.4245"/>
<polyline fill="none" stroke="black" points="440.026,-47.4245 440.026,-123.425 "/>
<path fill="none" stroke="black" d="M440.026,-123.425C440.026,-129.425 434.026,-135.425 428.026,-135.425"/>
<polyline fill="none" stroke="black" points="428.026,-135.425 287.026,-135.425 "/>
<path fill="none" stroke="black" d="M287.026,-135.425C281.026,-135.425 275.026,-129.425 275.026,-123.425"/>
<polyline fill="none" stroke="black" points="275.026,-123.425 275.026,-47.4245 "/>
<path fill="none" stroke="black" d="M275.026,-47.4245C275.026,-41.4245 281.026,-35.4245 287.026,-35.4245"/>
<text text-anchor="middle" x="357.526" y="-118.825" font-family="Times Roman,serif" font-size="14.00">Api::V1::ApiController</text>
<polyline fill="none" stroke="black" points="275.026,-109.425 440.026,-109.425 "/>
<polyline fill="none" stroke="black" points="275.026,-85.4245 440.026,-85.4245 "/>
<polyline fill="none" stroke="black" points="275.026,-61.4245 440.026,-61.4245 "/>
<text text-anchor="start" x="283.026" y="-44.8245" font-family="Times Roman,serif" font-size="14.00">not_found</text>
</g>
<!-- Api::V1::ItemTypesController -->
<g id="node3" class="node"><title>Api::V1::ItemTypesController</title>
<polyline fill="none" stroke="black" points="487.446,-1.8485 677.446,-1.8485 "/>
<path fill="none" stroke="black" d="M677.446,-1.8485C683.446,-1.8485 689.446,-7.8485 689.446,-13.8485"/>
<polyline fill="none" stroke="black" points="689.446,-13.8485 689.446,-91.8485 "/>
<path fill="none" stroke="black" d="M689.446,-91.8485C689.446,-97.8485 683.446,-103.848 677.446,-103.848"/>
<polyline fill="none" stroke="black" points="677.446,-103.848 487.446,-103.848 "/>
<path fill="none" stroke="black" d="M487.446,-103.848C481.446,-103.848 475.446,-97.8485 475.446,-91.8485"/>
<polyline fill="none" stroke="black" points="475.446,-91.8485 475.446,-13.8485 "/>
<path fill="none" stroke="black" d="M475.446,-13.8485C475.446,-7.8485 481.446,-1.8485 487.446,-1.8485"/>
<text text-anchor="middle" x="582.446" y="-87.2485" font-family="Times Roman,serif" font-size="14.00">Api::V1::ItemTypesController</text>
<polyline fill="none" stroke="black" points="475.446,-77.8485 689.446,-77.8485 "/>
<text text-anchor="start" x="483.446" y="-61.2485" font-family="Times Roman,serif" font-size="14.00">index</text>
<polyline fill="none" stroke="black" points="475.446,-51.8485 689.446,-51.8485 "/>
<polyline fill="none" stroke="black" points="475.446,-27.8485 689.446,-27.8485 "/>
<text text-anchor="start" x="483.446" y="-11.2485" font-family="Times Roman,serif" font-size="14.00">serializer</text>
</g>
<!-- Api::V1::ApiController&#45;&gt;Api::V1::ItemTypesController -->
<g id="edge4" class="edge"><title>Api::V1::ApiController&#45;&gt;Api::V1::ItemTypesController</title>
<path fill="none" stroke="black" d="M440.32,-73.4332C451.718,-71.7823 463.555,-70.068 475.313,-68.365"/>
</g>
<!-- Api::V1::RejectionReasonsController -->
<g id="node4" class="node"><title>Api::V1::RejectionReasonsController</title>
<polyline fill="none" stroke="black" points="13,-1.5 252,-1.5 "/>
<path fill="none" stroke="black" d="M252,-1.5C258,-1.5 264,-7.5 264,-13.5"/>
<polyline fill="none" stroke="black" points="264,-13.5 264,-91.5 "/>
<path fill="none" stroke="black" d="M264,-91.5C264,-97.5 258,-103.5 252,-103.5"/>
<polyline fill="none" stroke="black" points="252,-103.5 13,-103.5 "/>
<path fill="none" stroke="black" d="M13,-103.5C7,-103.5 1,-97.5 1,-91.5"/>
<polyline fill="none" stroke="black" points="1,-91.5 1,-13.5 "/>
<path fill="none" stroke="black" d="M1,-13.5C1,-7.5 7,-1.5 13,-1.5"/>
<text text-anchor="middle" x="132.5" y="-86.9" font-family="Times Roman,serif" font-size="14.00">Api::V1::RejectionReasonsController</text>
<polyline fill="none" stroke="black" points="1,-77.5 264,-77.5 "/>
<text text-anchor="start" x="9" y="-60.9" font-family="Times Roman,serif" font-size="14.00">index</text>
<polyline fill="none" stroke="black" points="1,-51.5 264,-51.5 "/>
<polyline fill="none" stroke="black" points="1,-27.5 264,-27.5 "/>
<text text-anchor="start" x="9" y="-10.9" font-family="Times Roman,serif" font-size="14.00">serializer</text>
</g>
<!-- Api::V1::ApiController&#45;&gt;Api::V1::RejectionReasonsController -->
<g id="edge6" class="edge"><title>Api::V1::ApiController&#45;&gt;Api::V1::RejectionReasonsController</title>
<path fill="none" stroke="black" d="M275.013,-73.3516C271.5,-72.8377 267.946,-72.3177 264.365,-71.7937"/>
</g>
<!-- Api::V1::OffersController -->
<g id="node5" class="node"><title>Api::V1::OffersController</title>
<polyline fill="none" stroke="black" points="98.3131,-223.37 260.313,-223.37 "/>
<path fill="none" stroke="black" d="M260.313,-223.37C266.313,-223.37 272.313,-229.37 272.313,-235.37"/>
<polyline fill="none" stroke="black" points="272.313,-235.37 272.313,-385.37 "/>
<path fill="none" stroke="black" d="M272.313,-385.37C272.313,-391.37 266.313,-397.37 260.313,-397.37"/>
<polyline fill="none" stroke="black" points="260.313,-397.37 98.3131,-397.37 "/>
<path fill="none" stroke="black" d="M98.3131,-397.37C92.3131,-397.37 86.3131,-391.37 86.3131,-385.37"/>
<polyline fill="none" stroke="black" points="86.3131,-385.37 86.3131,-235.37 "/>
<path fill="none" stroke="black" d="M86.3131,-235.37C86.3131,-229.37 92.3131,-223.37 98.3131,-223.37"/>
<text text-anchor="middle" x="179.313" y="-380.77" font-family="Times Roman,serif" font-size="14.00">Api::V1::OffersController</text>
<polyline fill="none" stroke="black" points="86.3131,-371.37 272.313,-371.37 "/>
<text text-anchor="start" x="94.3131" y="-354.77" font-family="Times Roman,serif" font-size="14.00">destroy</text>
<text text-anchor="start" x="94.3131" y="-336.77" font-family="Times Roman,serif" font-size="14.00">index</text>
<text text-anchor="start" x="94.3131" y="-318.77" font-family="Times Roman,serif" font-size="14.00">show</text>
<text text-anchor="start" x="94.3131" y="-300.77" font-family="Times Roman,serif" font-size="14.00">update</text>
<polyline fill="none" stroke="black" points="86.3131,-291.37 272.313,-291.37 "/>
<polyline fill="none" stroke="black" points="86.3131,-267.37 272.313,-267.37 "/>
<text text-anchor="start" x="94.3131" y="-250.77" font-family="Times Roman,serif" font-size="14.00">load_offer</text>
<text text-anchor="start" x="94.3131" y="-232.77" font-family="Times Roman,serif" font-size="14.00">serializer</text>
</g>
<!-- Api::V1::ApiController&#45;&gt;Api::V1::OffersController -->
<g id="edge8" class="edge"><title>Api::V1::ApiController&#45;&gt;Api::V1::OffersController</title>
<path fill="none" stroke="black" d="M317.754,-135.627C297.339,-161.394 271.88,-193.53 248.382,-223.19"/>
</g>
<!-- ApplicationController -->
<g id="node6" class="node"><title>ApplicationController</title>
<polyline fill="none" stroke="black" points="466.455,-260.648 603.455,-260.648 "/>
<path fill="none" stroke="black" d="M603.455,-260.648C609.455,-260.648 615.455,-266.648 615.455,-272.648"/>
<polyline fill="none" stroke="black" points="615.455,-272.648 615.455,-348.648 "/>
<path fill="none" stroke="black" d="M615.455,-348.648C615.455,-354.648 609.455,-360.648 603.455,-360.648"/>
<polyline fill="none" stroke="black" points="603.455,-360.648 466.455,-360.648 "/>
<path fill="none" stroke="black" d="M466.455,-360.648C460.455,-360.648 454.455,-354.648 454.455,-348.648"/>
<polyline fill="none" stroke="black" points="454.455,-348.648 454.455,-272.648 "/>
<path fill="none" stroke="black" d="M454.455,-272.648C454.455,-266.648 460.455,-260.648 466.455,-260.648"/>
<text text-anchor="middle" x="534.955" y="-344.048" font-family="Times Roman,serif" font-size="14.00">ApplicationController</text>
<polyline fill="none" stroke="black" points="454.455,-334.648 615.455,-334.648 "/>
<text text-anchor="start" x="462.455" y="-318.048" font-family="Times Roman,serif" font-size="14.00">current_user</text>
<polyline fill="none" stroke="black" points="454.455,-308.648 615.455,-308.648 "/>
<polyline fill="none" stroke="black" points="454.455,-284.648 615.455,-284.648 "/>
</g>
<!-- ApplicationController&#45;&gt;Api::V1::ApiController -->
<g id="edge2" class="edge"><title>ApplicationController&#45;&gt;Api::V1::ApiController</title>
<path fill="none" stroke="black" d="M495.357,-260.384C466.045,-223.175 426.286,-172.707 397.003,-135.535"/>
</g>
</g>
</svg>
