<?xml version="1.0" encoding="UTF-8" standalone="no"?>
<!DOCTYPE svg PUBLIC "-//W3C//DTD SVG 1.1//EN"
 "http://www.w3.org/Graphics/SVG/1.1/DTD/svg11.dtd">
<!-- Generated by graphviz version 2.36.0 (20140111.2315)
 -->
<!-- Title: controllers_diagram Pages: 1 -->
<svg width="1497pt" height="1483pt"
 viewBox="0.00 0.00 1497.00 1483.00" xmlns="http://www.w3.org/2000/svg" xmlns:xlink="http://www.w3.org/1999/xlink">
<g id="graph0" class="graph" transform="scale(1 1) rotate(0) translate(4 1479)">
<title>controllers_diagram</title>
<polygon fill="white" stroke="none" points="-4,4 -4,-1479 1493,-1479 1493,4 -4,4"/>
<!-- _diagram_info -->
<g id="node1" class="node"><title>_diagram_info</title>
<text text-anchor="start" x="1272" y="-379.6" font-family="Times,serif" font-size="13.00">Controllers diagram</text>
<text text-anchor="start" x="1272" y="-365.6" font-family="Times,serif" font-size="13.00">Date: Oct 16 2014 &#45; 13:03</text>
<text text-anchor="start" x="1272" y="-351.6" font-family="Times,serif" font-size="13.00">Migration version: 20141015063630</text>
<text text-anchor="start" x="1272" y="-337.6" font-family="Times,serif" font-size="13.00">Generated by RailRoady 1.1.2</text>
<text text-anchor="start" x="1272" y="-323.6" font-family="Times,serif" font-size="13.00">http://railroady.prestonlee.com</text>
</g>
<!-- Api::V1::AddressesController -->
<g id="node2" class="node"><title>Api::V1::AddressesController</title>
<path fill="none" stroke="black" d="M12,-43.7398C12,-43.7398 167,-43.7398 167,-43.7398 173,-43.7398 179,-49.7398 179,-55.7398 179,-55.7398 179,-154.74 179,-154.74 179,-160.74 173,-166.74 167,-166.74 167,-166.74 12,-166.74 12,-166.74 6,-166.74 0,-160.74 0,-154.74 0,-154.74 0,-55.7398 0,-55.7398 0,-49.7398 6,-43.7398 12,-43.7398"/>
<text text-anchor="middle" x="89.5" y="-151.54" font-family="Times,serif" font-size="14.00">Api::V1::AddressesController</text>
<polyline fill="none" stroke="black" points="0,-143.74 179,-143.74 "/>
<text text-anchor="start" x="8" y="-128.54" font-family="Times,serif" font-size="14.00">create</text>
<text text-anchor="start" x="8" y="-113.54" font-family="Times,serif" font-size="14.00">show</text>
<polyline fill="none" stroke="black" points="0,-105.74 179,-105.74 "/>
<polyline fill="none" stroke="black" points="0,-81.7398 179,-81.7398 "/>
<text text-anchor="start" x="8" y="-66.5398" font-family="Times,serif" font-size="14.00">address_params</text>
<text text-anchor="start" x="8" y="-51.5398" font-family="Times,serif" font-size="14.00">serializer</text>
</g>
<!-- Api::V1::PackagesController -->
<g id="node3" class="node"><title>Api::V1::PackagesController</title>
<path fill="none" stroke="black" d="M853.526,-649.166C853.526,-649.166 1003.53,-649.166 1003.53,-649.166 1009.53,-649.166 1015.53,-655.166 1015.53,-661.166 1015.53,-661.166 1015.53,-745.166 1015.53,-745.166 1015.53,-751.166 1009.53,-757.166 1003.53,-757.166 1003.53,-757.166 853.526,-757.166 853.526,-757.166 847.526,-757.166 841.526,-751.166 841.526,-745.166 841.526,-745.166 841.526,-661.166 841.526,-661.166 841.526,-655.166 847.526,-649.166 853.526,-649.166"/>
<text text-anchor="middle" x="928.526" y="-741.966" font-family="Times,serif" font-size="14.00">Api::V1::PackagesController</text>
<polyline fill="none" stroke="black" points="841.526,-734.166 1015.53,-734.166 "/>
<text text-anchor="start" x="849.526" y="-718.966" font-family="Times,serif" font-size="14.00">index</text>
<text text-anchor="start" x="849.526" y="-703.966" font-family="Times,serif" font-size="14.00">show</text>
<polyline fill="none" stroke="black" points="841.526,-696.166 1015.53,-696.166 "/>
<polyline fill="none" stroke="black" points="841.526,-672.166 1015.53,-672.166 "/>
<text text-anchor="start" x="849.526" y="-656.966" font-family="Times,serif" font-size="14.00">serializer</text>
</g>
<!-- Api::V1::ApiController -->
<g id="node4" class="node"><title>Api::V1::ApiController</title>
<path fill="none" stroke="black" d="M633.937,-416.228C633.937,-416.228 753.937,-416.228 753.937,-416.228 759.937,-416.228 765.937,-422.228 765.937,-428.228 765.937,-428.228 765.937,-513.228 765.937,-513.228 765.937,-519.228 759.937,-525.228 753.937,-525.228 753.937,-525.228 633.937,-525.228 633.937,-525.228 627.937,-525.228 621.937,-519.228 621.937,-513.228 621.937,-513.228 621.937,-428.228 621.937,-428.228 621.937,-422.228 627.937,-416.228 633.937,-416.228"/>
<text text-anchor="middle" x="693.937" y="-510.028" font-family="Times,serif" font-size="14.00">Api::V1::ApiController</text>
<polyline fill="none" stroke="black" points="621.937,-502.228 765.937,-502.228 "/>
<polyline fill="none" stroke="black" points="621.937,-478.228 765.937,-478.228 "/>
<polyline fill="none" stroke="black" points="621.937,-454.228 765.937,-454.228 "/>
<text text-anchor="start" x="629.937" y="-439.028" font-family="Times,serif" font-size="14.00">error_403</text>
<text text-anchor="start" x="629.937" y="-424.028" font-family="Times,serif" font-size="14.00">not_found</text>
</g>
<!-- Api::V1::ApiController&#45;&gt;Api::V1::AddressesController -->
<g id="edge1" class="edge"><title>Api::V1::ApiController&#45;&gt;Api::V1::AddressesController</title>
<path fill="none" stroke="black" d="M624.803,-416.223C598.747,-396.496 568.505,-374.546 539.959,-356.086 418.756,-277.704 271.52,-198.541 179.134,-150.679"/>
</g>
<!-- Api::V1::ApiController&#45;&gt;Api::V1::PackagesController -->
<g id="edge2" class="edge"><title>Api::V1::ApiController&#45;&gt;Api::V1::PackagesController</title>
<path fill="none" stroke="black" d="M749.234,-525.518C786.892,-562.831 836.513,-611.997 874.005,-649.145"/>
</g>
<!-- Api::V1::TerritoriesController -->
<g id="node5" class="node"><title>Api::V1::TerritoriesController</title>
<path fill="none" stroke="black" d="M427.505,-960.832C427.505,-960.832 584.505,-960.832 584.505,-960.832 590.505,-960.832 596.505,-966.832 596.505,-972.832 596.505,-972.832 596.505,-1056.83 596.505,-1056.83 596.505,-1062.83 590.505,-1068.83 584.505,-1068.83 584.505,-1068.83 427.505,-1068.83 427.505,-1068.83 421.505,-1068.83 415.505,-1062.83 415.505,-1056.83 415.505,-1056.83 415.505,-972.832 415.505,-972.832 415.505,-966.832 421.505,-960.832 427.505,-960.832"/>
<text text-anchor="middle" x="506.005" y="-1053.63" font-family="Times,serif" font-size="14.00">Api::V1::TerritoriesController</text>
<polyline fill="none" stroke="black" points="415.505,-1045.83 596.505,-1045.83 "/>
<text text-anchor="start" x="423.505" y="-1030.63" font-family="Times,serif" font-size="14.00">index</text>
<text text-anchor="start" x="423.505" y="-1015.63" font-family="Times,serif" font-size="14.00">show</text>
<polyline fill="none" stroke="black" points="415.505,-1007.83 596.505,-1007.83 "/>
<polyline fill="none" stroke="black" points="415.505,-983.832 596.505,-983.832 "/>
<text text-anchor="start" x="423.505" y="-968.632" font-family="Times,serif" font-size="14.00">serializer</text>
</g>
<!-- Api::V1::ApiController&#45;&gt;Api::V1::TerritoriesController -->
<g id="edge4" class="edge"><title>Api::V1::ApiController&#45;&gt;Api::V1::TerritoriesController</title>
<path fill="none" stroke="black" d="M651.239,-525.311C628.343,-557.072 601.459,-598.801 584.642,-639.665 539.813,-748.592 519.382,-886.24 511.041,-960.821"/>
</g>
<!-- Api::V1::ItemsController -->
<g id="node6" class="node"><title>Api::V1::ItemsController</title>
<path fill="none" stroke="black" d="M599.842,-642.865C599.842,-642.865 730.842,-642.865 730.842,-642.865 736.842,-642.865 742.842,-648.865 742.842,-654.865 742.842,-654.865 742.842,-813.865 742.842,-813.865 742.842,-819.865 736.842,-825.865 730.842,-825.865 730.842,-825.865 599.842,-825.865 599.842,-825.865 593.842,-825.865 587.842,-819.865 587.842,-813.865 587.842,-813.865 587.842,-654.865 587.842,-654.865 587.842,-648.865 593.842,-642.865 599.842,-642.865"/>
<text text-anchor="middle" x="665.342" y="-810.665" font-family="Times,serif" font-size="14.00">Api::V1::ItemsController</text>
<polyline fill="none" stroke="black" points="587.842,-802.865 742.842,-802.865 "/>
<text text-anchor="start" x="595.842" y="-787.665" font-family="Times,serif" font-size="14.00">create</text>
<text text-anchor="start" x="595.842" y="-772.665" font-family="Times,serif" font-size="14.00">destroy</text>
<text text-anchor="start" x="595.842" y="-757.665" font-family="Times,serif" font-size="14.00">index</text>
<text text-anchor="start" x="595.842" y="-742.665" font-family="Times,serif" font-size="14.00">show</text>
<text text-anchor="start" x="595.842" y="-727.665" font-family="Times,serif" font-size="14.00">update</text>
<polyline fill="none" stroke="black" points="587.842,-719.865 742.842,-719.865 "/>
<polyline fill="none" stroke="black" points="587.842,-695.865 742.842,-695.865 "/>
<text text-anchor="start" x="595.842" y="-680.665" font-family="Times,serif" font-size="14.00">item_params</text>
<text text-anchor="start" x="595.842" y="-665.665" font-family="Times,serif" font-size="14.00">serializer</text>
<text text-anchor="start" x="595.842" y="-650.665" font-family="Times,serif" font-size="14.00">store_images</text>
</g>
<!-- Api::V1::ApiController&#45;&gt;Api::V1::ItemsController -->
<g id="edge5" class="edge"><title>Api::V1::ApiController&#45;&gt;Api::V1::ItemsController</title>
<path fill="none" stroke="black" d="M688.012,-525.354C684.339,-559.214 679.529,-603.565 675.284,-642.697"/>
</g>
<!-- Api::V1::AuthenticationController -->
<g id="node7" class="node"><title>Api::V1::AuthenticationController</title>
<path fill="none" stroke="black" d="M317.79,-617.726C317.79,-617.726 497.79,-617.726 497.79,-617.726 503.79,-617.726 509.79,-623.726 509.79,-629.726 509.79,-629.726 509.79,-758.726 509.79,-758.726 509.79,-764.726 503.79,-770.726 497.79,-770.726 497.79,-770.726 317.79,-770.726 317.79,-770.726 311.79,-770.726 305.79,-764.726 305.79,-758.726 305.79,-758.726 305.79,-629.726 305.79,-629.726 305.79,-623.726 311.79,-617.726 317.79,-617.726"/>
<text text-anchor="middle" x="407.79" y="-755.526" font-family="Times,serif" font-size="14.00">Api::V1::AuthenticationController</text>
<polyline fill="none" stroke="black" points="305.79,-747.726 509.79,-747.726 "/>
<text text-anchor="start" x="313.79" y="-732.526" font-family="Times,serif" font-size="14.00">send_pin</text>
<text text-anchor="start" x="313.79" y="-717.526" font-family="Times,serif" font-size="14.00">signup</text>
<text text-anchor="start" x="313.79" y="-702.526" font-family="Times,serif" font-size="14.00">verify</text>
<polyline fill="none" stroke="black" points="305.79,-694.726 509.79,-694.726 "/>
<polyline fill="none" stroke="black" points="305.79,-670.726 509.79,-670.726 "/>
<text text-anchor="start" x="313.79" y="-655.526" font-family="Times,serif" font-size="14.00">auth_params</text>
<text text-anchor="start" x="313.79" y="-640.526" font-family="Times,serif" font-size="14.00">otp_auth_key_for</text>
<text text-anchor="start" x="313.79" y="-625.526" font-family="Times,serif" font-size="14.00">warden</text>
</g>
<!-- Api::V1::ApiController&#45;&gt;Api::V1::AuthenticationController -->
<g id="edge6" class="edge"><title>Api::V1::ApiController&#45;&gt;Api::V1::AuthenticationController</title>
<path fill="none" stroke="black" d="M623.937,-525.402C588.447,-553.122 544.757,-587.247 505.966,-617.545"/>
</g>
<!-- Api::V1::ItemTypesController -->
<g id="node8" class="node"><title>Api::V1::ItemTypesController</title>
<path fill="none" stroke="black" d="M291.62,-53.7755C291.62,-53.7755 449.62,-53.7755 449.62,-53.7755 455.62,-53.7755 461.62,-59.7755 461.62,-65.7755 461.62,-65.7755 461.62,-149.776 461.62,-149.776 461.62,-155.776 455.62,-161.776 449.62,-161.776 449.62,-161.776 291.62,-161.776 291.62,-161.776 285.62,-161.776 279.62,-155.776 279.62,-149.776 279.62,-149.776 279.62,-65.7755 279.62,-65.7755 279.62,-59.7755 285.62,-53.7755 291.62,-53.7755"/>
<text text-anchor="middle" x="370.62" y="-146.576" font-family="Times,serif" font-size="14.00">Api::V1::ItemTypesController</text>
<polyline fill="none" stroke="black" points="279.62,-138.776 461.62,-138.776 "/>
<text text-anchor="start" x="287.62" y="-123.576" font-family="Times,serif" font-size="14.00">index</text>
<text text-anchor="start" x="287.62" y="-108.576" font-family="Times,serif" font-size="14.00">show</text>
<polyline fill="none" stroke="black" points="279.62,-100.776 461.62,-100.776 "/>
<polyline fill="none" stroke="black" points="279.62,-76.7755 461.62,-76.7755 "/>
<text text-anchor="start" x="287.62" y="-61.5755" font-family="Times,serif" font-size="14.00">serializer</text>
</g>
<!-- Api::V1::ApiController&#45;&gt;Api::V1::ItemTypesController -->
<g id="edge7" class="edge"><title>Api::V1::ApiController&#45;&gt;Api::V1::ItemTypesController</title>
<path fill="none" stroke="black" d="M645.183,-415.997C584.057,-347.378 479.916,-230.47 418.977,-162.061"/>
</g>
<!-- Api::V1::RejectionReasonsController -->
<g id="node9" class="node"><title>Api::V1::RejectionReasonsController</title>
<path fill="none" stroke="black" d="M1143.45,-113.076C1143.45,-113.076 1340.45,-113.076 1340.45,-113.076 1346.45,-113.076 1352.45,-119.076 1352.45,-125.076 1352.45,-125.076 1352.45,-209.076 1352.45,-209.076 1352.45,-215.076 1346.45,-221.076 1340.45,-221.076 1340.45,-221.076 1143.45,-221.076 1143.45,-221.076 1137.45,-221.076 1131.45,-215.076 1131.45,-209.076 1131.45,-209.076 1131.45,-125.076 1131.45,-125.076 1131.45,-119.076 1137.45,-113.076 1143.45,-113.076"/>
<text text-anchor="middle" x="1241.95" y="-205.876" font-family="Times,serif" font-size="14.00">Api::V1::RejectionReasonsController</text>
<polyline fill="none" stroke="black" points="1131.45,-198.076 1352.45,-198.076 "/>
<text text-anchor="start" x="1139.45" y="-182.876" font-family="Times,serif" font-size="14.00">index</text>
<text text-anchor="start" x="1139.45" y="-167.876" font-family="Times,serif" font-size="14.00">show</text>
<polyline fill="none" stroke="black" points="1131.45,-160.076 1352.45,-160.076 "/>
<polyline fill="none" stroke="black" points="1131.45,-136.076 1352.45,-136.076 "/>
<text text-anchor="start" x="1139.45" y="-120.876" font-family="Times,serif" font-size="14.00">serializer</text>
</g>
<!-- Api::V1::ApiController&#45;&gt;Api::V1::RejectionReasonsController -->
<g id="edge8" class="edge"><title>Api::V1::ApiController&#45;&gt;Api::V1::RejectionReasonsController</title>
<path fill="none" stroke="black" d="M763.283,-415.982C794.271,-392.712 831.792,-366.126 867.475,-344.964 952.907,-294.298 1055.05,-246.564 1131.06,-213.324"/>
</g>
<!-- Api::V1::ContactsController -->
<g id="node10" class="node"><title>Api::V1::ContactsController</title>
<path fill="none" stroke="black" d="M377.759,-359.286C377.759,-359.286 524.759,-359.286 524.759,-359.286 530.759,-359.286 536.759,-365.286 536.759,-371.286 536.759,-371.286 536.759,-455.286 536.759,-455.286 536.759,-461.286 530.759,-467.286 524.759,-467.286 524.759,-467.286 377.759,-467.286 377.759,-467.286 371.759,-467.286 365.759,-461.286 365.759,-455.286 365.759,-455.286 365.759,-371.286 365.759,-371.286 365.759,-365.286 371.759,-359.286 377.759,-359.286"/>
<text text-anchor="middle" x="451.259" y="-452.086" font-family="Times,serif" font-size="14.00">Api::V1::ContactsController</text>
<polyline fill="none" stroke="black" points="365.759,-444.286 536.759,-444.286 "/>
<text text-anchor="start" x="373.759" y="-429.086" font-family="Times,serif" font-size="14.00">create</text>
<polyline fill="none" stroke="black" points="365.759,-421.286 536.759,-421.286 "/>
<polyline fill="none" stroke="black" points="365.759,-397.286 536.759,-397.286 "/>
<text text-anchor="start" x="373.759" y="-382.086" font-family="Times,serif" font-size="14.00">contact_params</text>
<text text-anchor="start" x="373.759" y="-367.086" font-family="Times,serif" font-size="14.00">serializer</text>
</g>
<!-- Api::V1::ApiController&#45;&gt;Api::V1::ContactsController -->
<g id="edge9" class="edge"><title>Api::V1::ApiController&#45;&gt;Api::V1::ContactsController</title>
<path fill="none" stroke="black" d="M621.782,-453.649C595.097,-447.332 564.59,-440.112 536.828,-433.54"/>
</g>
<!-- Api::V1::SubscriptionsController -->
<g id="node11" class="node"><title>Api::V1::SubscriptionsController</title>
<path fill="none" stroke="black" d="M684.978,-161.481C684.978,-161.481 857.978,-161.481 857.978,-161.481 863.978,-161.481 869.978,-167.481 869.978,-173.481 869.978,-173.481 869.978,-243.481 869.978,-243.481 869.978,-249.481 863.978,-255.481 857.978,-255.481 857.978,-255.481 684.978,-255.481 684.978,-255.481 678.978,-255.481 672.978,-249.481 672.978,-243.481 672.978,-243.481 672.978,-173.481 672.978,-173.481 672.978,-167.481 678.978,-161.481 684.978,-161.481"/>
<text text-anchor="middle" x="771.478" y="-240.281" font-family="Times,serif" font-size="14.00">Api::V1::SubscriptionsController</text>
<polyline fill="none" stroke="black" points="672.978,-232.481 869.978,-232.481 "/>
<text text-anchor="start" x="680.978" y="-217.281" font-family="Times,serif" font-size="14.00">create</text>
<polyline fill="none" stroke="black" points="672.978,-209.481 869.978,-209.481 "/>
<polyline fill="none" stroke="black" points="672.978,-185.481 869.978,-185.481 "/>
</g>
<!-- Api::V1::ApiController&#45;&gt;Api::V1::SubscriptionsController -->
<g id="edge10" class="edge"><title>Api::V1::ApiController&#45;&gt;Api::V1::SubscriptionsController</title>
<path fill="none" stroke="black" d="M710.098,-416.072C724.123,-368.637 744.217,-300.679 757.546,-255.6"/>
</g>
<!-- Api::V1::ImagesController -->
<g id="node12" class="node"><title>Api::V1::ImagesController</title>
<path fill="none" stroke="black" d="M533.912,-21.0745C533.912,-21.0745 673.912,-21.0745 673.912,-21.0745 679.912,-21.0745 685.912,-27.0745 685.912,-33.0745 685.912,-33.0745 685.912,-117.075 685.912,-117.075 685.912,-123.075 679.912,-129.075 673.912,-129.075 673.912,-129.075 533.912,-129.075 533.912,-129.075 527.912,-129.075 521.912,-123.075 521.912,-117.075 521.912,-117.075 521.912,-33.0745 521.912,-33.0745 521.912,-27.0745 527.912,-21.0745 533.912,-21.0745"/>
<text text-anchor="middle" x="603.912" y="-113.875" font-family="Times,serif" font-size="14.00">Api::V1::ImagesController</text>
<polyline fill="none" stroke="black" points="521.912,-106.075 685.912,-106.075 "/>
<text text-anchor="start" x="529.912" y="-90.8745" font-family="Times,serif" font-size="14.00">generate_signature</text>
<polyline fill="none" stroke="black" points="521.912,-83.0745 685.912,-83.0745 "/>
<polyline fill="none" stroke="black" points="521.912,-59.0745 685.912,-59.0745 "/>
<text text-anchor="start" x="529.912" y="-43.8745" font-family="Times,serif" font-size="14.00">callback</text>
<text text-anchor="start" x="529.912" y="-28.8745" font-family="Times,serif" font-size="14.00">cloudinary_config</text>
</g>
<!-- Api::V1::ApiController&#45;&gt;Api::V1::ImagesController -->
<g id="edge11" class="edge"><title>Api::V1::ApiController&#45;&gt;Api::V1::ImagesController</title>
<path fill="none" stroke="black" d="M681.514,-416.13C664.294,-340.45 633.359,-204.494 616.207,-129.113"/>
</g>
<!-- Api::V1::DeliveriesController -->
<g id="node13" class="node"><title>Api::V1::DeliveriesController</title>
<path fill="none" stroke="black" d="M48.1667,-356.375C48.1667,-356.375 203.167,-356.375 203.167,-356.375 209.167,-356.375 215.167,-362.375 215.167,-368.375 215.167,-368.375 215.167,-482.375 215.167,-482.375 215.167,-488.375 209.167,-494.375 203.167,-494.375 203.167,-494.375 48.1667,-494.375 48.1667,-494.375 42.1667,-494.375 36.1667,-488.375 36.1667,-482.375 36.1667,-482.375 36.1667,-368.375 36.1667,-368.375 36.1667,-362.375 42.1667,-356.375 48.1667,-356.375"/>
<text text-anchor="middle" x="125.667" y="-479.175" font-family="Times,serif" font-size="14.00">Api::V1::DeliveriesController</text>
<polyline fill="none" stroke="black" points="36.1667,-471.375 215.167,-471.375 "/>
<text text-anchor="start" x="44.1667" y="-456.175" font-family="Times,serif" font-size="14.00">create</text>
<text text-anchor="start" x="44.1667" y="-441.175" font-family="Times,serif" font-size="14.00">show</text>
<text text-anchor="start" x="44.1667" y="-426.175" font-family="Times,serif" font-size="14.00">update</text>
<polyline fill="none" stroke="black" points="36.1667,-418.375 215.167,-418.375 "/>
<polyline fill="none" stroke="black" points="36.1667,-394.375 215.167,-394.375 "/>
<text text-anchor="start" x="44.1667" y="-379.175" font-family="Times,serif" font-size="14.00">delivery_params</text>
<text text-anchor="start" x="44.1667" y="-364.175" font-family="Times,serif" font-size="14.00">serializer</text>
</g>
<!-- Api::V1::ApiController&#45;&gt;Api::V1::DeliveriesController -->
<g id="edge12" class="edge"><title>Api::V1::ApiController&#45;&gt;Api::V1::DeliveriesController</title>
<path fill="none" stroke="black" d="M621.675,-474.559C554.42,-477.205 451.478,-478.91 362.559,-470.486 313.481,-465.836 259.433,-455.92 215.37,-446.566"/>
</g>
<!-- Api::V1::MessagesController -->
<g id="node14" class="node"><title>Api::V1::MessagesController</title>
<path fill="none" stroke="black" d="M1152.89,-505.822C1152.89,-505.822 1305.89,-505.822 1305.89,-505.822 1311.89,-505.822 1317.89,-511.822 1317.89,-517.822 1317.89,-517.822 1317.89,-646.822 1317.89,-646.822 1317.89,-652.822 1311.89,-658.822 1305.89,-658.822 1305.89,-658.822 1152.89,-658.822 1152.89,-658.822 1146.89,-658.822 1140.89,-652.822 1140.89,-646.822 1140.89,-646.822 1140.89,-517.822 1140.89,-517.822 1140.89,-511.822 1146.89,-505.822 1152.89,-505.822"/>
<text text-anchor="middle" x="1229.39" y="-643.622" font-family="Times,serif" font-size="14.00">Api::V1::MessagesController</text>
<polyline fill="none" stroke="black" points="1140.89,-635.822 1317.89,-635.822 "/>
<text text-anchor="start" x="1148.89" y="-620.622" font-family="Times,serif" font-size="14.00">create</text>
<text text-anchor="start" x="1148.89" y="-605.622" font-family="Times,serif" font-size="14.00">index</text>
<text text-anchor="start" x="1148.89" y="-590.622" font-family="Times,serif" font-size="14.00">mark_read</text>
<text text-anchor="start" x="1148.89" y="-575.622" font-family="Times,serif" font-size="14.00">show</text>
<polyline fill="none" stroke="black" points="1140.89,-567.822 1317.89,-567.822 "/>
<polyline fill="none" stroke="black" points="1140.89,-543.822 1317.89,-543.822 "/>
<text text-anchor="start" x="1148.89" y="-528.622" font-family="Times,serif" font-size="14.00">message_params</text>
<text text-anchor="start" x="1148.89" y="-513.622" font-family="Times,serif" font-size="14.00">serializer</text>
</g>
<!-- Api::V1::ApiController&#45;&gt;Api::V1::MessagesController -->
<g id="edge13" class="edge"><title>Api::V1::ApiController&#45;&gt;Api::V1::MessagesController</title>
<path fill="none" stroke="black" d="M766.151,-485.778C863.207,-506.006 1035.64,-541.942 1140.54,-563.805"/>
</g>
<!-- Api::V1::DonorConditionsController -->
<g id="node15" class="node"><title>Api::V1::DonorConditionsController</title>
<path fill="none" stroke="black" d="M1098.96,-923.514C1098.96,-923.514 1292.96,-923.514 1292.96,-923.514 1298.96,-923.514 1304.96,-929.514 1304.96,-935.514 1304.96,-935.514 1304.96,-1019.51 1304.96,-1019.51 1304.96,-1025.51 1298.96,-1031.51 1292.96,-1031.51 1292.96,-1031.51 1098.96,-1031.51 1098.96,-1031.51 1092.96,-1031.51 1086.96,-1025.51 1086.96,-1019.51 1086.96,-1019.51 1086.96,-935.514 1086.96,-935.514 1086.96,-929.514 1092.96,-923.514 1098.96,-923.514"/>
<text text-anchor="middle" x="1195.96" y="-1016.31" font-family="Times,serif" font-size="14.00">Api::V1::DonorConditionsController</text>
<polyline fill="none" stroke="black" points="1086.96,-1008.51 1304.96,-1008.51 "/>
<text text-anchor="start" x="1094.96" y="-993.314" font-family="Times,serif" font-size="14.00">index</text>
<text text-anchor="start" x="1094.96" y="-978.314" font-family="Times,serif" font-size="14.00">show</text>
<polyline fill="none" stroke="black" points="1086.96,-970.514 1304.96,-970.514 "/>
<polyline fill="none" stroke="black" points="1086.96,-946.514 1304.96,-946.514 "/>
<text text-anchor="start" x="1094.96" y="-931.314" font-family="Times,serif" font-size="14.00">serializer</text>
</g>
<!-- Api::V1::ApiController&#45;&gt;Api::V1::DonorConditionsController -->
<g id="edge14" class="edge"><title>Api::V1::ApiController&#45;&gt;Api::V1::DonorConditionsController</title>
<path fill="none" stroke="black" d="M710.736,-525.248C732.204,-587.873 774.414,-690.902 838.326,-760.366 907.795,-835.872 1009.48,-894.163 1086.68,-931.25"/>
</g>
<!-- Api::V1::OffersController -->
<g id="node16" class="node"><title>Api::V1::OffersController</title>
<path fill="none" stroke="black" d="M766.395,-928.289C766.395,-928.289 900.395,-928.289 900.395,-928.289 906.395,-928.289 912.395,-934.289 912.395,-940.289 912.395,-940.289 912.395,-1099.29 912.395,-1099.29 912.395,-1105.29 906.395,-1111.29 900.395,-1111.29 900.395,-1111.29 766.395,-1111.29 766.395,-1111.29 760.395,-1111.29 754.395,-1105.29 754.395,-1099.29 754.395,-1099.29 754.395,-940.289 754.395,-940.289 754.395,-934.289 760.395,-928.289 766.395,-928.289"/>
<text text-anchor="middle" x="833.395" y="-1096.09" font-family="Times,serif" font-size="14.00">Api::V1::OffersController</text>
<polyline fill="none" stroke="black" points="754.395,-1088.29 912.395,-1088.29 "/>
<text text-anchor="start" x="762.395" y="-1073.09" font-family="Times,serif" font-size="14.00">create</text>
<text text-anchor="start" x="762.395" y="-1058.09" font-family="Times,serif" font-size="14.00">destroy</text>
<text text-anchor="start" x="762.395" y="-1043.09" font-family="Times,serif" font-size="14.00">index</text>
<text text-anchor="start" x="762.395" y="-1028.09" font-family="Times,serif" font-size="14.00">show</text>
<text text-anchor="start" x="762.395" y="-1013.09" font-family="Times,serif" font-size="14.00">update</text>
<polyline fill="none" stroke="black" points="754.395,-1005.29 912.395,-1005.29 "/>
<polyline fill="none" stroke="black" points="754.395,-981.289 912.395,-981.289 "/>
<text text-anchor="start" x="762.395" y="-966.089" font-family="Times,serif" font-size="14.00">eager_load_offer</text>
<text text-anchor="start" x="762.395" y="-951.089" font-family="Times,serif" font-size="14.00">offer_params</text>
<text text-anchor="start" x="762.395" y="-936.089" font-family="Times,serif" font-size="14.00">serializer</text>
</g>
<!-- Api::V1::ApiController&#45;&gt;Api::V1::OffersController -->
<g id="edge15" class="edge"><title>Api::V1::ApiController&#45;&gt;Api::V1::OffersController</title>
<path fill="none" stroke="black" d="M711.975,-525.594C722.514,-558.5 735.726,-601.28 746.042,-639.665 772.313,-737.429 797.691,-850.644 814.26,-927.923"/>
</g>
<!-- Api::V1::SchedulesController -->
<g id="node17" class="node"><title>Api::V1::SchedulesController</title>
<path fill="none" stroke="black" d="M882.675,-348.164C882.675,-348.164 1037.68,-348.164 1037.68,-348.164 1043.68,-348.164 1049.68,-354.164 1049.68,-360.164 1049.68,-360.164 1049.68,-459.164 1049.68,-459.164 1049.68,-465.164 1043.68,-471.164 1037.68,-471.164 1037.68,-471.164 882.675,-471.164 882.675,-471.164 876.675,-471.164 870.675,-465.164 870.675,-459.164 870.675,-459.164 870.675,-360.164 870.675,-360.164 870.675,-354.164 876.675,-348.164 882.675,-348.164"/>
<text text-anchor="middle" x="960.175" y="-455.964" font-family="Times,serif" font-size="14.00">Api::V1::SchedulesController</text>
<polyline fill="none" stroke="black" points="870.675,-448.164 1049.68,-448.164 "/>
<text text-anchor="start" x="878.675" y="-432.964" font-family="Times,serif" font-size="14.00">availableTimeSlots</text>
<text text-anchor="start" x="878.675" y="-417.964" font-family="Times,serif" font-size="14.00">create</text>
<polyline fill="none" stroke="black" points="870.675,-410.164 1049.68,-410.164 "/>
<polyline fill="none" stroke="black" points="870.675,-386.164 1049.68,-386.164 "/>
<text text-anchor="start" x="878.675" y="-370.964" font-family="Times,serif" font-size="14.00">schedule_params</text>
<text text-anchor="start" x="878.675" y="-355.964" font-family="Times,serif" font-size="14.00">serializer</text>
</g>
<!-- Api::V1::ApiController&#45;&gt;Api::V1::SchedulesController -->
<g id="edge16" class="edge"><title>Api::V1::ApiController&#45;&gt;Api::V1::SchedulesController</title>
<path fill="none" stroke="black" d="M765.985,-454.203C798.171,-446.821 836.438,-438.044 870.458,-430.241"/>
</g>
<!-- Api::V1::UsersController -->
<g id="node18" class="node"><title>Api::V1::UsersController</title>
<path fill="none" stroke="black" d="M901.462,-0.5C901.462,-0.5 1032.46,-0.5 1032.46,-0.5 1038.46,-0.5 1044.46,-6.5 1044.46,-12.5 1044.46,-12.5 1044.46,-96.5 1044.46,-96.5 1044.46,-102.5 1038.46,-108.5 1032.46,-108.5 1032.46,-108.5 901.462,-108.5 901.462,-108.5 895.462,-108.5 889.462,-102.5 889.462,-96.5 889.462,-96.5 889.462,-12.5 889.462,-12.5 889.462,-6.5 895.462,-0.5 901.462,-0.5"/>
<text text-anchor="middle" x="966.962" y="-93.3" font-family="Times,serif" font-size="14.00">Api::V1::UsersController</text>
<polyline fill="none" stroke="black" points="889.462,-85.5 1044.46,-85.5 "/>
<text text-anchor="start" x="897.462" y="-70.3" font-family="Times,serif" font-size="14.00">index</text>
<text text-anchor="start" x="897.462" y="-55.3" font-family="Times,serif" font-size="14.00">show</text>
<polyline fill="none" stroke="black" points="889.462,-47.5 1044.46,-47.5 "/>
<polyline fill="none" stroke="black" points="889.462,-23.5 1044.46,-23.5 "/>
<text text-anchor="start" x="897.462" y="-8.3" font-family="Times,serif" font-size="14.00">serializer</text>
</g>
<!-- Api::V1::ApiController&#45;&gt;Api::V1::UsersController -->
<g id="edge17" class="edge"><title>Api::V1::ApiController&#45;&gt;Api::V1::UsersController</title>
<path fill="none" stroke="black" d="M747.475,-415.963C785.689,-374.959 836.592,-316.247 873.178,-258.681 903.728,-210.615 929.936,-150.963 946.817,-108.574"/>
</g>
<!-- Api::V1::DistrictsController -->
<g id="node19" class="node"><title>Api::V1::DistrictsController</title>
<path fill="none" stroke="black" d="M67.2191,-957.402C67.2191,-957.402 213.219,-957.402 213.219,-957.402 219.219,-957.402 225.219,-963.402 225.219,-969.402 225.219,-969.402 225.219,-1053.4 225.219,-1053.4 225.219,-1059.4 219.219,-1065.4 213.219,-1065.4 213.219,-1065.4 67.2191,-1065.4 67.2191,-1065.4 61.2191,-1065.4 55.2191,-1059.4 55.2191,-1053.4 55.2191,-1053.4 55.2191,-969.402 55.2191,-969.402 55.2191,-963.402 61.2191,-957.402 67.2191,-957.402"/>
<text text-anchor="middle" x="140.219" y="-1050.2" font-family="Times,serif" font-size="14.00">Api::V1::DistrictsController</text>
<polyline fill="none" stroke="black" points="55.2191,-1042.4 225.219,-1042.4 "/>
<text text-anchor="start" x="63.2191" y="-1027.2" font-family="Times,serif" font-size="14.00">index</text>
<text text-anchor="start" x="63.2191" y="-1012.2" font-family="Times,serif" font-size="14.00">show</text>
<polyline fill="none" stroke="black" points="55.2191,-1004.4 225.219,-1004.4 "/>
<polyline fill="none" stroke="black" points="55.2191,-980.402 225.219,-980.402 "/>
<text text-anchor="start" x="63.2191" y="-965.202" font-family="Times,serif" font-size="14.00">serializer</text>
</g>
<!-- Api::V1::ApiController&#45;&gt;Api::V1::DistrictsController -->
<g id="edge18" class="edge"><title>Api::V1::ApiController&#45;&gt;Api::V1::DistrictsController</title>
<path fill="none" stroke="black" d="M656.813,-525.538C635.082,-558.242 607.509,-600.836 584.642,-639.665 550.319,-697.947 558.941,-724.294 512.99,-773.926 430.363,-863.173 307.156,-932.94 225.291,-973.138"/>
</g>
<!-- UnauthorizedController -->
<g id="node20" class="node"><title>UnauthorizedController</title>
<path fill="none" stroke="black" d="M1355,-1185.5C1355,-1185.5 1477,-1185.5 1477,-1185.5 1483,-1185.5 1489,-1191.5 1489,-1197.5 1489,-1197.5 1489,-1462.5 1489,-1462.5 1489,-1468.5 1483,-1474.5 1477,-1474.5 1477,-1474.5 1355,-1474.5 1355,-1474.5 1349,-1474.5 1343,-1468.5 1343,-1462.5 1343,-1462.5 1343,-1197.5 1343,-1197.5 1343,-1191.5 1349,-1185.5 1355,-1185.5"/>
<text text-anchor="middle" x="1416" y="-1459.3" font-family="Times,serif" font-size="14.00">UnauthorizedController</text>
<polyline fill="none" stroke="black" points="1343,-1451.5 1489,-1451.5 "/>
<text text-anchor="start" x="1351" y="-1436.3" font-family="Times,serif" font-size="14.00">_renderers</text>
<text text-anchor="start" x="1351" y="-1421.3" font-family="Times,serif" font-size="14.00">_renderers=</text>
<text text-anchor="start" x="1351" y="-1406.3" font-family="Times,serif" font-size="14.00">_renderers?</text>
<text text-anchor="start" x="1351" y="-1391.3" font-family="Times,serif" font-size="14.00">_view_paths</text>
<text text-anchor="start" x="1351" y="-1376.3" font-family="Times,serif" font-size="14.00">_view_paths=</text>
<text text-anchor="start" x="1351" y="-1361.3" font-family="Times,serif" font-size="14.00">_view_paths?</text>
<text text-anchor="start" x="1351" y="-1346.3" font-family="Times,serif" font-size="14.00">default_url_options</text>
<text text-anchor="start" x="1351" y="-1331.3" font-family="Times,serif" font-size="14.00">default_url_options=</text>
<text text-anchor="start" x="1351" y="-1316.3" font-family="Times,serif" font-size="14.00">default_url_options?</text>
<text text-anchor="start" x="1351" y="-1301.3" font-family="Times,serif" font-size="14.00">logger</text>
<text text-anchor="start" x="1351" y="-1286.3" font-family="Times,serif" font-size="14.00">logger=</text>
<text text-anchor="start" x="1351" y="-1271.3" font-family="Times,serif" font-size="14.00">respond</text>
<text text-anchor="start" x="1351" y="-1256.3" font-family="Times,serif" font-size="14.00">warden_message</text>
<text text-anchor="start" x="1351" y="-1241.3" font-family="Times,serif" font-size="14.00">warden_options</text>
<polyline fill="none" stroke="black" points="1343,-1233.5 1489,-1233.5 "/>
<polyline fill="none" stroke="black" points="1343,-1209.5 1489,-1209.5 "/>
</g>
<!-- ApplicationController -->
<g id="node21" class="node"><title>ApplicationController</title>
<path fill="none" stroke="black" d="M37.7201,-645.016C37.7201,-645.016 149.72,-645.016 149.72,-645.016 155.72,-645.016 161.72,-651.016 161.72,-657.016 161.72,-657.016 161.72,-742.016 161.72,-742.016 161.72,-748.016 155.72,-754.016 149.72,-754.016 149.72,-754.016 37.7201,-754.016 37.7201,-754.016 31.7201,-754.016 25.7201,-748.016 25.7201,-742.016 25.7201,-742.016 25.7201,-657.016 25.7201,-657.016 25.7201,-651.016 31.7201,-645.016 37.7201,-645.016"/>
<text text-anchor="middle" x="93.7201" y="-738.816" font-family="Times,serif" font-size="14.00">ApplicationController</text>
<polyline fill="none" stroke="black" points="25.7201,-731.016 161.72,-731.016 "/>
<polyline fill="none" stroke="black" points="25.7201,-707.016 161.72,-707.016 "/>
<polyline fill="none" stroke="black" points="25.7201,-683.016 161.72,-683.016 "/>
<text text-anchor="start" x="33.7201" y="-667.816" font-family="Times,serif" font-size="14.00">current_user</text>
<text text-anchor="start" x="33.7201" y="-652.816" font-family="Times,serif" font-size="14.00">set_locale</text>
</g>
<!-- ApplicationController&#45;&gt;Api::V1::ApiController -->
<g id="edge3" class="edge"><title>ApplicationController&#45;&gt;Api::V1::ApiController</title>
<path fill="none" stroke="black" d="M162.158,-670.978C202.824,-654.193 255.492,-632.755 302.59,-614.526 413.465,-571.613 543.164,-524.571 621.89,-496.364"/>
</g>
</g>
</svg>
