<?xml version="1.0" encoding="UTF-8" standalone="no"?>
<!DOCTYPE svg PUBLIC "-//W3C//DTD SVG 1.1//EN"
 "http://www.w3.org/Graphics/SVG/1.1/DTD/svg11.dtd">
<!-- Generated by graphviz version 2.26.3 (20100126.1600)
 -->
<!-- Title: models_diagram Pages: 1 -->
<svg width="1251pt" height="1146pt"
 viewBox="0.00 0.00 1250.89 1146.00" xmlns="http://www.w3.org/2000/svg" xmlns:xlink="http://www.w3.org/1999/xlink">
<g id="graph1" class="graph" transform="scale(1 1) rotate(0) translate(4 1142)">
<title>models_diagram</title>
<polygon fill="white" stroke="white" points="-4,5 -4,-1142 1247.89,-1142 1247.89,5 -4,5"/>
<!-- _diagram_info -->
<g id="node1" class="node"><title>_diagram_info</title>
<text text-anchor="start" x="481.888" y="-1121.8" font-family="Times Roman,serif" font-size="13.00">Models diagram</text>
<text text-anchor="start" x="481.888" y="-1104.8" font-family="Times Roman,serif" font-size="13.00">Date: Jul 03 2014 &#45; 17:25</text>
<text text-anchor="start" x="481.888" y="-1087.8" font-family="Times Roman,serif" font-size="13.00">Migration version: 20140628072714</text>
<text text-anchor="start" x="481.888" y="-1070.8" font-family="Times Roman,serif" font-size="13.00">Generated by RailRoady 1.1.1</text>
<text text-anchor="start" x="481.888" y="-1053.8" font-family="Times Roman,serif" font-size="13.00">http://railroady.prestonlee.com</text>
</g>
<!-- User -->
<g id="node2" class="node"><title>User</title>
<polyline fill="none" stroke="black" points="329.388,-865 470.388,-865 "/>
<path fill="none" stroke="black" d="M470.388,-865C476.388,-865 482.388,-871 482.388,-877"/>
<polyline fill="none" stroke="black" points="482.388,-877 482.388,-995 "/>
<path fill="none" stroke="black" d="M482.388,-995C482.388,-1001 476.388,-1007 470.388,-1007"/>
<polyline fill="none" stroke="black" points="470.388,-1007 329.388,-1007 "/>
<path fill="none" stroke="black" d="M329.388,-1007C323.388,-1007 317.388,-1001 317.388,-995"/>
<polyline fill="none" stroke="black" points="317.388,-995 317.388,-877 "/>
<path fill="none" stroke="black" d="M317.388,-877C317.388,-871 323.388,-865 329.388,-865"/>
<text text-anchor="middle" x="399.888" y="-990.4" font-family="Times Roman,serif" font-size="14.00">User</text>
<polyline fill="none" stroke="black" points="317.388,-981 482.388,-981 "/>
<text text-anchor="start" x="325.388" y="-964.4" font-family="Times Roman,serif" font-size="14.00">id :integer</text>
<text text-anchor="start" x="325.388" y="-946.4" font-family="Times Roman,serif" font-size="14.00">first_name :string</text>
<text text-anchor="start" x="325.388" y="-928.4" font-family="Times Roman,serif" font-size="14.00">last_name :string</text>
<text text-anchor="start" x="325.388" y="-910.4" font-family="Times Roman,serif" font-size="14.00">mobile :string</text>
<text text-anchor="start" x="325.388" y="-892.4" font-family="Times Roman,serif" font-size="14.00">created_at :datetime</text>
<text text-anchor="start" x="325.388" y="-874.4" font-family="Times Roman,serif" font-size="14.00">updated_at :datetime</text>
</g>
<!-- Offer -->
<g id="node3" class="node"><title>Offer</title>
<polyline fill="none" stroke="black" points="519.388,-559 734.388,-559 "/>
<path fill="none" stroke="black" d="M734.388,-559C740.388,-559 746.388,-565 746.388,-571"/>
<polyline fill="none" stroke="black" points="746.388,-571 746.388,-815 "/>
<path fill="none" stroke="black" d="M746.388,-815C746.388,-821 740.388,-827 734.388,-827"/>
<polyline fill="none" stroke="black" points="734.388,-827 519.388,-827 "/>
<path fill="none" stroke="black" d="M519.388,-827C513.388,-827 507.388,-821 507.388,-815"/>
<polyline fill="none" stroke="black" points="507.388,-815 507.388,-571 "/>
<path fill="none" stroke="black" d="M507.388,-571C507.388,-565 513.388,-559 519.388,-559"/>
<text text-anchor="middle" x="626.888" y="-810.4" font-family="Times Roman,serif" font-size="14.00">Offer</text>
<polyline fill="none" stroke="black" points="507.388,-801 746.388,-801 "/>
<text text-anchor="start" x="515.388" y="-784.4" font-family="Times Roman,serif" font-size="14.00">id :integer</text>
<text text-anchor="start" x="515.388" y="-766.4" font-family="Times Roman,serif" font-size="14.00">language :string</text>
<text text-anchor="start" x="515.388" y="-748.4" font-family="Times Roman,serif" font-size="14.00">state :string</text>
<text text-anchor="start" x="515.388" y="-730.4" font-family="Times Roman,serif" font-size="14.00">collection_contact_name :string</text>
<text text-anchor="start" x="515.388" y="-712.4" font-family="Times Roman,serif" font-size="14.00">collection_contact_phone :string</text>
<text text-anchor="start" x="515.388" y="-694.4" font-family="Times Roman,serif" font-size="14.00">origin :string</text>
<text text-anchor="start" x="515.388" y="-676.4" font-family="Times Roman,serif" font-size="14.00">stairs :boolean</text>
<text text-anchor="start" x="515.388" y="-658.4" font-family="Times Roman,serif" font-size="14.00">parking :boolean</text>
<text text-anchor="start" x="515.388" y="-640.4" font-family="Times Roman,serif" font-size="14.00">estimated_size :string</text>
<text text-anchor="start" x="515.388" y="-622.4" font-family="Times Roman,serif" font-size="14.00">notes :text</text>
<text text-anchor="start" x="515.388" y="-604.4" font-family="Times Roman,serif" font-size="14.00">created_by_id :integer</text>
<text text-anchor="start" x="515.388" y="-586.4" font-family="Times Roman,serif" font-size="14.00">created_at :datetime</text>
<text text-anchor="start" x="515.388" y="-568.4" font-family="Times Roman,serif" font-size="14.00">updated_at :datetime</text>
</g>
<!-- User&#45;&gt;Offer -->
<g id="edge2" class="edge"><title>User&#45;&gt;Offer</title>
<path fill="none" stroke="#f12b88" d="M471.926,-858.885C480.969,-849.205 490.419,-839.089 499.998,-828.834"/>
<ellipse fill="none" stroke="#f12b88" cx="469.193" cy="-861.811" rx="4.00002" ry="4.00002"/>
<polygon fill="#f12b88" stroke="#f12b88" points="500.165,-828.655 510.28,-824.419 503.578,-825.001 506.992,-821.348 506.992,-821.348 506.992,-821.348 503.578,-825.001 503.703,-818.276 500.165,-828.655 500.165,-828.655"/>
</g>
<!-- Permission -->
<g id="node4" class="node"><title>Permission</title>
<polyline fill="none" stroke="black" points="101.388,-640 242.388,-640 "/>
<path fill="none" stroke="black" d="M242.388,-640C248.388,-640 254.388,-646 254.388,-652"/>
<polyline fill="none" stroke="black" points="254.388,-652 254.388,-734 "/>
<path fill="none" stroke="black" d="M254.388,-734C254.388,-740 248.388,-746 242.388,-746"/>
<polyline fill="none" stroke="black" points="242.388,-746 101.388,-746 "/>
<path fill="none" stroke="black" d="M101.388,-746C95.3883,-746 89.3883,-740 89.3883,-734"/>
<polyline fill="none" stroke="black" points="89.3883,-734 89.3883,-652 "/>
<path fill="none" stroke="black" d="M89.3883,-652C89.3883,-646 95.3883,-640 101.388,-640"/>
<text text-anchor="middle" x="171.888" y="-729.4" font-family="Times Roman,serif" font-size="14.00">Permission</text>
<polyline fill="none" stroke="black" points="89.3883,-720 254.388,-720 "/>
<text text-anchor="start" x="97.3883" y="-703.4" font-family="Times Roman,serif" font-size="14.00">id :integer</text>
<text text-anchor="start" x="97.3883" y="-685.4" font-family="Times Roman,serif" font-size="14.00">name :string</text>
<text text-anchor="start" x="97.3883" y="-667.4" font-family="Times Roman,serif" font-size="14.00">created_at :datetime</text>
<text text-anchor="start" x="97.3883" y="-649.4" font-family="Times Roman,serif" font-size="14.00">updated_at :datetime</text>
</g>
<!-- User&#45;&gt;Permission -->
<g id="edge8" class="edge"><title>User&#45;&gt;Permission</title>
<path fill="none" stroke="#58bf9e" d="M309.666,-867.651C295.095,-855.097 280.629,-841.632 267.888,-828 246.985,-805.634 226.866,-778.526 210.495,-754.487"/>
<polygon fill="#58bf9e" stroke="#58bf9e" points="309.667,-867.652 314.372,-877.557 313.477,-870.89 317.286,-874.129 317.286,-874.129 317.286,-874.129 313.477,-870.89 320.201,-870.7 309.667,-867.652 309.667,-867.652"/>
<polygon fill="#58bf9e" stroke="#58bf9e" points="210.45,-754.42 208.598,-743.612 207.657,-750.273 204.865,-746.125 204.865,-746.125 204.865,-746.125 207.657,-750.273 201.132,-748.638 210.45,-754.42 210.45,-754.42"/>
</g>
<!-- Message -->
<g id="node6" class="node"><title>Message</title>
<polyline fill="none" stroke="black" points="310.388,-46 451.388,-46 "/>
<path fill="none" stroke="black" d="M451.388,-46C457.388,-46 463.388,-52 463.388,-58"/>
<polyline fill="none" stroke="black" points="463.388,-58 463.388,-212 "/>
<path fill="none" stroke="black" d="M463.388,-212C463.388,-218 457.388,-224 451.388,-224"/>
<polyline fill="none" stroke="black" points="451.388,-224 310.388,-224 "/>
<path fill="none" stroke="black" d="M310.388,-224C304.388,-224 298.388,-218 298.388,-212"/>
<polyline fill="none" stroke="black" points="298.388,-212 298.388,-58 "/>
<path fill="none" stroke="black" d="M298.388,-58C298.388,-52 304.388,-46 310.388,-46"/>
<text text-anchor="middle" x="380.888" y="-207.4" font-family="Times Roman,serif" font-size="14.00">Message</text>
<polyline fill="none" stroke="black" points="298.388,-198 463.388,-198 "/>
<text text-anchor="start" x="306.388" y="-181.4" font-family="Times Roman,serif" font-size="14.00">id :integer</text>
<text text-anchor="start" x="306.388" y="-163.4" font-family="Times Roman,serif" font-size="14.00">body :text</text>
<text text-anchor="start" x="306.388" y="-145.4" font-family="Times Roman,serif" font-size="14.00">recipient_type :string</text>
<text text-anchor="start" x="306.388" y="-127.4" font-family="Times Roman,serif" font-size="14.00">recipient_id :integer</text>
<text text-anchor="start" x="306.388" y="-109.4" font-family="Times Roman,serif" font-size="14.00">sender_id :integer</text>
<text text-anchor="start" x="306.388" y="-91.4" font-family="Times Roman,serif" font-size="14.00">private :boolean</text>
<text text-anchor="start" x="306.388" y="-73.4" font-family="Times Roman,serif" font-size="14.00">created_at :datetime</text>
<text text-anchor="start" x="306.388" y="-55.4" font-family="Times Roman,serif" font-size="14.00">updated_at :datetime</text>
</g>
<!-- User&#45;&gt;Message -->
<g id="edge4" class="edge"><title>User&#45;&gt;Message</title>
<path fill="none" stroke="#a932fa" d="M317.308,-858.377C310.708,-848.779 305.009,-838.593 300.888,-828 222.906,-627.524 291.64,-371.648 341.045,-233.745"/>
<ellipse fill="none" stroke="#a932fa" cx="319.679" cy="-861.677" rx="4.00002" ry="4.00002"/>
<polygon fill="#a932fa" stroke="#a932fa" points="341.161,-233.425 348.797,-225.555 342.863,-228.724 344.566,-224.023 344.566,-224.023 344.566,-224.023 342.863,-228.724 340.335,-222.49 341.161,-233.425 341.161,-233.425"/>
</g>
<!-- UsersPermission -->
<g id="node15" class="node"><title>UsersPermission</title>
<ellipse fill="none" stroke="black" cx="399.888" cy="-693" rx="90.0096" ry="18.3848"/>
<text text-anchor="middle" x="399.888" y="-689.4" font-family="Times Roman,serif" font-size="14.00">UsersPermission</text>
</g>
<!-- User&#45;&gt;UsersPermission -->
<g id="edge6" class="edge"><title>User&#45;&gt;UsersPermission</title>
<path fill="none" stroke="#c9003f" d="M399.888,-856.579C399.888,-810.335 399.888,-754.814 399.888,-721.798"/>
<ellipse fill="none" stroke="#c9003f" cx="399.888" cy="-860.734" rx="4" ry="4"/>
<polygon fill="#c9003f" stroke="#c9003f" points="399.888,-721.51 404.388,-711.51 399.888,-716.51 399.888,-711.51 399.888,-711.51 399.888,-711.51 399.888,-716.51 395.388,-711.51 399.888,-721.51 399.888,-721.51"/>
</g>
<!-- Item -->
<g id="node5" class="node"><title>Item</title>
<polyline fill="none" stroke="black" points="855.888,-307 1055.89,-307 "/>
<path fill="none" stroke="black" d="M1055.89,-307C1061.89,-307 1067.89,-313 1067.89,-319"/>
<polyline fill="none" stroke="black" points="1067.89,-319 1067.89,-509 "/>
<path fill="none" stroke="black" d="M1067.89,-509C1067.89,-515 1061.89,-521 1055.89,-521"/>
<polyline fill="none" stroke="black" points="1055.89,-521 855.888,-521 "/>
<path fill="none" stroke="black" d="M855.888,-521C849.888,-521 843.888,-515 843.888,-509"/>
<polyline fill="none" stroke="black" points="843.888,-509 843.888,-319 "/>
<path fill="none" stroke="black" d="M843.888,-319C843.888,-313 849.888,-307 855.888,-307"/>
<text text-anchor="middle" x="955.888" y="-504.4" font-family="Times Roman,serif" font-size="14.00">Item</text>
<polyline fill="none" stroke="black" points="843.888,-495 1067.89,-495 "/>
<text text-anchor="start" x="851.888" y="-478.4" font-family="Times Roman,serif" font-size="14.00">id :integer</text>
<text text-anchor="start" x="851.888" y="-460.4" font-family="Times Roman,serif" font-size="14.00">donor_description :text</text>
<text text-anchor="start" x="851.888" y="-442.4" font-family="Times Roman,serif" font-size="14.00">donor_condition :string</text>
<text text-anchor="start" x="851.888" y="-424.4" font-family="Times Roman,serif" font-size="14.00">state :string</text>
<text text-anchor="start" x="851.888" y="-406.4" font-family="Times Roman,serif" font-size="14.00">offer_id :integer</text>
<text text-anchor="start" x="851.888" y="-388.4" font-family="Times Roman,serif" font-size="14.00">item_type_id :integer</text>
<text text-anchor="start" x="851.888" y="-370.4" font-family="Times Roman,serif" font-size="14.00">rejection_reason_id :integer</text>
<text text-anchor="start" x="851.888" y="-352.4" font-family="Times Roman,serif" font-size="14.00">rejection_other_reason :string</text>
<text text-anchor="start" x="851.888" y="-334.4" font-family="Times Roman,serif" font-size="14.00">created_at :datetime</text>
<text text-anchor="start" x="851.888" y="-316.4" font-family="Times Roman,serif" font-size="14.00">updated_at :datetime</text>
</g>
<!-- Offer&#45;&gt;Item -->
<g id="edge14" class="edge"><title>Offer&#45;&gt;Item</title>
<path fill="none" stroke="#dce388" d="M752.524,-560.071C753.313,-559.377 754.101,-558.686 754.888,-558 779.891,-536.211 808.108,-514.458 835.324,-494.705"/>
<ellipse fill="none" stroke="#dce388" cx="749.458" cy="-562.807" rx="4.00002" ry="4.00002"/>
<polygon fill="#dce388" stroke="#dce388" points="835.622,-494.489 846.365,-492.29 839.678,-491.565 843.733,-488.64 843.733,-488.64 843.733,-488.64 839.678,-491.565 841.101,-484.99 835.622,-494.489 835.622,-494.489"/>
</g>
<!-- Offer&#45;&gt;Message -->
<g id="edge12" class="edge"><title>Offer&#45;&gt;Message</title>
<path fill="none" stroke="#14c377" d="M564.569,-551.641C520.761,-452.273 463.251,-321.824 424.341,-233.563"/>
<ellipse fill="none" stroke="#14c377" cx="566.195" cy="-555.33" rx="4.00002" ry="4.00002"/>
<polygon fill="#14c377" stroke="#14c377" points="424.315,-233.505 424.399,-222.539 422.298,-228.93 420.281,-224.355 420.281,-224.355 420.281,-224.355 422.298,-228.93 416.164,-226.17 424.315,-233.505 424.315,-233.505"/>
</g>
<!-- PermissionsUser -->
<g id="node23" class="node"><title>PermissionsUser</title>
<ellipse fill="none" stroke="black" cx="167.888" cy="-414" rx="90.0096" ry="18.3848"/>
<text text-anchor="middle" x="167.888" y="-410.4" font-family="Times Roman,serif" font-size="14.00">PermissionsUser</text>
</g>
<!-- Permission&#45;&gt;PermissionsUser -->
<g id="edge18" class="edge"><title>Permission&#45;&gt;PermissionsUser</title>
<path fill="none" stroke="#a9fe31" d="M171.007,-631.505C170.165,-572.787 168.933,-486.896 168.299,-442.669"/>
<ellipse fill="none" stroke="#a9fe31" cx="171.069" cy="-635.866" rx="4" ry="4"/>
<polygon fill="#a9fe31" stroke="#a9fe31" points="168.299,-442.616 172.655,-432.552 168.227,-437.616 168.155,-432.617 168.155,-432.617 168.155,-432.617 168.227,-437.616 163.656,-432.681 168.299,-442.616 168.299,-442.616"/>
</g>
<!-- Item&#45;&gt;Message -->
<g id="edge22" class="edge"><title>Item&#45;&gt;Message</title>
<path fill="none" stroke="#96fdb0" d="M836.386,-356.015C728.21,-303.527 571.154,-227.32 472.59,-179.495"/>
<ellipse fill="none" stroke="#96fdb0" cx="840.059" cy="-357.797" rx="4.00002" ry="4.00002"/>
<polygon fill="#96fdb0" stroke="#96fdb0" points="472.53,-179.466 465.498,-171.052 468.032,-177.284 463.533,-175.101 463.533,-175.101 463.533,-175.101 468.032,-177.284 461.569,-179.149 472.53,-179.466 472.53,-179.466"/>
</g>
<!-- Package -->
<g id="node8" class="node"><title>Package</title>
<polyline fill="none" stroke="black" points="865.388,-1 1030.39,-1 "/>
<path fill="none" stroke="black" d="M1030.39,-1C1036.39,-1 1042.39,-7 1042.39,-13"/>
<polyline fill="none" stroke="black" points="1042.39,-13 1042.39,-257 "/>
<path fill="none" stroke="black" d="M1042.39,-257C1042.39,-263 1036.39,-269 1030.39,-269"/>
<polyline fill="none" stroke="black" points="1030.39,-269 865.388,-269 "/>
<path fill="none" stroke="black" d="M865.388,-269C859.388,-269 853.388,-263 853.388,-257"/>
<polyline fill="none" stroke="black" points="853.388,-257 853.388,-13 "/>
<path fill="none" stroke="black" d="M853.388,-13C853.388,-7 859.388,-1 865.388,-1"/>
<text text-anchor="middle" x="947.888" y="-252.4" font-family="Times Roman,serif" font-size="14.00">Package</text>
<polyline fill="none" stroke="black" points="853.388,-243 1042.39,-243 "/>
<text text-anchor="start" x="861.388" y="-226.4" font-family="Times Roman,serif" font-size="14.00">id :integer</text>
<text text-anchor="start" x="861.388" y="-208.4" font-family="Times Roman,serif" font-size="14.00">quantity :integer</text>
<text text-anchor="start" x="861.388" y="-190.4" font-family="Times Roman,serif" font-size="14.00">length :integer</text>
<text text-anchor="start" x="861.388" y="-172.4" font-family="Times Roman,serif" font-size="14.00">width :integer</text>
<text text-anchor="start" x="861.388" y="-154.4" font-family="Times Roman,serif" font-size="14.00">height :integer</text>
<text text-anchor="start" x="861.388" y="-136.4" font-family="Times Roman,serif" font-size="14.00">notes :text</text>
<text text-anchor="start" x="861.388" y="-118.4" font-family="Times Roman,serif" font-size="14.00">item_id :integer</text>
<text text-anchor="start" x="861.388" y="-100.4" font-family="Times Roman,serif" font-size="14.00">state :string</text>
<text text-anchor="start" x="861.388" y="-82.4" font-family="Times Roman,serif" font-size="14.00">received_at :datetime</text>
<text text-anchor="start" x="861.388" y="-64.4" font-family="Times Roman,serif" font-size="14.00">rejected_at :datetime</text>
<text text-anchor="start" x="861.388" y="-46.4" font-family="Times Roman,serif" font-size="14.00">package_type_id :integer</text>
<text text-anchor="start" x="861.388" y="-28.4" font-family="Times Roman,serif" font-size="14.00">created_at :datetime</text>
<text text-anchor="start" x="861.388" y="-10.4" font-family="Times Roman,serif" font-size="14.00">updated_at :datetime</text>
</g>
<!-- Item&#45;&gt;Package -->
<g id="edge26" class="edge"><title>Item&#45;&gt;Package</title>
<path fill="none" stroke="#30ecb3" d="M952.585,-298.815C952.403,-292.442 952.218,-286 952.033,-279.543"/>
<ellipse fill="none" stroke="#30ecb3" cx="952.703" cy="-302.931" rx="4" ry="4"/>
<polygon fill="#30ecb3" stroke="#30ecb3" points="952.029,-279.388 956.24,-269.263 951.885,-274.39 951.742,-269.392 951.742,-269.392 951.742,-269.392 951.885,-274.39 947.244,-269.521 952.029,-279.388 952.029,-279.388"/>
</g>
<!-- Image -->
<g id="node11" class="node"><title>Image</title>
<polyline fill="none" stroke="black" points="1071.39,-46 1212.39,-46 "/>
<path fill="none" stroke="black" d="M1212.39,-46C1218.39,-46 1224.39,-52 1224.39,-58"/>
<polyline fill="none" stroke="black" points="1224.39,-58 1224.39,-212 "/>
<path fill="none" stroke="black" d="M1224.39,-212C1224.39,-218 1218.39,-224 1212.39,-224"/>
<polyline fill="none" stroke="black" points="1212.39,-224 1071.39,-224 "/>
<path fill="none" stroke="black" d="M1071.39,-224C1065.39,-224 1059.39,-218 1059.39,-212"/>
<polyline fill="none" stroke="black" points="1059.39,-212 1059.39,-58 "/>
<path fill="none" stroke="black" d="M1059.39,-58C1059.39,-52 1065.39,-46 1071.39,-46"/>
<text text-anchor="middle" x="1141.89" y="-207.4" font-family="Times Roman,serif" font-size="14.00">Image</text>
<polyline fill="none" stroke="black" points="1059.39,-198 1224.39,-198 "/>
<text text-anchor="start" x="1067.39" y="-181.4" font-family="Times Roman,serif" font-size="14.00">id :integer</text>
<text text-anchor="start" x="1067.39" y="-163.4" font-family="Times Roman,serif" font-size="14.00">order :integer</text>
<text text-anchor="start" x="1067.39" y="-145.4" font-family="Times Roman,serif" font-size="14.00">image :string</text>
<text text-anchor="start" x="1067.39" y="-127.4" font-family="Times Roman,serif" font-size="14.00">favourite :boolean</text>
<text text-anchor="start" x="1067.39" y="-109.4" font-family="Times Roman,serif" font-size="14.00">parent_type :string</text>
<text text-anchor="start" x="1067.39" y="-91.4" font-family="Times Roman,serif" font-size="14.00">parent_id :integer</text>
<text text-anchor="start" x="1067.39" y="-73.4" font-family="Times Roman,serif" font-size="14.00">created_at :datetime</text>
<text text-anchor="start" x="1067.39" y="-55.4" font-family="Times Roman,serif" font-size="14.00">updated_at :datetime</text>
</g>
<!-- Item&#45;&gt;Image -->
<g id="edge24" class="edge"><title>Item&#45;&gt;Image</title>
<path fill="none" stroke="#22f606" d="M1031.78,-300.165C1046.7,-277.788 1062.22,-254.499 1076.75,-232.709"/>
<ellipse fill="none" stroke="#22f606" cx="1029.49" cy="-303.601" rx="4.00002" ry="4.00002"/>
<polygon fill="#22f606" stroke="#22f606" points="1076.93,-232.437 1086.22,-226.613 1079.7,-228.277 1082.48,-224.116 1082.48,-224.116 1082.48,-224.116 1079.7,-228.277 1078.73,-221.62 1076.93,-232.437 1076.93,-232.437"/>
</g>
<!-- RejectionReason -->
<g id="node7" class="node"><title>RejectionReason</title>
<polyline fill="none" stroke="black" points="923.388,-883 1064.39,-883 "/>
<path fill="none" stroke="black" d="M1064.39,-883C1070.39,-883 1076.39,-889 1076.39,-895"/>
<polyline fill="none" stroke="black" points="1076.39,-895 1076.39,-977 "/>
<path fill="none" stroke="black" d="M1076.39,-977C1076.39,-983 1070.39,-989 1064.39,-989"/>
<polyline fill="none" stroke="black" points="1064.39,-989 923.388,-989 "/>
<path fill="none" stroke="black" d="M923.388,-989C917.388,-989 911.388,-983 911.388,-977"/>
<polyline fill="none" stroke="black" points="911.388,-977 911.388,-895 "/>
<path fill="none" stroke="black" d="M911.388,-895C911.388,-889 917.388,-883 923.388,-883"/>
<text text-anchor="middle" x="993.888" y="-972.4" font-family="Times Roman,serif" font-size="14.00">RejectionReason</text>
<polyline fill="none" stroke="black" points="911.388,-963 1076.39,-963 "/>
<text text-anchor="start" x="919.388" y="-946.4" font-family="Times Roman,serif" font-size="14.00">id :integer</text>
<text text-anchor="start" x="919.388" y="-928.4" font-family="Times Roman,serif" font-size="14.00">name :string</text>
<text text-anchor="start" x="919.388" y="-910.4" font-family="Times Roman,serif" font-size="14.00">created_at :datetime</text>
<text text-anchor="start" x="919.388" y="-892.4" font-family="Times Roman,serif" font-size="14.00">updated_at :datetime</text>
</g>
<!-- RejectionReason&#45;&gt;Item -->
<g id="edge32" class="edge"><title>RejectionReason&#45;&gt;Item</title>
<path fill="none" stroke="#536281" d="M990.61,-874.344C986.482,-799.48 978.837,-669.396 969.888,-558 969.194,-549.359 968.433,-540.431 967.635,-531.45"/>
<ellipse fill="none" stroke="#536281" cx="990.852" cy="-878.756" rx="4" ry="4"/>
<polygon fill="#536281" stroke="#536281" points="967.618,-531.26 971.202,-520.897 967.169,-526.28 966.72,-521.301 966.72,-521.301 966.72,-521.301 967.169,-526.28 962.238,-521.705 967.618,-531.26 967.618,-531.26"/>
</g>
<!-- ItemType -->
<g id="node9" class="node"><title>ItemType</title>
<polyline fill="none" stroke="black" points="775.388,-622 916.388,-622 "/>
<path fill="none" stroke="black" d="M916.388,-622C922.388,-622 928.388,-628 928.388,-634"/>
<polyline fill="none" stroke="black" points="928.388,-634 928.388,-752 "/>
<path fill="none" stroke="black" d="M928.388,-752C928.388,-758 922.388,-764 916.388,-764"/>
<polyline fill="none" stroke="black" points="916.388,-764 775.388,-764 "/>
<path fill="none" stroke="black" d="M775.388,-764C769.388,-764 763.388,-758 763.388,-752"/>
<polyline fill="none" stroke="black" points="763.388,-752 763.388,-634 "/>
<path fill="none" stroke="black" d="M763.388,-634C763.388,-628 769.388,-622 775.388,-622"/>
<text text-anchor="middle" x="845.888" y="-747.4" font-family="Times Roman,serif" font-size="14.00">ItemType</text>
<polyline fill="none" stroke="black" points="763.388,-738 928.388,-738 "/>
<text text-anchor="start" x="771.388" y="-721.4" font-family="Times Roman,serif" font-size="14.00">id :integer</text>
<text text-anchor="start" x="771.388" y="-703.4" font-family="Times Roman,serif" font-size="14.00">name :string</text>
<text text-anchor="start" x="771.388" y="-685.4" font-family="Times Roman,serif" font-size="14.00">code :string</text>
<text text-anchor="start" x="771.388" y="-667.4" font-family="Times Roman,serif" font-size="14.00">parent_id :integer</text>
<text text-anchor="start" x="771.388" y="-649.4" font-family="Times Roman,serif" font-size="14.00">created_at :datetime</text>
<text text-anchor="start" x="771.388" y="-631.4" font-family="Times Roman,serif" font-size="14.00">updated_at :datetime</text>
</g>
<!-- ItemType&#45;&gt;Item -->
<g id="edge38" class="edge"><title>ItemType&#45;&gt;Item</title>
<path fill="none" stroke="#a844bb" d="M876.944,-614.233C887.184,-588.259 898.801,-558.795 909.912,-530.612"/>
<ellipse fill="none" stroke="#a844bb" cx="875.398" cy="-618.153" rx="4.00001" ry="4.00001"/>
<polygon fill="#a844bb" stroke="#a844bb" points="909.99,-530.414 917.845,-522.761 911.824,-525.762 913.658,-521.11 913.658,-521.11 913.658,-521.11 911.824,-525.762 909.472,-519.46 909.99,-530.414 909.99,-530.414"/>
</g>
<!-- ItemType&#45;&gt;Package -->
<g id="edge40" class="edge"><title>ItemType&#45;&gt;Package</title>
<path fill="none" stroke="#bdcfaf" d="M829.289,-613.647C815.933,-534.045 803.979,-408.84 834.888,-306 838.485,-294.034 843.221,-282.134 848.715,-270.506"/>
<ellipse fill="none" stroke="#bdcfaf" cx="829.992" cy="-617.742" rx="4.00001" ry="4.00001"/>
<polygon fill="#bdcfaf" stroke="#bdcfaf" points="848.859,-270.214 857.315,-263.231 851.068,-265.728 853.278,-261.243 853.278,-261.243 853.278,-261.243 851.068,-265.728 849.241,-259.255 848.859,-270.214 848.859,-270.214"/>
</g>
<!-- Ability -->
<g id="node10" class="node"><title>Ability</title>
<polygon fill="none" stroke="black" points="1169.89,-910 1169.89,-962 1229.89,-962 1229.89,-910 1169.89,-910"/>
<text text-anchor="middle" x="1199.89" y="-945.4" font-family="Times Roman,serif" font-size="14.00">Ability</text>
<polyline fill="none" stroke="black" points="1169.89,-936 1229.89,-936 "/>
<text text-anchor="middle" x="1199.89" y="-919.4" font-family="Times Roman,serif" font-size="14.00"> </text>
</g>
<!-- ActiveRecord::Base -->
<g id="node17" class="node"><title>ActiveRecord::Base</title>
<ellipse fill="none" stroke="black" cx="845.888" cy="-1091" rx="103.945" ry="18.3848"/>
<text text-anchor="middle" x="845.888" y="-1087.4" font-family="Times Roman,serif" font-size="14.00">ActiveRecord::Base</text>
</g>
<!-- ActiveRecord::Base&#45;&gt;User -->
<g id="edge10" class="edge"><title>ActiveRecord::Base&#45;&gt;User</title>
<path fill="none" stroke="black" d="M806.713,-1073.79C785.107,-1064.53 757.702,-1053.17 732.888,-1044 648.512,-1012.83 550.398,-981.602 482.631,-960.803"/>
</g>
<!-- ActiveRecord::Base&#45;&gt;Offer -->
<g id="edge16" class="edge"><title>ActiveRecord::Base&#45;&gt;Offer</title>
<path fill="none" stroke="black" d="M835.619,-1072.34C811.73,-1028.92 750.657,-917.932 700.707,-827.154"/>
</g>
<!-- ActiveRecord::Base&#45;&gt;Permission -->
<g id="edge20" class="edge"><title>ActiveRecord::Base&#45;&gt;Permission</title>
<path fill="none" stroke="black" d="M811.71,-1073.52C789.769,-1063.13 760.341,-1050.7 732.888,-1044 641.025,-1021.57 385.705,-1063.15 308.888,-1008 222.898,-946.269 190.29,-818.706 178.377,-746.279"/>
</g>
<!-- ActiveRecord::Base&#45;&gt;Item -->
<g id="edge28" class="edge"><title>ActiveRecord::Base&#45;&gt;Item</title>
<path fill="none" stroke="black" d="M849.325,-1072.26C858.241,-1024.72 882.82,-900.611 902.888,-864 913.467,-844.701 928.291,-848.259 936.888,-828 959.48,-774.765 961.191,-625.147 959.337,-521.18"/>
</g>
<!-- ActiveRecord::Base&#45;&gt;Message -->
<g id="edge30" class="edge"><title>ActiveRecord::Base&#45;&gt;Message</title>
<path fill="none" stroke="black" d="M811.747,-1073.36C789.821,-1062.91 760.395,-1050.48 732.888,-1044 618.845,-1017.15 308.9,-1065.63 206.888,-1008 121.864,-959.971 112.066,-920.542 80.8883,-828 6.79768,-608.084 -49.3693,-505.669 68.8883,-306 118.071,-222.958 223.445,-177.583 298.096,-154.831"/>
</g>
<!-- ActiveRecord::Base&#45;&gt;RejectionReason -->
<g id="edge34" class="edge"><title>ActiveRecord::Base&#45;&gt;RejectionReason</title>
<path fill="none" stroke="black" d="M863.447,-1072.61C882.972,-1052.16 915.405,-1018.2 943.044,-989.249"/>
</g>
<!-- ActiveRecord::Base&#45;&gt;Package -->
<g id="edge36" class="edge"><title>ActiveRecord::Base&#45;&gt;Package</title>
<path fill="none" stroke="black" d="M912.917,-1076.82C976.253,-1061.9 1064.52,-1036.63 1084.89,-1008 1098.78,-988.464 1127.84,-454.611 1076.89,-306 1076.24,-304.12 1061.64,-284.422 1042.47,-259.017"/>
</g>
<!-- ActiveRecord::Base&#45;&gt;ItemType -->
<g id="edge42" class="edge"><title>ActiveRecord::Base&#45;&gt;ItemType</title>
<path fill="none" stroke="black" d="M845.888,-1072.34C845.888,-1018.09 845.888,-858.326 845.888,-764.332"/>
</g>
<!-- ActiveRecord::Base&#45;&gt;Image -->
<g id="edge46" class="edge"><title>ActiveRecord::Base&#45;&gt;Image</title>
<path fill="none" stroke="black" d="M917.369,-1077.56C985.964,-1063.09 1082.5,-1038.05 1105.89,-1008 1199.18,-888.147 1168.55,-421.629 1150.78,-224.122"/>
</g>
<!-- Object -->
<g id="node36" class="node"><title>Object</title>
<ellipse fill="none" stroke="black" cx="1199.89" cy="-1091" rx="43.1335" ry="18.3848"/>
<text text-anchor="middle" x="1199.89" y="-1087.4" font-family="Times Roman,serif" font-size="14.00">Object</text>
</g>
<!-- Object&#45;&gt;Ability -->
<g id="edge44" class="edge"><title>Object&#45;&gt;Ability</title>
<path fill="none" stroke="black" d="M1199.89,-1072.3C1199.89,-1044.85 1199.89,-993.502 1199.89,-962.268"/>
</g>
</g>
</svg>
