<?xml version="1.0" encoding="UTF-8" standalone="no"?>
<!DOCTYPE svg PUBLIC "-//W3C//DTD SVG 1.1//EN"
 "http://www.w3.org/Graphics/SVG/1.1/DTD/svg11.dtd">
<!-- Generated by graphviz version 2.36.0 (20140111.2315)
 -->
<!-- Title: models_diagram Pages: 1 -->
<svg width="1369pt" height="612pt"
 viewBox="0.00 0.00 1369.00 612.00" xmlns="http://www.w3.org/2000/svg" xmlns:xlink="http://www.w3.org/1999/xlink">
<g id="graph0" class="graph" transform="scale(1 1) rotate(0) translate(4 608)">
<title>models_diagram</title>
<polygon fill="white" stroke="none" points="-4,4 -4,-608 1365,-608 1365,4 -4,4"/>
<!-- _diagram_info -->
<g id="node1" class="node"><title>_diagram_info</title>
<text text-anchor="start" x="444" y="-589.6" font-family="Times,serif" font-size="13.00">Models diagram</text>
<text text-anchor="start" x="444" y="-575.6" font-family="Times,serif" font-size="13.00">Date: Oct 16 2014 &#45; 13:02</text>
<text text-anchor="start" x="444" y="-561.6" font-family="Times,serif" font-size="13.00">Migration version: 20141015063630</text>
<text text-anchor="start" x="444" y="-547.6" font-family="Times,serif" font-size="13.00">Generated by RailRoady 1.1.2</text>
<text text-anchor="start" x="444" y="-533.6" font-family="Times,serif" font-size="13.00">http://railroady.prestonlee.com</text>
</g>
<!-- District -->
<g id="node2" class="node"><title>District</title>
<ellipse fill="none" stroke="black" cx="85" cy="-362" rx="37.0701" ry="18"/>
<text text-anchor="middle" x="85" y="-358.3" font-family="Times,serif" font-size="14.00">District</text>
</g>
<!-- Address -->
<g id="node7" class="node"><title>Address</title>
<ellipse fill="none" stroke="black" cx="157" cy="-254" rx="39.4691" ry="18"/>
<text text-anchor="middle" x="157" y="-250.3" font-family="Times,serif" font-size="14.00">Address</text>
</g>
<!-- District&#45;&gt;Address -->
<g id="edge1" class="edge"><title>District&#45;&gt;Address</title>
<path fill="none" stroke="#7629f9" d="M100.81,-337.724C112.412,-320.643 128.149,-297.475 140.018,-280.002"/>
<ellipse fill="none" stroke="#7629f9" cx="98.4976" cy="-341.129" rx="4.00002" ry="4.00002"/>
<polygon fill="#7629f9" stroke="#7629f9" points="140.21,-279.718 149.551,-273.975 143.02,-275.582 145.829,-271.446 145.829,-271.446 145.829,-271.446 143.02,-275.582 142.107,-268.918 140.21,-279.718 140.21,-279.718"/>
</g>
<!-- Schedule -->
<g id="node3" class="node"><title>Schedule</title>
<ellipse fill="none" stroke="black" cx="340" cy="-416" rx="42.3456" ry="18"/>
<text text-anchor="middle" x="340" y="-412.3" font-family="Times,serif" font-size="14.00">Schedule</text>
</g>
<!-- Delivery -->
<g id="node11" class="node"><title>Delivery</title>
<ellipse fill="none" stroke="black" cx="301" cy="-166" rx="41.394" ry="18"/>
<text text-anchor="middle" x="301" y="-162.3" font-family="Times,serif" font-size="14.00">Delivery</text>
</g>
<!-- Schedule&#45;&gt;Delivery -->
<g id="edge3" class="edge"><title>Schedule&#45;&gt;Delivery</title>
<path fill="none" stroke="#d0af0c" d="M336.045,-389.849C328.672,-342.968 312.89,-242.608 305.279,-194.209"/>
<ellipse fill="none" stroke="#d0af0c" cx="336.698" cy="-394.003" rx="4.00001" ry="4.00001"/>
<polygon fill="#d0af0c" stroke="#d0af0c" points="305.253,-194.044 308.145,-183.466 304.476,-189.105 303.699,-184.165 303.699,-184.165 303.699,-184.165 304.476,-189.105 299.254,-184.864 305.253,-194.044 305.253,-194.044"/>
</g>
<!-- Territory -->
<g id="node4" class="node"><title>Territory</title>
<ellipse fill="none" stroke="black" cx="42" cy="-470" rx="42.3701" ry="18"/>
<text text-anchor="middle" x="42" y="-466.3" font-family="Times,serif" font-size="14.00">Territory</text>
</g>
<!-- Territory&#45;&gt;District -->
<g id="edge5" class="edge"><title>Territory&#45;&gt;District</title>
<path fill="none" stroke="#f81be4" d="M51.9247,-444.534C58.6303,-428.004 67.4763,-406.198 74.3327,-389.296"/>
<ellipse fill="none" stroke="#f81be4" cx="50.4124" cy="-448.263" rx="4.00002" ry="4.00002"/>
<polygon fill="#f81be4" stroke="#f81be4" points="74.3493,-389.255 82.2784,-381.68 76.2289,-384.622 78.1085,-379.988 78.1085,-379.988 78.1085,-379.988 76.2289,-384.622 73.9385,-378.297 74.3493,-389.255 74.3493,-389.255"/>
</g>
<!-- User -->
<g id="node5" class="node"><title>User</title>
<ellipse fill="none" stroke="black" cx="589" cy="-362" rx="26.949" ry="18"/>
<text text-anchor="middle" x="589" y="-358.3" font-family="Times,serif" font-size="14.00">User</text>
</g>
<!-- User&#45;&gt;Address -->
<g id="edge7" class="edge"><title>User&#45;&gt;Address</title>
<path fill="none" stroke="#d65f60" d="M554.35,-356.684C512.819,-351.164 441.277,-340.548 381,-326 314.222,-309.883 238.377,-284.249 194.285,-268.592"/>
<ellipse fill="none" stroke="#d65f60" cx="558.526" cy="-357.232" rx="4.00001" ry="4.00001"/>
<ellipse fill="#d65f60" stroke="#d65f60" cx="190.462" cy="-267.228" rx="4.00001" ry="4.00001"/>
</g>
<!-- Offer -->
<g id="node9" class="node"><title>Offer</title>
<ellipse fill="none" stroke="black" cx="465" cy="-254" rx="29.3479" ry="18"/>
<text text-anchor="middle" x="465" y="-250.3" font-family="Times,serif" font-size="14.00">Offer</text>
</g>
<!-- User&#45;&gt;Offer -->
<g id="edge9" class="edge"><title>User&#45;&gt;Offer</title>
<path fill="none" stroke="#5f75a4" d="M554.544,-356.479C520.084,-351.167 470.583,-341.114 459,-326 449.494,-313.596 450.831,-296.143 454.625,-281.646"/>
<ellipse fill="none" stroke="#5f75a4" cx="558.558" cy="-357.076" rx="4.00001" ry="4.00001"/>
<polygon fill="#5f75a4" stroke="#5f75a4" points="454.739,-281.277 462,-273.059 456.221,-276.501 457.702,-271.726 457.702,-271.726 457.702,-271.726 456.221,-276.501 453.404,-270.393 454.739,-281.277 454.739,-281.277"/>
</g>
<!-- User&#45;&gt;Offer -->
<g id="edge10" class="edge"><title>User&#45;&gt;Offer</title>
<path fill="none" stroke="#7dd748" d="M553.77,-358.923C529.3,-355.564 497.824,-347.089 479,-326 468.43,-314.159 464.883,-296.713 464.002,-282.079"/>
<ellipse fill="none" stroke="#7dd748" cx="557.8" cy="-359.403" rx="4.00001" ry="4.00001"/>
<polygon fill="#7dd748" stroke="#7dd748" points="464.001,-282.037 468.267,-271.935 463.885,-277.038 463.769,-272.04 463.769,-272.04 463.769,-272.04 463.885,-277.038 459.27,-272.144 464.001,-282.037 464.001,-282.037"/>
<text text-anchor="middle" x="523" y="-304.3" font-family="Times,serif" font-size="14.00">reviewed_offers</text>
</g>
<!-- User&#45;&gt;Offer -->
<g id="edge14" class="edge"><title>User&#45;&gt;Offer</title>
<path fill="none" stroke="#34c2bf" d="M586.523,-333.812C583.859,-319.144 578.353,-301.7 567,-290 550.418,-272.911 525.135,-264.163 503.89,-259.687"/>
<polygon fill="#34c2bf" stroke="#34c2bf" points="586.549,-333.988 583.552,-344.536 587.277,-338.935 588.004,-343.881 588.004,-343.881 588.004,-343.881 587.277,-338.935 592.457,-343.227 586.549,-333.988 586.549,-333.988"/>
<polygon fill="#34c2bf" stroke="#34c2bf" points="503.672,-259.646 494.666,-253.391 498.757,-258.73 493.841,-257.814 493.841,-257.814 493.841,-257.814 498.757,-258.73 493.017,-262.238 503.672,-259.646 503.672,-259.646"/>
<text text-anchor="middle" x="637.5" y="-304.3" font-family="Times,serif" font-size="14.00">offers_subscription</text>
</g>
<!-- Subscription -->
<g id="node10" class="node"><title>Subscription</title>
<ellipse fill="none" stroke="black" cx="499" cy="-18" rx="55.3682" ry="18"/>
<text text-anchor="middle" x="499" y="-14.3" font-family="Times,serif" font-size="14.00">Subscription</text>
</g>
<!-- User&#45;&gt;Subscription -->
<g id="edge13" class="edge"><title>User&#45;&gt;Subscription</title>
<path fill="none" stroke="#2223bb" d="M553.476,-360.269C520.926,-357.963 472.801,-350.264 439,-326 408.842,-304.351 395,-292.124 395,-255 395,-255 395,-255 395,-91 395,-62.6404 421.465,-44.5709 447.695,-33.6265"/>
<ellipse fill="none" stroke="#2223bb" cx="557.815" cy="-360.528" rx="4" ry="4"/>
<polygon fill="#2223bb" stroke="#2223bb" points="447.972,-33.5193 458.922,-34.1077 452.635,-31.7151 457.298,-29.9109 457.298,-29.9109 457.298,-29.9109 452.635,-31.7151 455.675,-25.714 447.972,-33.5193 447.972,-33.5193"/>
</g>
<!-- Message -->
<g id="node12" class="node"><title>Message</title>
<ellipse fill="none" stroke="black" cx="656" cy="-92" rx="42.3701" ry="18"/>
<text text-anchor="middle" x="656" y="-88.3" font-family="Times,serif" font-size="14.00">Message</text>
</g>
<!-- User&#45;&gt;Message -->
<g id="edge11" class="edge"><title>User&#45;&gt;Message</title>
<path fill="none" stroke="#bf5656" d="M623.422,-356.562C658.156,-351.295 708.286,-341.254 720,-326 729.745,-313.31 724.637,-305.313 720,-290 717.214,-280.798 710.786,-281.202 708,-272 703.363,-256.687 700.706,-250.24 708,-236 714.242,-223.814 726.758,-230.186 733,-218 736.242,-211.671 735.152,-208.778 733,-202 722.475,-168.859 697.827,-137.114 679.232,-116.519"/>
<ellipse fill="none" stroke="#bf5656" cx="619.351" cy="-357.158" rx="4.00001" ry="4.00001"/>
<polygon fill="#bf5656" stroke="#bf5656" points="678.994,-116.262 675.494,-105.869 675.594,-112.595 672.194,-108.929 672.194,-108.929 672.194,-108.929 675.594,-112.595 668.895,-111.989 678.994,-116.262 678.994,-116.262"/>
</g>
<!-- User&#45;&gt;Message -->
<g id="edge12" class="edge"><title>User&#45;&gt;Message</title>
<path fill="none" stroke="#58a581" d="M624.224,-359.426C648.154,-356.298 678.221,-347.892 694,-326 724.506,-283.675 662.632,-268.079 648,-218 638.405,-185.162 643.625,-145.476 649.074,-119.761"/>
<ellipse fill="none" stroke="#58a581" cx="620.025" cy="-359.888" rx="4.00001" ry="4.00001"/>
<polygon fill="#58a581" stroke="#58a581" points="649.08,-119.733 655.689,-110.982 650.191,-114.858 651.301,-109.983 651.301,-109.983 651.301,-109.983 650.191,-114.858 646.914,-108.983 649.08,-119.733 649.08,-119.733"/>
<text text-anchor="middle" x="688.5" y="-206.3" font-family="Times,serif" font-size="14.00">sent_messages</text>
</g>
<!-- AuthToken -->
<g id="node17" class="node"><title>AuthToken</title>
<ellipse fill="none" stroke="black" cx="768" cy="-254" rx="50.5427" ry="18"/>
<text text-anchor="middle" x="768" y="-250.3" font-family="Times,serif" font-size="14.00">AuthToken</text>
</g>
<!-- User&#45;&gt;AuthToken -->
<g id="edge8" class="edge"><title>User&#45;&gt;AuthToken</title>
<path fill="none" stroke="#e75dd3" d="M623.559,-357.251C663.944,-352.201 727.487,-341.962 745,-326 757.175,-314.903 762.93,-297.316 765.639,-282.422"/>
<ellipse fill="none" stroke="#e75dd3" cx="619.536" cy="-357.739" rx="4.00001" ry="4.00001"/>
<polygon fill="#e75dd3" stroke="#e75dd3" points="765.688,-282.082 771.574,-272.83 766.404,-277.134 767.121,-272.185 767.121,-272.185 767.121,-272.185 766.404,-277.134 762.667,-271.54 765.688,-282.082 765.688,-282.082"/>
</g>
<!-- Permission -->
<g id="node6" class="node"><title>Permission</title>
<ellipse fill="none" stroke="black" cx="696" cy="-470" rx="50.0684" ry="18"/>
<text text-anchor="middle" x="696" y="-466.3" font-family="Times,serif" font-size="14.00">Permission</text>
</g>
<!-- Permission&#45;&gt;User -->
<g id="edge16" class="edge"><title>Permission&#45;&gt;User</title>
<path fill="none" stroke="#a2d058" d="M673.835,-447.042C655.436,-428.815 629.399,-403.022 611.036,-384.83"/>
<ellipse fill="none" stroke="#a2d058" cx="676.907" cy="-450.086" rx="4.00002" ry="4.00002"/>
<polygon fill="#a2d058" stroke="#a2d058" points="610.784,-384.58 606.847,-374.346 607.232,-381.061 603.68,-377.543 603.68,-377.543 603.68,-377.543 607.232,-381.061 600.513,-380.739 610.784,-384.58 610.784,-384.58"/>
</g>
<!-- ItemType -->
<g id="node8" class="node"><title>ItemType</title>
<ellipse fill="none" stroke="black" cx="1089" cy="-254" rx="45.244" ry="18"/>
<text text-anchor="middle" x="1089" y="-250.3" font-family="Times,serif" font-size="14.00">ItemType</text>
</g>
<!-- Package -->
<g id="node16" class="node"><title>Package</title>
<ellipse fill="none" stroke="black" cx="1089" cy="-92" rx="39.9464" ry="18"/>
<text text-anchor="middle" x="1089" y="-88.3" font-family="Times,serif" font-size="14.00">Package</text>
</g>
<!-- ItemType&#45;&gt;Package -->
<g id="edge20" class="edge"><title>ItemType&#45;&gt;Package</title>
<path fill="none" stroke="#7b146a" d="M1089,-227.704C1089,-198.565 1089,-150.845 1089,-120.72"/>
<ellipse fill="none" stroke="#7b146a" cx="1089" cy="-231.877" rx="4" ry="4"/>
<polygon fill="#7b146a" stroke="#7b146a" points="1089,-120.485 1093.5,-110.485 1089,-115.485 1089,-110.485 1089,-110.485 1089,-110.485 1089,-115.485 1084.5,-110.485 1089,-120.485 1089,-120.485"/>
</g>
<!-- Item -->
<g id="node18" class="node"><title>Item</title>
<ellipse fill="none" stroke="black" cx="985" cy="-166" rx="26.949" ry="18"/>
<text text-anchor="middle" x="985" y="-162.3" font-family="Times,serif" font-size="14.00">Item</text>
</g>
<!-- ItemType&#45;&gt;Item -->
<g id="edge19" class="edge"><title>ItemType&#45;&gt;Item</title>
<path fill="none" stroke="#60793e" d="M1063.65,-232.04C1047.2,-218.433 1025.86,-200.79 1009.57,-187.314"/>
<ellipse fill="none" stroke="#60793e" cx="1066.84" cy="-234.677" rx="4.00002" ry="4.00002"/>
<polygon fill="#60793e" stroke="#60793e" points="1009.26,-187.062 1004.42,-177.221 1005.41,-183.876 1001.55,-180.689 1001.55,-180.689 1001.55,-180.689 1005.41,-183.876 998.687,-184.157 1009.26,-187.062 1009.26,-187.062"/>
</g>
<!-- Offer&#45;&gt;User -->
<g id="edge26" class="edge"><title>Offer&#45;&gt;User</title>
<path fill="none" stroke="#87afa7" d="M449.391,-280.09C442.422,-294.795 437.815,-312.978 448,-326 460.712,-342.253 514.771,-352.028 552.133,-356.966"/>
<polygon fill="#87afa7" stroke="#87afa7" points="449.511,-279.862 458.159,-273.119 451.846,-275.44 454.18,-271.018 454.18,-271.018 454.18,-271.018 451.846,-275.44 450.201,-268.918 449.511,-279.862 449.511,-279.862"/>
<polygon fill="#87afa7" stroke="#87afa7" points="552.258,-356.981 561.617,-362.696 557.219,-357.606 562.18,-358.231 562.18,-358.231 562.18,-358.231 557.219,-357.606 562.742,-353.767 552.258,-356.981 552.258,-356.981"/>
</g>
<!-- Offer&#45;&gt;Subscription -->
<g id="edge24" class="edge"><title>Offer&#45;&gt;Subscription</title>
<path fill="none" stroke="#ce24bc" d="M460.978,-227.906C460.573,-224.582 460.228,-221.214 460,-218 459.496,-210.907 459.737,-209.106 460,-202 460.889,-177.951 459.942,-171.721 464,-148 470.122,-112.216 481.833,-71.9917 490.015,-46.1182"/>
<ellipse fill="none" stroke="#ce24bc" cx="461.533" cy="-231.999" rx="4.00001" ry="4.00001"/>
<polygon fill="#ce24bc" stroke="#ce24bc" points="490.114,-45.811 497.457,-37.6666 491.643,-41.0506 493.172,-36.2902 493.172,-36.2902 493.172,-36.2902 491.643,-41.0506 488.888,-34.9138 490.114,-45.811 490.114,-45.811"/>
</g>
<!-- Offer&#45;&gt;Delivery -->
<g id="edge22" class="edge"><title>Offer&#45;&gt;Delivery</title>
<path fill="none" stroke="#7c7cba" d="M436.107,-237.849C407.44,-222.816 363.575,-199.814 333.659,-184.126"/>
<ellipse fill="none" stroke="#7c7cba" cx="439.68" cy="-239.722" rx="4.00002" ry="4.00002"/>
<ellipse fill="#7c7cba" stroke="#7c7cba" cx="329.914" cy="-182.162" rx="4.00002" ry="4.00002"/>
</g>
<!-- Offer&#45;&gt;Message -->
<g id="edge25" class="edge"><title>Offer&#45;&gt;Message</title>
<path fill="none" stroke="#4f1155" d="M499.3,-240.05C527.034,-228.385 565.945,-209.205 594,-184 614.653,-165.445 631.827,-138.654 642.823,-118.945"/>
<polygon fill="#4f1155" stroke="#4f1155" points="499.247,-240.071 488.287,-239.695 494.62,-241.965 489.992,-243.86 489.992,-243.86 489.992,-243.86 494.62,-241.965 491.697,-248.024 499.247,-240.071 499.247,-240.071"/>
<polygon fill="#4f1155" stroke="#4f1155" points="642.954,-118.701 651.67,-112.046 645.333,-114.303 647.712,-109.905 647.712,-109.905 647.712,-109.905 645.333,-114.303 643.754,-107.764 642.954,-118.701 642.954,-118.701"/>
</g>
<!-- Offer&#45;&gt;Item -->
<g id="edge23" class="edge"><title>Offer&#45;&gt;Item</title>
<path fill="none" stroke="#d63261" d="M501.966,-249.098C554.25,-243.382 652.718,-231.888 736,-218 812.64,-205.22 901.651,-185.893 949.757,-175.071"/>
<ellipse fill="none" stroke="#d63261" cx="497.957" cy="-249.534" rx="4.00001" ry="4.00001"/>
<polygon fill="#d63261" stroke="#d63261" points="949.911,-175.037 960.657,-177.222 954.788,-173.935 959.665,-172.833 959.665,-172.833 959.665,-172.833 954.788,-173.935 958.673,-168.443 949.911,-175.037 949.911,-175.037"/>
</g>
<!-- Message&#45;&gt;Offer -->
<g id="edge31" class="edge"><title>Message&#45;&gt;Offer</title>
<path fill="none" stroke="#322815" d="M604.356,-95.9417C565.859,-100.969 514.957,-114.112 485,-148 466.326,-169.124 462.773,-202.16 462.971,-225.527"/>
<polygon fill="#322815" stroke="#322815" points="604.422,-95.9341 614.875,-99.2493 609.389,-95.3567 614.356,-94.7794 614.356,-94.7794 614.356,-94.7794 609.389,-95.3567 613.836,-90.3095 604.422,-95.9341 604.422,-95.9341"/>
<polygon fill="#322815" stroke="#322815" points="462.98,-225.821 458.804,-235.96 463.141,-230.818 463.301,-235.816 463.301,-235.816 463.301,-235.816 463.141,-230.818 467.799,-235.671 462.98,-225.821 462.98,-225.821"/>
<text text-anchor="middle" x="537.5" y="-162.3" font-family="Times,serif" font-size="14.00">offers_subscription</text>
</g>
<!-- Message&#45;&gt;Subscription -->
<g id="edge30" class="edge"><title>Message&#45;&gt;Subscription</title>
<path fill="none" stroke="#019a2c" d="M620.858,-74.8841C596.574,-63.7471 564.222,-48.9107 538.956,-37.3238"/>
<ellipse fill="none" stroke="#019a2c" cx="624.657" cy="-76.6261" rx="4.00002" ry="4.00002"/>
<polygon fill="#019a2c" stroke="#019a2c" points="538.741,-37.2252 531.527,-28.9662 534.196,-35.1409 529.651,-33.0566 529.651,-33.0566 529.651,-33.0566 534.196,-35.1409 527.775,-37.147 538.741,-37.2252 538.741,-37.2252"/>
</g>
<!-- DonorCondition -->
<g id="node13" class="node"><title>DonorCondition</title>
<ellipse fill="none" stroke="black" cx="1046" cy="-308" rx="68.3664" ry="18"/>
<text text-anchor="middle" x="1046" y="-304.3" font-family="Times,serif" font-size="14.00">DonorCondition</text>
</g>
<!-- DonorCondition&#45;&gt;Item -->
<g id="edge33" class="edge"><title>DonorCondition&#45;&gt;Item</title>
<path fill="none" stroke="#300130" d="M1035.24,-282.301C1024.29,-257.169 1007.39,-218.38 996.26,-192.843"/>
<ellipse fill="none" stroke="#300130" cx="1036.92" cy="-286.166" rx="4.00002" ry="4.00002"/>
<polygon fill="#300130" stroke="#300130" points="996.156,-192.605 996.287,-181.639 994.159,-188.021 992.162,-183.437 992.162,-183.437 992.162,-183.437 994.159,-188.021 988.036,-185.235 996.156,-192.605 996.156,-192.605"/>
</g>
<!-- Contact -->
<g id="node14" class="node"><title>Contact</title>
<ellipse fill="none" stroke="black" cx="216" cy="-362" rx="38.0212" ry="18"/>
<text text-anchor="middle" x="216" y="-358.3" font-family="Times,serif" font-size="14.00">Contact</text>
</g>
<!-- Contact&#45;&gt;Address -->
<g id="edge35" class="edge"><title>Contact&#45;&gt;Address</title>
<path fill="none" stroke="#6c4570" d="M202.776,-337.241C193.085,-319.831 179.983,-296.292 170.28,-278.858"/>
<ellipse fill="none" stroke="#6c4570" cx="204.836" cy="-340.942" rx="4.00002" ry="4.00002"/>
<ellipse fill="#6c4570" stroke="#6c4570" cx="168.294" cy="-275.291" rx="4.00002" ry="4.00002"/>
</g>
<!-- Contact&#45;&gt;Delivery -->
<g id="edge36" class="edge"><title>Contact&#45;&gt;Delivery</title>
<path fill="none" stroke="#cb4216" d="M220.703,-335.6C227.528,-302.952 242.265,-245.321 268,-202 270.808,-197.272 274.355,-192.661 278.075,-188.42"/>
<ellipse fill="none" stroke="#cb4216" cx="219.853" cy="-339.805" rx="4.00001" ry="4.00001"/>
<ellipse fill="#cb4216" stroke="#cb4216" cx="280.858" cy="-185.428" rx="4.00002" ry="4.00002"/>
</g>
<!-- Ability -->
<g id="node15" class="node"><title>Ability</title>
<polygon fill="none" stroke="black" points="1288.25,-488 1233.75,-488 1233.75,-452 1288.25,-452 1288.25,-488"/>
<text text-anchor="middle" x="1261" y="-466.3" font-family="Times,serif" font-size="14.00">Ability</text>
</g>
<!-- Item&#45;&gt;Message -->
<g id="edge41" class="edge"><title>Item&#45;&gt;Message</title>
<path fill="none" stroke="#70a63d" d="M952.868,-155.417C925.433,-147.437 884.841,-136.109 849,-128 800.37,-116.997 744.234,-107.131 705.085,-100.701"/>
<ellipse fill="none" stroke="#70a63d" cx="956.752" cy="-156.553" rx="4.00001" ry="4.00001"/>
<polygon fill="#70a63d" stroke="#70a63d" points="704.884,-100.668 695.738,-94.6194 699.949,-99.8645 695.014,-99.0609 695.014,-99.0609 695.014,-99.0609 699.949,-99.8645 694.291,-103.502 704.884,-100.668 704.884,-100.668"/>
</g>
<!-- Item&#45;&gt;Package -->
<g id="edge43" class="edge"><title>Item&#45;&gt;Package</title>
<path fill="none" stroke="#314a12" d="M1009.83,-147.813C1024.76,-137.474 1043.85,-124.256 1059.55,-113.391"/>
<ellipse fill="none" stroke="#314a12" cx="1006.4" cy="-150.182" rx="4.00002" ry="4.00002"/>
<polygon fill="#314a12" stroke="#314a12" points="1059.65,-113.322 1070.43,-111.33 1063.76,-110.476 1067.87,-107.63 1067.87,-107.63 1067.87,-107.63 1063.76,-110.476 1065.31,-103.93 1059.65,-113.322 1059.65,-113.322"/>
</g>
<!-- Image -->
<g id="node21" class="node"><title>Image</title>
<ellipse fill="none" stroke="black" cx="1192" cy="-92" rx="33.2209" ry="18"/>
<text text-anchor="middle" x="1192" y="-88.3" font-family="Times,serif" font-size="14.00">Image</text>
</g>
<!-- Item&#45;&gt;Image -->
<g id="edge42" class="edge"><title>Item&#45;&gt;Image</title>
<path fill="none" stroke="#17dcf6" d="M1016.44,-154.065C1053.78,-141.076 1115.97,-119.446 1155.43,-105.721"/>
<ellipse fill="none" stroke="#17dcf6" cx="1012.52" cy="-155.427" rx="4.00001" ry="4.00001"/>
<polygon fill="#17dcf6" stroke="#17dcf6" points="1155.5,-105.697 1166.42,-106.662 1160.22,-104.054 1164.94,-102.412 1164.94,-102.412 1164.94,-102.412 1160.22,-104.054 1163.46,-98.1613 1155.5,-105.697 1155.5,-105.697"/>
</g>
<!-- RejectionReason -->
<g id="node19" class="node"><title>RejectionReason</title>
<ellipse fill="none" stroke="black" cx="1006" cy="-416" rx="70.2909" ry="18"/>
<text text-anchor="middle" x="1006" y="-412.3" font-family="Times,serif" font-size="14.00">RejectionReason</text>
</g>
<!-- RejectionReason&#45;&gt;Item -->
<g id="edge45" class="edge"><title>RejectionReason&#45;&gt;Item</title>
<path fill="none" stroke="#63bdcc" d="M995.675,-390.436C988.861,-372.847 980.559,-348.408 977,-326 969.717,-280.139 975.439,-225.991 980.233,-194.186"/>
<ellipse fill="none" stroke="#63bdcc" cx="997.203" cy="-394.285" rx="4.00001" ry="4.00001"/>
<polygon fill="#63bdcc" stroke="#63bdcc" points="980.234,-194.177 986.247,-185.007 981.019,-189.239 981.803,-184.301 981.803,-184.301 981.803,-184.301 981.019,-189.239 977.359,-183.595 980.234,-194.177 980.234,-194.177"/>
</g>
<!-- Token -->
<g id="node20" class="node"><title>Token</title>
<polygon fill="none" stroke="black" points="1361,-488 1307,-488 1307,-452 1361,-452 1361,-488"/>
<text text-anchor="middle" x="1334" y="-466.3" font-family="Times,serif" font-size="14.00">Token</text>
</g>
<!-- ActiveRecord::Base -->
<g id="node22" class="node"><title>ActiveRecord::Base</title>
<ellipse fill="none" stroke="black" cx="749" cy="-565" rx="81.3646" ry="18"/>
<text text-anchor="middle" x="749" y="-561.3" font-family="Times,serif" font-size="14.00">ActiveRecord::Base</text>
</g>
<!-- ActiveRecord::Base&#45;&gt;District -->
<g id="edge2" class="edge"><title>ActiveRecord::Base&#45;&gt;District</title>
<path fill="none" stroke="black" d="M718.738,-548.116C701.449,-539.88 679.075,-530.603 658,-526 601.302,-513.617 182.773,-542.356 136,-508 94.9218,-477.827 86.7505,-411.963 85.2493,-380.461"/>
</g>
<!-- ActiveRecord::Base&#45;&gt;Schedule -->
<g id="edge4" class="edge"><title>ActiveRecord::Base&#45;&gt;Schedule</title>
<path fill="none" stroke="black" d="M718.268,-548.174C701.019,-540.066 678.834,-530.891 658,-526 598.595,-512.054 434.602,-542.102 384,-508 358.825,-491.034 347.581,-455.44 342.937,-434.144"/>
</g>
<!-- ActiveRecord::Base&#45;&gt;Territory -->
<g id="edge6" class="edge"><title>ActiveRecord::Base&#45;&gt;Territory</title>
<path fill="none" stroke="black" d="M718.742,-548.096C701.455,-539.855 679.081,-530.578 658,-526 536.327,-499.576 216.65,-545.745 98,-508 84.0086,-503.549 70.224,-494.516 59.8321,-486.49"/>
</g>
<!-- ActiveRecord::Base&#45;&gt;User -->
<g id="edge15" class="edge"><title>ActiveRecord::Base&#45;&gt;User</title>
<path fill="none" stroke="black" d="M715.777,-548.446C691.066,-535.387 658.102,-514.602 637,-488 610.707,-454.854 597.538,-405.658 592.123,-379.987"/>
</g>
<!-- ActiveRecord::Base&#45;&gt;Permission -->
<g id="edge17" class="edge"><title>ActiveRecord::Base&#45;&gt;Permission</title>
<path fill="none" stroke="black" d="M739.279,-546.942C729.716,-530.162 715.201,-504.692 705.659,-487.949"/>
</g>
<!-- ActiveRecord::Base&#45;&gt;Address -->
<g id="edge18" class="edge"><title>ActiveRecord::Base&#45;&gt;Address</title>
<path fill="none" stroke="black" d="M718.718,-548.206C701.423,-539.999 679.05,-530.719 658,-526 486.519,-487.554 432.071,-555.944 263,-508 165.64,-480.391 156.876,-324.293 156.708,-272.041"/>
</g>
<!-- ActiveRecord::Base&#45;&gt;ItemType -->
<g id="edge21" class="edge"><title>ActiveRecord::Base&#45;&gt;ItemType</title>
<path fill="none" stroke="black" d="M816.836,-554.981C897.342,-543.023 1025.2,-519.682 1061,-488 1117.84,-437.704 1107.72,-401.545 1115,-326 1116.53,-310.074 1120.02,-305.19 1115,-290 1112.77,-283.245 1108.67,-276.731 1104.37,-271.193"/>
</g>
<!-- ActiveRecord::Base&#45;&gt;Offer -->
<g id="edge27" class="edge"><title>ActiveRecord::Base&#45;&gt;Offer</title>
<path fill="none" stroke="black" d="M710.034,-549.093C638.986,-519.406 490.927,-445.294 439,-326 432.614,-311.33 433.975,-305.19 439,-290 441.425,-282.67 446.045,-275.624 450.726,-269.801"/>
</g>
<!-- ActiveRecord::Base&#45;&gt;Subscription -->
<g id="edge28" class="edge"><title>ActiveRecord::Base&#45;&gt;Subscription</title>
<path fill="none" stroke="black" d="M800.804,-551.046C839.237,-537.967 885,-513.477 885,-471 885,-471 885,-471 885,-91 885,-57.5116 657.578,-33.0125 551.862,-23.4332"/>
</g>
<!-- ActiveRecord::Base&#45;&gt;Delivery -->
<g id="edge29" class="edge"><title>ActiveRecord::Base&#45;&gt;Delivery</title>
<path fill="none" stroke="black" d="M718.27,-548.165C701.022,-540.053 678.837,-530.879 658,-526 575.779,-506.749 282,-555.445 282,-471 282,-471 282,-471 282,-253 282,-228.535 289.422,-201.058 294.988,-183.89"/>
</g>
<!-- ActiveRecord::Base&#45;&gt;Message -->
<g id="edge32" class="edge"><title>ActiveRecord::Base&#45;&gt;Message</title>
<path fill="none" stroke="black" d="M783.276,-548.676C811.536,-533.439 847,-507.121 847,-471 847,-471 847,-471 847,-307 847,-209.146 734.467,-135.429 682.157,-106.449"/>
</g>
<!-- ActiveRecord::Base&#45;&gt;DonorCondition -->
<g id="edge34" class="edge"><title>ActiveRecord::Base&#45;&gt;DonorCondition</title>
<path fill="none" stroke="black" d="M826.544,-559.616C906.97,-550.271 1027.72,-521.539 1077,-434 1096.85,-398.734 1073.14,-350.85 1057.53,-325.819"/>
</g>
<!-- ActiveRecord::Base&#45;&gt;Contact -->
<g id="edge37" class="edge"><title>ActiveRecord::Base&#45;&gt;Contact</title>
<path fill="none" stroke="black" d="M718.717,-548.21C701.422,-540.005 679.048,-530.725 658,-526 615.674,-516.497 302.89,-533.777 268,-508 226.916,-477.647 218.191,-411.871 216.409,-380.426"/>
</g>
<!-- ActiveRecord::Base&#45;&gt;Package -->
<g id="edge39" class="edge"><title>ActiveRecord::Base&#45;&gt;Package</title>
<path fill="none" stroke="black" d="M829.595,-562.299C951.061,-557.517 1167,-539.396 1167,-471 1167,-471 1167,-471 1167,-165 1167,-136.988 1139.5,-116.857 1117.16,-105.124"/>
</g>
<!-- ActiveRecord::Base&#45;&gt;AuthToken -->
<g id="edge40" class="edge"><title>ActiveRecord::Base&#45;&gt;AuthToken</title>
<path fill="none" stroke="black" d="M750.921,-547.004C755.221,-508.007 765.516,-409.064 769,-326 769.77,-307.648 769.305,-286.607 768.781,-272.224"/>
</g>
<!-- ActiveRecord::Base&#45;&gt;Item -->
<g id="edge44" class="edge"><title>ActiveRecord::Base&#45;&gt;Item</title>
<path fill="none" stroke="black" d="M813.768,-554.092C843.629,-546.322 877.201,-532.51 899,-508 922.264,-481.842 964.581,-235.715 974,-202 975.68,-195.988 977.685,-189.45 979.521,-183.67"/>
</g>
<!-- ActiveRecord::Base&#45;&gt;RejectionReason -->
<g id="edge46" class="edge"><title>ActiveRecord::Base&#45;&gt;RejectionReason</title>
<path fill="none" stroke="black" d="M815.678,-554.707C853.797,-546.93 901.025,-532.918 937,-508 964.871,-488.695 986.295,-454.578 997.449,-434.05"/>
</g>
<!-- ActiveRecord::Base&#45;&gt;Image -->
<g id="edge48" class="edge"><title>ActiveRecord::Base&#45;&gt;Image</title>
<path fill="none" stroke="black" d="M829.998,-563.848C961.034,-561.386 1205,-546.646 1205,-471 1205,-471 1205,-471 1205,-165 1205,-145.947 1200.54,-124.502 1196.84,-110.01"/>
</g>
<!-- Object -->
<g id="node23" class="node"><title>Object</title>
<ellipse fill="none" stroke="black" cx="1298" cy="-565" rx="34.1708" ry="18"/>
<text text-anchor="middle" x="1298" y="-561.3" font-family="Times,serif" font-size="14.00">Object</text>
</g>
<!-- Object&#45;&gt;Ability -->
<g id="edge38" class="edge"><title>Object&#45;&gt;Ability</title>
<path fill="none" stroke="black" d="M1291.21,-546.942C1284.58,-530.267 1274.53,-505.01 1267.87,-488.264"/>
</g>
<!-- Object&#45;&gt;Token -->
<g id="edge47" class="edge"><title>Object&#45;&gt;Token</title>
<path fill="none" stroke="black" d="M1304.6,-546.942C1311.06,-530.267 1320.83,-505.01 1327.32,-488.264"/>
</g>
</g>
</svg>
